<svg width="24" height="24" viewBox="0 0 24 24" fill="none" xmlns="http://www.w3.org/2000/svg">
<path fill-rule="evenodd" clip-rule="evenodd" d="M3.43597 5.18404C3 6.03968 3 7.15979 3 9.4V14.6C3 16.8402 3 17.9603 3.43597 18.816C3.81947 19.5686 4.43139 20.1805 5.18404 20.564C6.03968 21 7.15979 21 9.4 21H14.6C16.8402 21 17.9603 21 18.816 20.564C19.5686 20.1805 20.1805 19.5686 20.564 18.816C21 17.9603 21 16.8402 21 14.6V9.4C21 7.15979 21 6.03968 20.564 5.18404C20.1805 4.43139 19.5686 3.81947 18.816 3.43597C17.9603 3 16.8402 3 14.6 3H9.4C7.15979 3 6.03968 3 5.18404 3.43597C4.43139 3.81947 3.81947 4.43139 3.43597 5.18404ZM15 8C15.1356 8 15.2649 8.02699 15.3828 8.07588C15.5007 8.12468 15.6112 8.19702 15.7071 8.29289C15.8984 8.48422 15.996 8.7338 15.9999 8.98454L16 9.00159V15C16 15.5523 15.5523 16 15 16C14.4477 16 14 15.5523 14 15V11.4142L9.70711 15.7071C9.31658 16.0976 8.68342 16.0976 8.29289 15.7071C7.90237 15.3166 7.90237 14.6834 8.29289 14.2929L12.5858 10H9C8.44772 10 8 9.55229 8 9C8 8.44772 8.44772 8 9 8H15Z" fill="#DCB976"/>
</svg>
