<svg width="497" height="237" viewBox="0 0 497 237" fill="none" xmlns="http://www.w3.org/2000/svg">
<rect x="164" y="11.5107" width="260" height="57" rx="28.5" stroke="#272727" stroke-width="2"/>
<rect x="-1" y="1" width="57" height="57" rx="28.5" transform="matrix(-1 0 0 1 495 10.5107)" stroke="#272727" stroke-width="2"/>
<path d="M468.508 28.5905L477.258 31.3905C477.948 31.6121 478.416 32.2538 478.416 32.9771V43.8438C478.416 48.8938 470.61 51.7571 468.513 52.4355C468.175 52.5455 467.825 52.5455 467.486 52.4355C465.39 51.7571 457.583 48.8938 457.583 43.8438V32.9771C457.583 32.2521 458.051 31.6105 458.741 31.3905L467.491 28.5905C467.821 28.4855 468.176 28.4855 468.508 28.5905Z" stroke="#DCB976" stroke-width="2.5" stroke-linecap="round" stroke-linejoin="round"/>
<path d="M463.828 41.7604L466.51 44.2604L472.171 36.7604" stroke="#DCB976" stroke-width="2.5" stroke-linecap="round" stroke-linejoin="round"/>
<path d="M193.2 35.5781H195.354L195.119 40.4414H193.435L193.2 35.5781ZM193.2 45.3193L193.435 40.4414H195.119L195.354 45.3193H193.2ZM189.553 38.8447L190.651 37.1602L194.694 39.7676L193.845 41.1152L189.553 38.8447ZM199.001 38.8447L194.694 41.1152L193.859 39.7676L197.902 37.1602L199.001 38.8447ZM198.986 42.0381L197.888 43.7227L193.859 41.1152L194.694 39.7676L198.986 42.0381ZM189.553 42.0674L193.845 39.7969L194.694 41.1299L190.651 43.752L189.553 42.0674ZM205.915 35.5781H208.068L207.834 40.4414H206.149L205.915 35.5781ZM205.915 45.3193L206.149 40.4414H207.834L208.068 45.3193H205.915ZM202.268 38.8447L203.366 37.1602L207.409 39.7676L206.56 41.1152L202.268 38.8447ZM211.716 38.8447L207.409 41.1152L206.574 39.7676L210.617 37.1602L211.716 38.8447ZM211.701 42.0381L210.603 43.7227L206.574 41.1152L207.409 39.7676L211.701 42.0381ZM202.268 42.0674L206.56 39.7969L207.409 41.1299L203.366 43.752L202.268 42.0674ZM218.63 35.5781H220.783L220.549 40.4414H218.864L218.63 35.5781ZM218.63 45.3193L218.864 40.4414H220.549L220.783 45.3193H218.63ZM214.982 38.8447L216.081 37.1602L220.124 39.7676L219.274 41.1152L214.982 38.8447ZM224.431 38.8447L220.124 41.1152L219.289 39.7676L223.332 37.1602L224.431 38.8447ZM224.416 42.0381L223.317 43.7227L219.289 41.1152L220.124 39.7676L224.416 42.0381ZM214.982 42.0674L219.274 39.7969L220.124 41.1299L216.081 43.752L214.982 42.0674ZM231.345 35.5781H233.498L233.264 40.4414H231.579L231.345 35.5781ZM231.345 45.3193L231.579 40.4414H233.264L233.498 45.3193H231.345ZM227.697 38.8447L228.796 37.1602L232.839 39.7676L231.989 41.1152L227.697 38.8447ZM237.146 38.8447L232.839 41.1152L232.004 39.7676L236.047 37.1602L237.146 38.8447ZM237.131 42.0381L236.032 43.7227L232.004 41.1152L232.839 39.7676L237.131 42.0381ZM227.697 42.0674L231.989 39.7969L232.839 41.1299L228.796 43.752L227.697 42.0674ZM244.06 35.5781H246.213L245.979 40.4414H244.294L244.06 35.5781ZM244.06 45.3193L244.294 40.4414H245.979L246.213 45.3193H244.06ZM240.412 38.8447L241.511 37.1602L245.554 39.7676L244.704 41.1152L240.412 38.8447ZM249.86 38.8447L245.554 41.1152L244.719 39.7676L248.762 37.1602L249.86 38.8447ZM249.846 42.0381L248.747 43.7227L244.719 41.1152L245.554 39.7676L249.846 42.0381ZM240.412 42.0674L244.704 39.7969L245.554 41.1299L241.511 43.752L240.412 42.0674ZM256.774 35.5781H258.928L258.693 40.4414H257.009L256.774 35.5781ZM256.774 45.3193L257.009 40.4414H258.693L258.928 45.3193H256.774ZM253.127 38.8447L254.226 37.1602L258.269 39.7676L257.419 41.1152L253.127 38.8447ZM262.575 38.8447L258.269 41.1152L257.434 39.7676L261.477 37.1602L262.575 38.8447ZM262.561 42.0381L261.462 43.7227L257.434 41.1152L258.269 39.7676L262.561 42.0381ZM253.127 42.0674L257.419 39.7969L258.269 41.1299L254.226 43.752L253.127 42.0674ZM269.489 35.5781H271.643L271.408 40.4414H269.724L269.489 35.5781ZM269.489 45.3193L269.724 40.4414H271.408L271.643 45.3193H269.489ZM265.842 38.8447L266.94 37.1602L270.983 39.7676L270.134 41.1152L265.842 38.8447ZM275.29 38.8447L270.983 41.1152L270.148 39.7676L274.191 37.1602L275.29 38.8447ZM275.275 42.0381L274.177 43.7227L270.148 41.1152L270.983 39.7676L275.275 42.0381ZM265.842 42.0674L270.134 39.7969L270.983 41.1299L266.94 43.752L265.842 42.0674ZM282.204 35.5781H284.357L284.123 40.4414H282.438L282.204 35.5781ZM282.204 45.3193L282.438 40.4414H284.123L284.357 45.3193H282.204ZM278.557 38.8447L279.655 37.1602L283.698 39.7676L282.849 41.1152L278.557 38.8447ZM288.005 38.8447L283.698 41.1152L282.863 39.7676L286.906 37.1602L288.005 38.8447ZM287.99 42.0381L286.892 43.7227L282.863 41.1152L283.698 39.7676L287.99 42.0381ZM278.557 42.0674L282.849 39.7969L283.698 41.1299L279.655 43.752L278.557 42.0674ZM294.919 35.5781H297.072L296.838 40.4414H295.153L294.919 35.5781ZM294.919 45.3193L295.153 40.4414H296.838L297.072 45.3193H294.919ZM291.271 38.8447L292.37 37.1602L296.413 39.7676L295.563 41.1152L291.271 38.8447ZM300.72 38.8447L296.413 41.1152L295.578 39.7676L299.621 37.1602L300.72 38.8447ZM300.705 42.0381L299.606 43.7227L295.578 41.1152L296.413 39.7676L300.705 42.0381ZM291.271 42.0674L295.563 39.7969L296.413 41.1299L292.37 43.752L291.271 42.0674ZM307.634 35.5781H309.787L309.553 40.4414H307.868L307.634 35.5781ZM307.634 45.3193L307.868 40.4414H309.553L309.787 45.3193H307.634ZM303.986 38.8447L305.085 37.1602L309.128 39.7676L308.278 41.1152L303.986 38.8447ZM313.435 38.8447L309.128 41.1152L308.293 39.7676L312.336 37.1602L313.435 38.8447ZM313.42 42.0381L312.321 43.7227L308.293 41.1152L309.128 39.7676L313.42 42.0381ZM303.986 42.0674L308.278 39.7969L309.128 41.1299L305.085 43.752L303.986 42.0674ZM320.349 35.5781H322.502L322.268 40.4414H320.583L320.349 35.5781ZM320.349 45.3193L320.583 40.4414H322.268L322.502 45.3193H320.349ZM316.701 38.8447L317.8 37.1602L321.843 39.7676L320.993 41.1152L316.701 38.8447ZM326.149 38.8447L321.843 41.1152L321.008 39.7676L325.051 37.1602L326.149 38.8447ZM326.135 42.0381L325.036 43.7227L321.008 41.1152L321.843 39.7676L326.135 42.0381ZM316.701 42.0674L320.993 39.7969L321.843 41.1299L317.8 43.752L316.701 42.0674ZM333.063 35.5781H335.217L334.982 40.4414H333.298L333.063 35.5781ZM333.063 45.3193L333.298 40.4414H334.982L335.217 45.3193H333.063ZM329.416 38.8447L330.515 37.1602L334.558 39.7676L333.708 41.1152L329.416 38.8447ZM338.864 38.8447L334.558 41.1152L333.723 39.7676L337.766 37.1602L338.864 38.8447ZM338.85 42.0381L337.751 43.7227L333.723 41.1152L334.558 39.7676L338.85 42.0381ZM329.416 42.0674L333.708 39.7969L334.558 41.1299L330.515 43.752L329.416 42.0674Z" fill="#DCB976"/>
<path d="M37.12 138.96V139.46H37.62H101.49H101.99V138.96V32.618C101.99 24.0576 95.0504 17.118 86.49 17.118H52.62C44.0596 17.118 37.12 24.0576 37.12 32.618V138.96ZM118.61 156.08H20.5V30C20.5 13.7076 33.7076 0.5 50 0.5H89.11C105.402 0.5 118.61 13.7076 118.61 30V156.08Z" fill="#818181" stroke="#272727"/>
<path d="M1 166.306C1 204.325 31.8197 235.144 69.838 235.144C107.856 235.144 138.676 204.325 138.674 166.308V81.3984C138.674 69.8005 129.272 60.3984 117.674 60.3984H22C10.402 60.3984 1 69.8005 1 81.3984V166.306Z" fill="url(#paint0_linear_35_692)" stroke="url(#paint1_linear_35_692)" stroke-width="2"/>
<mask id="path-8-outside-1_35_692" maskUnits="userSpaceOnUse" x="49.832" y="110.66" width="41" height="64" fill="black">
<rect fill="white" x="49.832" y="110.66" width="41" height="64"/>
<path fill-rule="evenodd" clip-rule="evenodd" d="M76.6124 147.354C83.1995 144.678 87.844 138.214 87.844 130.666C87.844 120.722 79.7825 112.66 69.838 112.66C59.8936 112.66 51.832 120.722 51.832 130.666C51.832 138.215 56.4779 144.68 63.0664 147.355V165.747C63.0664 169.488 66.0988 172.52 69.8394 172.52C73.58 172.52 76.6124 169.488 76.6124 165.747V147.354Z"/>
</mask>
<path fill-rule="evenodd" clip-rule="evenodd" d="M76.6124 147.354C83.1995 144.678 87.844 138.214 87.844 130.666C87.844 120.722 79.7825 112.66 69.838 112.66C59.8936 112.66 51.832 120.722 51.832 130.666C51.832 138.215 56.4779 144.68 63.0664 147.355V165.747C63.0664 169.488 66.0988 172.52 69.8394 172.52C73.58 172.52 76.6124 169.488 76.6124 165.747V147.354Z" fill="#111111"/>
<path d="M76.6124 147.354L75.8595 145.501L74.6124 146.008V147.354H76.6124ZM63.0664 147.355H65.0664V146.009L63.819 145.502L63.0664 147.355ZM77.3653 149.207C84.6804 146.235 89.844 139.056 89.844 130.666H85.844C85.844 137.373 81.7187 143.121 75.8595 145.501L77.3653 149.207ZM89.844 130.666C89.844 119.617 80.887 110.66 69.838 110.66V114.66C78.6779 114.66 85.844 121.826 85.844 130.666H89.844ZM69.838 110.66C58.789 110.66 49.832 119.617 49.832 130.666H53.832C53.832 121.826 60.9982 114.66 69.838 114.66V110.66ZM49.832 130.666C49.832 139.057 54.9971 146.237 62.3138 149.208L63.819 145.502C57.9586 143.122 53.832 137.374 53.832 130.666H49.832ZM61.0664 147.355V165.747H65.0664V147.355H61.0664ZM61.0664 165.747C61.0664 170.592 64.9942 174.52 69.8394 174.52V170.52C67.2034 170.52 65.0664 168.383 65.0664 165.747H61.0664ZM69.8394 174.52C74.6846 174.52 78.6124 170.592 78.6124 165.747H74.6124C74.6124 168.383 72.4755 170.52 69.8394 170.52V174.52ZM78.6124 165.747V147.354H74.6124V165.747H78.6124Z" fill="url(#paint2_linear_35_692)" mask="url(#path-8-outside-1_35_692)"/>
<path d="M348.132 73.0922C331.915 126.374 319.782 177.54 280.568 179.968C275.194 180.306 269.298 179.738 262.816 178.112C262.816 178.112 262.922 183.712 254.16 187.052C247.704 189.496 236.44 190.736 216.754 187.59C184.518 182.456 187.664 166.556 187.664 166.556C166.49 160.434 164.13 136.068 164.13 136.068C146.886 120.948 154.028 89.7503 179.828 71.6262C205.622 53.5223 234.229 39.3722 348.132 73.0922Z" fill="#B3B3B3"/>
<path d="M295.863 78.2183C294.675 80.5703 292.549 82.4603 289.513 83.0563C289.037 82.4223 288.471 81.8183 287.783 81.2683C287.043 80.6783 286.299 80.1443 285.552 79.6343C281.156 83.9043 276.753 88.1303 273.335 93.2463C267.045 102.66 252.062 93.3823 258.373 83.9323C260.978 80.0343 264.002 76.4883 267.206 73.1023C263.938 72.6383 260.489 72.3443 256.795 72.0623C217.257 69.0383 232.197 77.4803 188.643 97.7063C189.333 97.9843 190.037 98.3943 190.725 98.9283C193.16 100.802 195.621 102.642 198.089 104.472C191.125 109.666 186.075 117.358 184.169 125.866C183.131 130.506 185.579 135.4 190.321 136.702C194.745 137.918 200.115 135.212 201.157 130.55C202.611 124.05 206.377 119.342 212.347 116.374C212.653 116.222 212.907 116.01 213.183 115.818C215.659 117.764 218.098 119.752 220.478 121.812C220.536 121.738 220.577 121.658 220.637 121.584C221.299 120.402 221.668 119.224 221.78 118.1C222.878 119.234 223.738 120.424 224.304 121.678C224.382 121.848 224.443 122.014 224.515 122.2C228.259 125.568 232.415 128.288 236.381 131.464C238.907 133.48 241.093 135.78 243.519 137.766C244.601 137.958 236.327 142.446 237.639 142.446C255.919 142.446 263.372 157.424 257.678 165.79C262.324 170.178 263.013 177.674 262.857 178.124C269.321 179.74 275.203 180.308 280.565 179.97C284.349 173.336 285.364 164.632 283.752 156.732C286.128 155.286 288.8 154.018 291.878 153.056C306.996 148.29 320.043 135.376 326.281 119.766C333.679 101.302 314.483 81.1763 295.863 78.2183Z" fill="#818181"/>
<path d="M225.948 167.703C219.706 167.703 213.028 165.197 206.914 162.435C206.47 162.233 206.274 161.713 206.474 161.269C206.674 160.825 207.198 160.633 207.64 160.829C216.682 164.919 226.972 168.443 234.732 163.577C241.914 159.075 241.88 149.355 238.808 142.231C238.616 141.783 238.82 141.265 239.268 141.073C239.718 140.877 240.232 141.087 240.426 141.533C243.788 149.325 243.732 160.015 235.67 165.071C232.668 166.949 229.374 167.703 225.948 167.703Z" fill="#272727"/>
<path d="M179.342 147.432C179.182 147.432 179.02 147.39 178.874 147.296C173.264 143.766 168.266 140.32 163.596 136.764C163.208 136.47 163.134 135.918 163.428 135.53C163.724 135.144 164.274 135.068 164.662 135.364C169.29 138.888 174.246 142.304 179.81 145.806C180.222 146.064 180.346 146.608 180.088 147.02C179.922 147.284 179.636 147.432 179.342 147.432Z" fill="#272727"/>
<path d="M348.138 73.0986C369.908 79.5426 384 83.7146 384 83.7146C387.184 108.655 375.388 149.765 357.122 174.505L302.514 158.339L348.138 73.0986Z" fill="#B3B3B3"/>
<path d="M226.72 173.586C212.432 173.586 196.95 171.09 187.354 167.388C186.9 167.212 186.674 166.702 186.85 166.248C187.024 165.792 187.534 165.572 187.99 165.742C205.384 172.458 242.398 175.22 255.162 165.958C258.156 163.784 259.588 161.042 259.416 157.808C259.048 150.85 254.428 142.204 246.588 139.884C246.122 139.746 245.856 139.256 245.994 138.79C246.132 138.324 246.624 138.062 247.09 138.194C255.704 140.744 260.778 150.154 261.176 157.714C261.38 161.584 259.704 164.838 256.196 167.382C250.136 171.782 238.858 173.586 226.72 173.586Z" fill="#272727"/>
<path d="M241.568 183.586C241.524 183.586 241.482 183.582 241.438 183.576C241.334 183.562 238.908 183.18 237.5 181.108C236.522 179.672 236.286 177.826 236.8 175.62C236.91 175.146 237.386 174.85 237.858 174.96C238.332 175.07 238.626 175.546 238.516 176.018C238.122 177.716 238.266 179.092 238.948 180.102C239.912 181.534 241.684 181.83 241.702 181.832C242.182 181.908 242.51 182.356 242.438 182.836C242.368 183.274 241.996 183.586 241.568 183.586Z" fill="#272727"/>
<path d="M241.419 156.464C240.979 156.464 240.599 156.136 240.545 155.688C240.487 155.204 240.833 154.766 241.315 154.708L249.791 153.696C250.279 153.622 250.713 153.984 250.771 154.466C250.829 154.95 250.483 155.388 250.001 155.446L241.525 156.458C241.489 156.462 241.453 156.464 241.419 156.464Z" fill="#272727"/>
<path d="M180.511 122.502H100.357C97.4037 122.502 95.0098 124.896 95.0098 127.849C95.0098 130.802 97.4037 133.196 100.357 133.196H180.511C183.464 133.196 185.858 130.802 185.858 127.849C185.858 124.896 183.464 122.502 180.511 122.502Z" fill="#DCB976"/>
<path d="M112.995 134.999V147.823C112.995 152.514 116.798 156.316 121.488 156.316C126.179 156.316 129.981 152.514 129.981 147.823V134.999C129.981 130.309 126.179 126.506 121.488 126.506C116.798 126.506 112.995 130.309 112.995 134.999Z" fill="#DCB976"/>
<path d="M100.757 134.999V157.521C100.757 162.211 104.559 166.014 109.25 166.014C113.94 166.014 117.743 162.211 117.743 157.521V134.999C117.743 130.308 113.94 126.506 109.25 126.506C104.559 126.506 100.757 130.308 100.757 134.999Z" fill="#DCB976"/>
<path d="M209.95 159.33C192.592 159.33 178.47 145.208 178.47 127.85C178.47 110.492 192.592 96.3701 209.95 96.3701C227.308 96.3701 241.43 110.492 241.43 127.85C241.43 145.208 227.308 159.33 209.95 159.33ZM209.95 106.94C198.422 106.94 189.042 116.32 189.042 127.848C189.042 139.376 198.422 148.756 209.95 148.756C221.478 148.756 230.858 139.376 230.858 127.848C230.858 116.32 221.48 106.94 209.95 106.94Z" fill="#DCB976"/>
<path d="M346.683 128.49C345.699 127.474 344.487 126.67 343.075 126.202L356.709 80.1484L291.123 60.7324C191.263 120.178 177.703 126.192 187.671 142.446C197.419 158.34 223.349 152.75 264.473 127.746C270.725 140.48 284.039 149.948 298.793 153C318.599 157.096 341.409 156.428 357.427 142.312C365.523 135.174 355.035 123.278 346.683 128.49Z" fill="#B3B3B3"/>
<path d="M198.503 142.644C198.159 142.644 197.833 142.442 197.691 142.106C197.501 141.658 197.711 141.142 198.159 140.952C206.743 137.322 211.597 133.312 212.199 129.356C212.595 126.752 211.135 124.03 207.863 121.266C207.491 120.952 207.445 120.396 207.759 120.026C208.073 119.654 208.627 119.608 209.001 119.922C212.773 123.108 214.435 126.372 213.941 129.622C213.233 134.282 208.155 138.64 198.847 142.578C198.735 142.622 198.617 142.644 198.503 142.644Z" fill="#272727"/>
<path d="M240.214 109.253C239.938 109.253 239.668 109.123 239.496 108.883L234.354 101.659C234.072 101.263 234.164 100.713 234.56 100.431C234.958 100.151 235.506 100.243 235.788 100.637L240.93 107.861C241.212 108.257 241.12 108.807 240.724 109.089C240.57 109.201 240.392 109.253 240.214 109.253Z" fill="#272727"/>
<path d="M315.398 156.718C286.406 156.718 268.638 140.53 263.654 128.074C263.474 127.624 263.694 127.11 264.146 126.93C264.596 126.752 265.11 126.97 265.292 127.42C271.086 141.908 294.968 161.606 334.372 152.758C334.85 152.66 335.318 152.95 335.424 153.426C335.53 153.9 335.232 154.372 334.758 154.48C327.836 156.03 321.378 156.718 315.398 156.718Z" fill="#272727"/>
<path d="M94.0097 102.536C93.8537 102.536 93.6937 102.494 93.5497 102.406C93.1357 102.152 93.0037 101.61 93.2597 101.194L98.7437 92.2362C98.9977 91.8202 99.5397 91.6882 99.9557 91.9442C100.37 92.1982 100.502 92.7402 100.246 93.1562L94.7617 102.114C94.5957 102.386 94.3057 102.536 94.0097 102.536Z" fill="#DCB976"/>
<path d="M103.062 113.54C102.84 113.54 102.618 113.458 102.448 113.29C102.1 112.952 102.092 112.394 102.43 112.044L107.474 106.856C107.812 106.508 108.37 106.498 108.72 106.838C109.068 107.176 109.076 107.734 108.738 108.084L103.694 113.272C103.522 113.45 103.292 113.54 103.062 113.54Z" fill="#DCB976"/>
<path d="M168.88 57.9639C168.68 57.9639 168.478 57.8959 168.312 57.7559C167.94 57.4419 167.894 56.8859 168.208 56.5139L176.4 46.8239C176.714 46.4519 177.27 46.4039 177.642 46.7199C178.014 47.0339 178.06 47.5899 177.746 47.9619L169.554 57.6539C169.378 57.8579 169.13 57.9639 168.88 57.9639Z" fill="#DCB976"/>
<path d="M237.643 227.154C237.397 227.154 237.151 227.05 236.975 226.848L227.899 216.308C227.581 215.94 227.623 215.384 227.991 215.066C228.357 214.75 228.913 214.788 229.233 215.158L238.309 225.698C238.627 226.066 238.585 226.622 238.217 226.94C238.051 227.084 237.847 227.154 237.643 227.154Z" fill="#DCB976"/>
<path d="M221.776 219.311C221.53 219.311 221.282 219.207 221.108 219.005L214.25 211.037C213.932 210.669 213.974 210.111 214.342 209.795C214.708 209.479 215.266 209.517 215.584 209.887L222.442 217.855C222.76 218.223 222.718 218.781 222.35 219.097C222.184 219.241 221.98 219.311 221.776 219.311Z" fill="#DCB976"/>
<defs>
<linearGradient id="paint0_linear_35_692" x1="69.837" y1="126.511" x2="69.837" y2="234.144" gradientUnits="userSpaceOnUse">
<stop stop-color="#181818"/>
<stop offset="1" stop-color="#3C3629"/>
</linearGradient>
<linearGradient id="paint1_linear_35_692" x1="69.837" y1="61.3984" x2="69.837" y2="343.511" gradientUnits="userSpaceOnUse">
<stop offset="0.213386" stop-color="#272727"/>
<stop offset="1" stop-color="#DCB976"/>
</linearGradient>
<linearGradient id="paint2_linear_35_692" x1="73.5006" y1="174.5" x2="73.4933" y2="132" gradientUnits="userSpaceOnUse">
<stop stop-color="#DCB976"/>
<stop offset="1" stop-color="#282828"/>
</linearGradient>
</defs>
</svg>
