<svg width="1820" height="926" viewBox="0 0 1820 926" fill="none" xmlns="http://www.w3.org/2000/svg">
<g clip-path="url(#clip0_120_192)">
<path d="M1820 0H0V926H1820V0Z" fill="#111111"/>
<path d="M1060.46 489.384C1062.47 489.384 1064.12 489.768 1065.4 490.536C1066.7 491.288 1067.64 492.304 1068.23 493.584C1068.83 494.848 1069.12 496.264 1069.12 497.832C1069.12 499.4 1068.82 500.824 1068.21 502.104C1067.6 503.368 1066.65 504.384 1065.35 505.152C1064.06 505.904 1062.43 506.28 1060.46 506.28H1054.15V489.384H1060.46ZM1060.82 503.4C1061.91 503.4 1062.83 503.144 1063.58 502.632C1064.35 502.104 1064.91 501.416 1065.28 500.568C1065.67 499.72 1065.86 498.808 1065.86 497.832C1065.86 496.856 1065.67 495.944 1065.28 495.096C1064.91 494.248 1064.35 493.568 1063.58 493.056C1062.83 492.528 1061.91 492.264 1060.82 492.264H1057.41V503.4H1060.82ZM1082.56 499.776C1082.56 500.032 1082.54 500.344 1082.49 500.712H1073.28C1073.39 501.672 1073.74 502.424 1074.33 502.968C1074.92 503.512 1075.7 503.784 1076.66 503.784C1077.96 503.784 1078.81 503.144 1079.23 501.864H1082.35C1082.06 503.256 1081.44 504.376 1080.48 505.224C1079.53 506.056 1078.25 506.472 1076.64 506.472C1075.31 506.472 1074.16 506.192 1073.2 505.632C1072.24 505.072 1071.52 504.304 1071.02 503.328C1070.52 502.336 1070.28 501.208 1070.28 499.944C1070.28 498.632 1070.53 497.488 1071.04 496.512C1071.56 495.52 1072.28 494.76 1073.23 494.232C1074.19 493.688 1075.31 493.416 1076.59 493.416C1077.63 493.416 1078.6 493.64 1079.49 494.088C1080.4 494.52 1081.14 495.216 1081.7 496.176C1082.28 497.12 1082.56 498.32 1082.56 499.776ZM1079.49 498.6C1079.43 497.8 1079.16 497.152 1078.68 496.656C1078.2 496.16 1077.53 495.912 1076.68 495.912C1074.86 495.912 1073.76 496.808 1073.4 498.6H1079.49ZM1083.8 499.944C1083.8 498.696 1084.06 497.576 1084.57 496.584C1085.1 495.592 1085.85 494.816 1086.82 494.256C1087.8 493.696 1088.93 493.416 1090.21 493.416C1091.34 493.416 1092.34 493.648 1093.21 494.112C1094.07 494.576 1094.74 495.192 1095.22 495.96C1095.72 496.712 1096.01 497.528 1096.09 498.408H1093.06C1092.97 497.768 1092.67 497.24 1092.17 496.824C1091.68 496.408 1091.02 496.2 1090.21 496.2C1089.17 496.2 1088.35 496.544 1087.76 497.232C1087.17 497.92 1086.87 498.824 1086.87 499.944C1086.87 501.064 1087.17 501.968 1087.76 502.656C1088.35 503.344 1089.17 503.688 1090.21 503.688C1091.02 503.688 1091.68 503.48 1092.17 503.064C1092.67 502.648 1092.97 502.12 1093.06 501.48H1096.09C1096.01 502.36 1095.72 503.184 1095.22 503.952C1094.74 504.704 1094.07 505.312 1093.21 505.776C1092.36 506.24 1091.36 506.472 1090.21 506.472C1088.94 506.472 1087.82 506.192 1086.85 505.632C1085.89 505.072 1085.14 504.296 1084.59 503.304C1084.06 502.312 1083.8 501.192 1083.8 499.944ZM1109.61 499.776C1109.61 500.032 1109.59 500.344 1109.54 500.712H1100.32C1100.43 501.672 1100.79 502.424 1101.38 502.968C1101.97 503.512 1102.75 503.784 1103.71 503.784C1105 503.784 1105.86 503.144 1106.28 501.864H1109.4C1109.11 503.256 1108.48 504.376 1107.52 505.224C1106.58 506.056 1105.3 506.472 1103.68 506.472C1102.36 506.472 1101.21 506.192 1100.25 505.632C1099.29 505.072 1098.56 504.304 1098.07 503.328C1097.57 502.336 1097.32 501.208 1097.32 499.944C1097.32 498.632 1097.58 497.488 1098.09 496.512C1098.6 495.52 1099.33 494.76 1100.28 494.232C1101.24 493.688 1102.36 493.416 1103.64 493.416C1104.68 493.416 1105.64 493.64 1106.54 494.088C1107.45 494.52 1108.19 495.216 1108.75 496.176C1109.32 497.12 1109.61 498.32 1109.61 499.776ZM1106.54 498.6C1106.48 497.8 1106.2 497.152 1105.72 496.656C1105.24 496.16 1104.58 495.912 1103.73 495.912C1101.91 495.912 1100.81 496.808 1100.44 498.6H1106.54ZM1118.49 493.416C1119.9 493.416 1121.01 493.872 1121.83 494.784C1122.64 495.696 1123.05 497.032 1123.05 498.792V506.28H1119.98V499.848C1119.98 498.472 1119.79 497.52 1119.42 496.992C1119.06 496.464 1118.46 496.2 1117.62 496.2C1117.03 496.2 1116.47 496.408 1115.95 496.824C1115.43 497.24 1115.02 497.824 1114.7 498.576C1114.38 499.328 1114.22 500.176 1114.22 501.12V506.28H1111.15V493.608H1114.22V494.4C1114.22 494.768 1114.19 495.08 1114.12 495.336C1114.06 495.592 1113.96 495.856 1113.83 496.128C1113.75 496.32 1113.71 496.448 1113.71 496.512C1113.71 496.656 1113.78 496.736 1113.91 496.752H1113.98C1114.09 496.752 1114.19 496.656 1114.27 496.464C1114.62 495.68 1115.16 494.976 1115.9 494.352C1116.63 493.728 1117.5 493.416 1118.49 493.416ZM1129.39 496.296V502.08C1129.39 502.592 1129.4 502.944 1129.43 503.136C1129.48 503.328 1129.58 503.456 1129.74 503.52C1129.92 503.568 1130.24 503.592 1130.71 503.592H1132.84V506.28H1130.06C1129.18 506.28 1128.47 506.168 1127.92 505.944C1127.38 505.704 1126.97 505.304 1126.7 504.744C1126.44 504.184 1126.31 503.4 1126.31 502.392V496.296H1124.01V493.608H1126.31V490.152H1129.39V493.608H1132.84V496.296H1129.39ZM1137.81 496.32C1137.88 496.32 1137.93 496.296 1137.98 496.248C1138.03 496.184 1138.06 496.128 1138.08 496.08C1138.37 495.424 1138.66 494.912 1138.97 494.544C1139.27 494.176 1139.71 493.896 1140.29 493.704C1140.86 493.512 1141.65 493.416 1142.64 493.416V496.536C1142.45 496.52 1142.18 496.512 1141.85 496.512C1140.42 496.512 1139.43 496.848 1138.87 497.52C1138.31 498.176 1138.03 499.264 1138.03 500.784V506.28H1134.96V493.608H1138.03V494.304C1138.03 494.8 1137.91 495.288 1137.67 495.768C1137.61 495.896 1137.57 496 1137.57 496.08C1137.57 496.208 1137.65 496.288 1137.79 496.32H1137.81ZM1143.21 502.8C1143.21 501.488 1143.63 500.52 1144.46 499.896C1145.31 499.256 1146.43 498.896 1147.82 498.816L1149.05 498.768C1150.13 498.736 1150.91 498.664 1151.37 498.552C1151.84 498.44 1152.06 498.168 1152.05 497.736C1152.03 497.192 1151.85 496.752 1151.49 496.416C1151.14 496.08 1150.48 495.912 1149.5 495.912C1148.51 495.912 1147.81 496.088 1147.39 496.44C1146.97 496.776 1146.72 497.24 1146.62 497.832H1143.6C1143.81 496.328 1144.47 495.216 1145.59 494.496C1146.71 493.776 1148.05 493.416 1149.6 493.416C1151.29 493.416 1152.64 493.832 1153.63 494.664C1154.62 495.496 1155.12 497.032 1155.12 499.272V506.28H1152.05V505.392C1152.05 504.912 1152.17 504.448 1152.41 504C1152.47 503.84 1152.5 503.72 1152.5 503.64C1152.5 503.544 1152.46 503.48 1152.38 503.448L1152.29 503.424C1152.19 503.424 1152.12 503.472 1152.07 503.568C1152.02 503.648 1152 503.696 1152 503.712C1151.25 505.552 1149.79 506.472 1147.63 506.472C1146.85 506.472 1146.11 506.312 1145.42 505.992C1144.75 505.672 1144.21 505.232 1143.81 504.672C1143.41 504.112 1143.21 503.488 1143.21 502.8ZM1152.05 499.752C1151.73 500.104 1151.3 500.352 1150.77 500.496C1150.26 500.624 1149.45 500.744 1148.35 500.856C1147.66 500.936 1147.14 501.12 1146.79 501.408C1146.45 501.68 1146.29 502.088 1146.29 502.632C1146.29 503.096 1146.46 503.472 1146.81 503.76C1147.18 504.048 1147.65 504.192 1148.23 504.192C1148.44 504.192 1148.6 504.184 1148.71 504.168C1149.65 504.04 1150.44 503.632 1151.06 502.944C1151.7 502.256 1152.03 501.192 1152.05 499.752ZM1160.69 489V506.28H1157.62V489H1160.69ZM1163.2 489H1166.27V492.072H1163.2V489ZM1163.2 493.608H1166.27V506.28H1163.2V493.608ZM1174.63 497.28C1174.99 496.96 1175.49 496.672 1176.15 496.416C1176.34 496.336 1176.41 496.216 1176.36 496.056C1176.31 495.944 1176.24 495.888 1176.15 495.888C1176.11 495.888 1176.05 495.904 1175.95 495.936C1175.87 495.968 1175.68 496.04 1175.38 496.152C1175.09 496.248 1174.79 496.296 1174.47 496.296H1168.39V493.608H1179.53V496.872L1173.29 502.608C1172.94 502.928 1172.43 503.216 1171.78 503.472C1171.59 503.552 1171.51 503.672 1171.56 503.832C1171.61 503.944 1171.68 504 1171.78 504C1171.81 504 1171.87 503.984 1171.97 503.952C1172.29 503.824 1172.55 503.736 1172.76 503.688C1172.97 503.624 1173.2 503.592 1173.46 503.592H1179.53V506.28H1168.39V503.016L1174.63 497.28ZM1192.98 499.776C1192.98 500.032 1192.95 500.344 1192.91 500.712H1183.69C1183.8 501.672 1184.15 502.424 1184.75 502.968C1185.34 503.512 1186.11 503.784 1187.07 503.784C1188.37 503.784 1189.23 503.144 1189.64 501.864H1192.76C1192.47 503.256 1191.85 504.376 1190.89 505.224C1189.95 506.056 1188.67 506.472 1187.05 506.472C1185.72 506.472 1184.58 506.192 1183.62 505.632C1182.66 505.072 1181.93 504.304 1181.43 503.328C1180.94 502.336 1180.69 501.208 1180.69 499.944C1180.69 498.632 1180.95 497.488 1181.46 496.512C1181.97 495.52 1182.7 494.76 1183.64 494.232C1184.6 493.688 1185.72 493.416 1187 493.416C1188.04 493.416 1189.01 493.64 1189.91 494.088C1190.82 494.52 1191.55 495.216 1192.11 496.176C1192.69 497.12 1192.98 498.32 1192.98 499.776ZM1189.91 498.6C1189.84 497.8 1189.57 497.152 1189.09 496.656C1188.61 496.16 1187.95 495.912 1187.1 495.912C1185.27 495.912 1184.18 496.808 1183.81 498.6H1189.91ZM1206.98 506.28H1203.91V505.728C1203.91 505.312 1204.02 504.88 1204.24 504.432C1204.32 504.304 1204.36 504.184 1204.36 504.072C1204.36 503.976 1204.31 503.904 1204.2 503.856L1204.12 503.832C1204.03 503.832 1203.96 503.872 1203.91 503.952C1203.88 504.032 1203.85 504.08 1203.84 504.096C1203.34 504.832 1202.77 505.416 1202.13 505.848C1201.49 506.264 1200.72 506.472 1199.83 506.472C1198.76 506.472 1197.8 506.184 1196.95 505.608C1196.12 505.032 1195.47 504.248 1195 503.256C1194.54 502.264 1194.31 501.16 1194.31 499.944C1194.31 498.728 1194.54 497.624 1195 496.632C1195.47 495.64 1196.12 494.856 1196.95 494.28C1197.8 493.704 1198.76 493.416 1199.83 493.416C1200.77 493.416 1201.58 493.632 1202.25 494.064C1202.94 494.48 1203.47 495.048 1203.84 495.768C1203.96 496.04 1204.11 496.136 1204.27 496.056C1204.35 496.008 1204.39 495.936 1204.39 495.84C1204.39 495.744 1204.34 495.6 1204.24 495.408C1204.02 494.96 1203.91 494.52 1203.91 494.088V489H1206.98V506.28ZM1200.55 503.688C1201.2 503.688 1201.79 503.52 1202.3 503.184C1202.81 502.848 1203.2 502.392 1203.48 501.816C1203.76 501.24 1203.91 500.616 1203.91 499.944C1203.91 499.272 1203.76 498.648 1203.48 498.072C1203.2 497.496 1202.81 497.04 1202.3 496.704C1201.79 496.368 1201.2 496.2 1200.55 496.2C1199.52 496.2 1198.74 496.56 1198.2 497.28C1197.65 497.984 1197.38 498.872 1197.38 499.944C1197.38 501.016 1197.65 501.912 1198.2 502.632C1198.74 503.336 1199.52 503.688 1200.55 503.688ZM1064.87 555.688C1064.41 555.688 1064.09 555.72 1063.91 555.784C1063.75 555.832 1063.65 555.952 1063.6 556.144C1063.57 556.32 1063.55 556.664 1063.55 557.176V557.608H1067.01V560.296H1063.55V570.28H1060.48V560.296H1058.56V557.608H1060.48V556.888C1060.48 555.88 1060.61 555.096 1060.86 554.536C1061.14 553.976 1061.54 553.584 1062.09 553.36C1062.63 553.12 1063.34 553 1064.22 553H1067.01V555.688H1064.87ZM1073.91 557.416C1075.19 557.416 1076.31 557.704 1077.27 558.28C1078.23 558.856 1078.96 559.64 1079.47 560.632C1079.99 561.624 1080.24 562.728 1080.24 563.944C1080.24 565.16 1079.99 566.264 1079.47 567.256C1078.96 568.248 1078.23 569.032 1077.27 569.608C1076.31 570.184 1075.19 570.472 1073.91 570.472C1072.63 570.472 1071.51 570.184 1070.55 569.608C1069.59 569.032 1068.85 568.248 1068.34 567.256C1067.83 566.264 1067.57 565.16 1067.57 563.944C1067.57 562.728 1067.83 561.624 1068.34 560.632C1068.85 559.64 1069.59 558.856 1070.55 558.28C1071.51 557.704 1072.63 557.416 1073.91 557.416ZM1073.91 567.688C1074.91 567.688 1075.71 567.336 1076.28 566.632C1076.87 565.912 1077.17 565.016 1077.17 563.944C1077.17 562.872 1076.87 561.984 1076.28 561.28C1075.71 560.56 1074.91 560.2 1073.91 560.2C1072.9 560.2 1072.1 560.56 1071.51 561.28C1070.93 561.984 1070.64 562.872 1070.64 563.944C1070.64 565.016 1070.93 565.912 1071.51 566.632C1072.1 567.336 1072.9 567.688 1073.91 567.688ZM1084.65 560.32C1084.71 560.32 1084.77 560.296 1084.81 560.248C1084.86 560.184 1084.89 560.128 1084.91 560.08C1085.2 559.424 1085.49 558.912 1085.8 558.544C1086.1 558.176 1086.54 557.896 1087.12 557.704C1087.69 557.512 1088.48 557.416 1089.47 557.416V560.536C1089.28 560.52 1089.01 560.512 1088.68 560.512C1087.25 560.512 1086.26 560.848 1085.7 561.52C1085.14 562.176 1084.86 563.264 1084.86 564.784V570.28H1081.79V557.608H1084.86V558.304C1084.86 558.8 1084.74 559.288 1084.5 559.768C1084.44 559.896 1084.41 560 1084.41 560.08C1084.41 560.208 1084.48 560.288 1084.62 560.32H1084.65Z" fill="white"/>
<path d="M1050.58 533.744C1050.82 534.496 1050.95 535.288 1050.97 536.12C1050.97 536.344 1051.06 536.456 1051.26 536.456C1051.45 536.456 1051.54 536.344 1051.54 536.12C1051.56 535.288 1051.69 534.496 1051.93 533.744L1055.86 521.384H1059.51L1053.56 538.28H1048.95L1043 521.384H1046.65L1050.58 533.744ZM1070.63 531.776C1070.63 532.032 1070.61 532.344 1070.56 532.712H1061.35C1061.46 533.672 1061.81 534.424 1062.4 534.968C1062.99 535.512 1063.77 535.784 1064.73 535.784C1066.03 535.784 1066.88 535.144 1067.3 533.864H1070.42C1070.13 535.256 1069.51 536.376 1068.55 537.224C1067.6 538.056 1066.32 538.472 1064.71 538.472C1063.38 538.472 1062.23 538.192 1061.27 537.632C1060.31 537.072 1059.59 536.304 1059.09 535.328C1058.59 534.336 1058.35 533.208 1058.35 531.944C1058.35 530.632 1058.6 529.488 1059.11 528.512C1059.63 527.52 1060.35 526.76 1061.3 526.232C1062.26 525.688 1063.38 525.416 1064.66 525.416C1065.7 525.416 1066.67 525.64 1067.56 526.088C1068.47 526.52 1069.21 527.216 1069.77 528.176C1070.35 529.12 1070.63 530.32 1070.63 531.776ZM1067.56 530.6C1067.5 529.8 1067.23 529.152 1066.75 528.656C1066.27 528.16 1065.6 527.912 1064.75 527.912C1062.93 527.912 1061.83 528.808 1061.47 530.6H1067.56ZM1079.51 525.416C1080.92 525.416 1082.03 525.872 1082.85 526.784C1083.66 527.696 1084.07 529.032 1084.07 530.792V538.28H1081V531.848C1081 530.472 1080.82 529.52 1080.45 528.992C1080.08 528.464 1079.48 528.2 1078.65 528.2C1078.06 528.2 1077.5 528.408 1076.97 528.824C1076.46 529.24 1076.04 529.824 1075.72 530.576C1075.4 531.328 1075.24 532.176 1075.24 533.12V538.28H1072.17V525.608H1075.24V526.4C1075.24 526.768 1075.21 527.08 1075.15 527.336C1075.08 527.592 1074.98 527.856 1074.86 528.128C1074.78 528.32 1074.74 528.448 1074.74 528.512C1074.74 528.656 1074.8 528.736 1074.93 528.752H1075C1075.11 528.752 1075.21 528.656 1075.29 528.464C1075.64 527.68 1076.19 526.976 1076.92 526.352C1077.66 525.728 1078.52 525.416 1079.51 525.416ZM1090.41 528.296V534.08C1090.41 534.592 1090.42 534.944 1090.46 535.136C1090.5 535.328 1090.61 535.456 1090.77 535.52C1090.94 535.568 1091.26 535.592 1091.73 535.592H1093.86V538.28H1091.08C1090.2 538.28 1089.49 538.168 1088.94 537.944C1088.4 537.704 1087.99 537.304 1087.72 536.744C1087.46 536.184 1087.34 535.4 1087.34 534.392V528.296H1085.03V525.608H1087.34V522.152H1090.41V525.608H1093.86V528.296H1090.41ZM1100.16 538.472C1098.75 538.472 1097.64 538.016 1096.82 537.104C1096.01 536.192 1095.6 534.856 1095.6 533.096V525.608H1098.67V532.04C1098.67 533.416 1098.85 534.368 1099.22 534.896C1099.59 535.424 1100.19 535.688 1101.02 535.688C1101.61 535.688 1102.17 535.48 1102.68 535.064C1103.21 534.648 1103.63 534.064 1103.95 533.312C1104.27 532.56 1104.43 531.712 1104.43 530.768V525.608H1107.5V538.28H1104.43V537.488C1104.43 537.136 1104.46 536.84 1104.53 536.6C1104.59 536.344 1104.68 536.064 1104.81 535.76C1104.89 535.552 1104.93 535.424 1104.93 535.376C1104.93 535.232 1104.87 535.152 1104.74 535.136H1104.67C1104.56 535.136 1104.46 535.232 1104.38 535.424C1103.98 536.224 1103.42 536.936 1102.7 537.56C1102 538.168 1101.15 538.472 1100.16 538.472ZM1112.85 528.32C1112.92 528.32 1112.97 528.296 1113.02 528.248C1113.07 528.184 1113.1 528.128 1113.12 528.08C1113.41 527.424 1113.7 526.912 1114.01 526.544C1114.31 526.176 1114.75 525.896 1115.33 525.704C1115.9 525.512 1116.69 525.416 1117.68 525.416V528.536C1117.49 528.52 1117.22 528.512 1116.89 528.512C1115.46 528.512 1114.47 528.848 1113.91 529.52C1113.35 530.176 1113.07 531.264 1113.07 532.784V538.28H1110V525.608H1113.07V526.304C1113.07 526.8 1112.95 527.288 1112.71 527.768C1112.65 527.896 1112.61 528 1112.61 528.08C1112.61 528.208 1112.69 528.288 1112.83 528.32H1112.85ZM1130.35 531.776C1130.35 532.032 1130.33 532.344 1130.28 532.712H1121.07C1121.18 533.672 1121.53 534.424 1122.12 534.968C1122.71 535.512 1123.49 535.784 1124.45 535.784C1125.75 535.784 1126.6 535.144 1127.02 533.864H1130.14C1129.85 535.256 1129.23 536.376 1128.27 537.224C1127.32 538.056 1126.04 538.472 1124.42 538.472C1123.1 538.472 1121.95 538.192 1120.99 537.632C1120.03 537.072 1119.31 536.304 1118.81 535.328C1118.31 534.336 1118.07 533.208 1118.07 531.944C1118.07 530.632 1118.32 529.488 1118.83 528.512C1119.35 527.52 1120.07 526.76 1121.02 526.232C1121.98 525.688 1123.1 525.416 1124.38 525.416C1125.42 525.416 1126.39 525.64 1127.28 526.088C1128.19 526.52 1128.93 527.216 1129.49 528.176C1130.07 529.12 1130.35 530.32 1130.35 531.776ZM1127.28 530.6C1127.22 529.8 1126.95 529.152 1126.47 528.656C1125.99 528.16 1125.32 527.912 1124.47 527.912C1122.65 527.912 1121.55 528.808 1121.18 530.6H1127.28ZM1138.78 529.832C1138.78 528.216 1139.11 526.752 1139.77 525.44C1140.44 524.128 1141.4 523.096 1142.65 522.344C1143.91 521.576 1145.41 521.192 1147.14 521.192C1148.78 521.192 1150.18 521.528 1151.31 522.2C1152.46 522.856 1153.33 523.688 1153.9 524.696C1154.5 525.688 1154.83 526.696 1154.91 527.72H1151.67C1151.59 527.128 1151.38 526.552 1151.02 525.992C1150.67 525.432 1150.17 524.976 1149.51 524.624C1148.87 524.256 1148.1 524.072 1147.18 524.072C1146.13 524.072 1145.21 524.328 1144.42 524.84C1143.66 525.352 1143.06 526.048 1142.65 526.928C1142.25 527.792 1142.05 528.76 1142.05 529.832C1142.05 530.904 1142.25 531.88 1142.65 532.76C1143.06 533.624 1143.66 534.312 1144.42 534.824C1145.21 535.336 1146.13 535.592 1147.18 535.592C1148.1 535.592 1148.87 535.416 1149.51 535.064C1150.17 534.696 1150.67 534.232 1151.02 533.672C1151.38 533.112 1151.59 532.536 1151.67 531.944H1154.91C1154.83 532.968 1154.5 533.984 1153.9 534.992C1153.33 535.984 1152.46 536.816 1151.31 537.488C1150.18 538.144 1148.78 538.472 1147.14 538.472C1145.41 538.472 1143.91 538.096 1142.65 537.344C1141.4 536.576 1140.44 535.536 1139.77 534.224C1139.11 532.912 1138.78 531.448 1138.78 529.832ZM1156.06 534.8C1156.06 533.488 1156.47 532.52 1157.3 531.896C1158.15 531.256 1159.27 530.896 1160.67 530.816L1161.89 530.768C1162.98 530.736 1163.75 530.664 1164.22 530.552C1164.68 530.44 1164.91 530.168 1164.89 529.736C1164.87 529.192 1164.69 528.752 1164.34 528.416C1163.99 528.08 1163.32 527.912 1162.35 527.912C1161.35 527.912 1160.65 528.088 1160.23 528.44C1159.82 528.776 1159.56 529.24 1159.47 529.832H1156.44C1156.65 528.328 1157.31 527.216 1158.43 526.496C1159.55 525.776 1160.89 525.416 1162.44 525.416C1164.14 525.416 1165.48 525.832 1166.47 526.664C1167.47 527.496 1167.96 529.032 1167.96 531.272V538.28H1164.89V537.392C1164.89 536.912 1165.01 536.448 1165.25 536C1165.31 535.84 1165.35 535.72 1165.35 535.64C1165.35 535.544 1165.31 535.48 1165.23 535.448L1165.13 535.424C1165.03 535.424 1164.96 535.472 1164.91 535.568C1164.87 535.648 1164.84 535.696 1164.84 535.712C1164.09 537.552 1162.63 538.472 1160.47 538.472C1159.69 538.472 1158.95 538.312 1158.27 537.992C1157.59 537.672 1157.06 537.232 1156.66 536.672C1156.26 536.112 1156.06 535.488 1156.06 534.8ZM1164.89 531.752C1164.57 532.104 1164.15 532.352 1163.62 532.496C1163.11 532.624 1162.3 532.744 1161.19 532.856C1160.5 532.936 1159.98 533.12 1159.63 533.408C1159.3 533.68 1159.13 534.088 1159.13 534.632C1159.13 535.096 1159.31 535.472 1159.66 535.76C1160.03 536.048 1160.5 536.192 1161.07 536.192C1161.28 536.192 1161.44 536.184 1161.55 536.168C1162.5 536.04 1163.28 535.632 1163.91 534.944C1164.55 534.256 1164.87 533.192 1164.89 531.752ZM1173.35 526.088C1173.35 526.52 1173.24 526.96 1173.01 527.408C1173 527.456 1172.97 527.528 1172.92 527.624C1172.89 527.72 1172.87 527.8 1172.87 527.864C1172.87 527.944 1172.91 528.008 1172.99 528.056L1173.09 528.08C1173.2 528.08 1173.28 528.032 1173.33 527.936C1173.37 527.84 1173.41 527.784 1173.42 527.768C1173.84 527.048 1174.37 526.48 1175.03 526.064C1175.7 525.632 1176.5 525.416 1177.43 525.416C1178.5 525.416 1179.45 525.704 1180.29 526.28C1181.13 526.856 1181.79 527.64 1182.25 528.632C1182.72 529.624 1182.95 530.728 1182.95 531.944C1182.95 533.16 1182.72 534.264 1182.25 535.256C1181.79 536.248 1181.13 537.032 1180.29 537.608C1179.45 538.184 1178.5 538.472 1177.43 538.472C1176.52 538.472 1175.72 538.264 1175.03 537.848C1174.36 537.416 1173.82 536.832 1173.42 536.096C1173.42 536.08 1173.39 536.024 1173.33 535.928C1173.28 535.832 1173.19 535.808 1173.06 535.856C1172.95 535.904 1172.89 535.976 1172.89 536.072C1172.89 536.184 1172.93 536.304 1173.01 536.432C1173.24 536.88 1173.35 537.312 1173.35 537.728V542.888H1170.28V525.608H1173.35V526.088ZM1176.71 535.688C1177.73 535.688 1178.52 535.336 1179.06 534.632C1179.61 533.912 1179.88 533.016 1179.88 531.944C1179.88 530.872 1179.61 529.984 1179.06 529.28C1178.52 528.56 1177.73 528.2 1176.71 528.2C1176.05 528.2 1175.47 528.368 1174.96 528.704C1174.45 529.04 1174.05 529.496 1173.76 530.072C1173.49 530.648 1173.35 531.272 1173.35 531.944C1173.35 532.616 1173.49 533.24 1173.76 533.816C1174.05 534.392 1174.45 534.848 1174.96 535.184C1175.47 535.52 1176.05 535.688 1176.71 535.688ZM1184.69 521H1187.76V524.072H1184.69V521ZM1184.69 525.608H1187.76V538.28H1184.69V525.608ZM1194.31 528.296V534.08C1194.31 534.592 1194.32 534.944 1194.36 535.136C1194.4 535.328 1194.51 535.456 1194.67 535.52C1194.84 535.568 1195.16 535.592 1195.63 535.592H1197.76V538.28H1194.98C1194.1 538.28 1193.39 538.168 1192.84 537.944C1192.3 537.704 1191.89 537.304 1191.62 536.744C1191.36 536.184 1191.24 535.4 1191.24 534.392V528.296H1188.93V525.608H1191.24V522.152H1194.31V525.608H1197.76V528.296H1194.31ZM1199.11 534.8C1199.11 533.488 1199.53 532.52 1200.36 531.896C1201.21 531.256 1202.33 530.896 1203.72 530.816L1204.94 530.768C1206.03 530.736 1206.81 530.664 1207.27 530.552C1207.74 530.44 1207.96 530.168 1207.94 529.736C1207.93 529.192 1207.74 528.752 1207.39 528.416C1207.04 528.08 1206.38 527.912 1205.4 527.912C1204.41 527.912 1203.7 528.088 1203.29 528.44C1202.87 528.776 1202.62 529.24 1202.52 529.832H1199.5C1199.7 528.328 1200.37 527.216 1201.49 526.496C1202.61 525.776 1203.94 525.416 1205.5 525.416C1207.19 525.416 1208.54 525.832 1209.53 526.664C1210.52 527.496 1211.02 529.032 1211.02 531.272V538.28H1207.94V537.392C1207.94 536.912 1208.06 536.448 1208.3 536C1208.37 535.84 1208.4 535.72 1208.4 535.64C1208.4 535.544 1208.36 535.48 1208.28 535.448L1208.18 535.424C1208.09 535.424 1208.02 535.472 1207.97 535.568C1207.92 535.648 1207.9 535.696 1207.9 535.712C1207.14 537.552 1205.69 538.472 1203.53 538.472C1202.74 538.472 1202.01 538.312 1201.32 537.992C1200.65 537.672 1200.11 537.232 1199.71 536.672C1199.31 536.112 1199.11 535.488 1199.11 534.8ZM1207.94 531.752C1207.62 532.104 1207.2 532.352 1206.67 532.496C1206.16 532.624 1205.35 532.744 1204.25 532.856C1203.56 532.936 1203.04 533.12 1202.69 533.408C1202.35 533.68 1202.18 534.088 1202.18 534.632C1202.18 535.096 1202.36 535.472 1202.71 535.76C1203.08 536.048 1203.55 536.192 1204.13 536.192C1204.34 536.192 1204.5 536.184 1204.61 536.168C1205.55 536.04 1206.34 535.632 1206.96 534.944C1207.6 534.256 1207.93 533.192 1207.94 531.752ZM1216.59 521V538.28H1213.52V521H1216.59ZM1101.95 556.264V560.488H1109.06V563.176H1101.95V567.4H1110.59V570.28H1098.69V553.384H1110.59V556.264H1101.95ZM1126.76 557.416C1128 557.416 1129 557.808 1129.76 558.592C1130.55 559.376 1130.94 560.648 1130.94 562.408V570.28H1127.87V562.888C1127.87 561.928 1127.71 561.24 1127.39 560.824C1127.08 560.408 1126.56 560.2 1125.83 560.2C1125.14 560.2 1124.57 560.544 1124.12 561.232C1123.68 561.904 1123.45 562.792 1123.45 563.896V570.28H1120.38V563.176C1120.38 562.12 1120.26 561.36 1120.02 560.896C1119.78 560.432 1119.29 560.2 1118.55 560.2C1118.06 560.2 1117.61 560.384 1117.21 560.752C1116.83 561.104 1116.52 561.608 1116.3 562.264C1116.08 562.904 1115.96 563.624 1115.96 564.424V570.28H1112.89V557.608H1115.96V558.328C1115.96 558.616 1115.93 558.856 1115.87 559.048C1115.8 559.24 1115.7 559.504 1115.55 559.84C1115.49 559.968 1115.46 560.072 1115.46 560.152C1115.46 560.248 1115.52 560.32 1115.63 560.368L1115.72 560.392C1115.82 560.392 1115.89 560.352 1115.94 560.272C1115.99 560.176 1116.01 560.12 1116.01 560.104C1116.35 559.256 1116.81 558.6 1117.4 558.136C1118 557.656 1118.7 557.416 1119.52 557.416C1120.32 557.416 1120.98 557.648 1121.51 558.112C1122.04 558.56 1122.39 559.16 1122.56 559.912C1122.61 560.072 1122.73 560.152 1122.92 560.152C1123.08 560.152 1123.2 560.08 1123.26 559.936C1123.61 559.136 1124.09 558.52 1124.7 558.088C1125.32 557.64 1126.01 557.416 1126.76 557.416ZM1144.76 563.776C1144.76 564.032 1144.73 564.344 1144.68 564.712H1135.47C1135.58 565.672 1135.93 566.424 1136.52 566.968C1137.12 567.512 1137.89 567.784 1138.85 567.784C1140.15 567.784 1141 567.144 1141.42 565.864H1144.54C1144.25 567.256 1143.63 568.376 1142.67 569.224C1141.72 570.056 1140.44 570.472 1138.83 570.472C1137.5 570.472 1136.36 570.192 1135.4 569.632C1134.44 569.072 1133.71 568.304 1133.21 567.328C1132.71 566.336 1132.47 565.208 1132.47 563.944C1132.47 562.632 1132.72 561.488 1133.24 560.512C1133.75 559.52 1134.48 558.76 1135.42 558.232C1136.38 557.688 1137.5 557.416 1138.78 557.416C1139.82 557.416 1140.79 557.64 1141.68 558.088C1142.6 558.52 1143.33 559.216 1143.89 560.176C1144.47 561.12 1144.76 562.32 1144.76 563.776ZM1141.68 562.6C1141.62 561.8 1141.35 561.152 1140.87 560.656C1140.39 560.16 1139.72 559.912 1138.88 559.912C1137.05 559.912 1135.96 560.808 1135.59 562.6H1141.68ZM1149.15 560.32C1149.21 560.32 1149.27 560.296 1149.31 560.248C1149.36 560.184 1149.39 560.128 1149.41 560.08C1149.7 559.424 1149.99 558.912 1150.3 558.544C1150.6 558.176 1151.04 557.896 1151.62 557.704C1152.19 557.512 1152.98 557.416 1153.97 557.416V560.536C1153.78 560.52 1153.51 560.512 1153.18 560.512C1151.75 560.512 1150.76 560.848 1150.2 561.52C1149.64 562.176 1149.36 563.264 1149.36 564.784V570.28H1146.29V557.608H1149.36V558.304C1149.36 558.8 1149.24 559.288 1149 559.768C1148.94 559.896 1148.91 560 1148.91 560.08C1148.91 560.208 1148.98 560.288 1149.12 560.32H1149.15ZM1154.55 563.656C1154.55 562.52 1154.78 561.48 1155.24 560.536C1155.71 559.576 1156.35 558.816 1157.18 558.256C1158.03 557.696 1158.99 557.416 1160.07 557.416C1161.79 557.416 1163.13 558.184 1164.07 559.72C1164.18 559.96 1164.31 560.048 1164.46 559.984C1164.54 559.968 1164.58 559.904 1164.58 559.792C1164.58 559.712 1164.52 559.56 1164.41 559.336C1164.23 559 1164.15 558.616 1164.15 558.184V557.608H1167.22V568.936C1167.22 570.936 1166.67 572.456 1165.56 573.496C1164.46 574.552 1162.92 575.08 1160.95 575.08C1159.08 575.08 1157.63 574.648 1156.61 573.784C1155.6 572.936 1155.04 571.864 1154.93 570.568H1157.95C1158.13 571.912 1159.11 572.584 1160.91 572.584C1163.07 572.584 1164.15 571.408 1164.15 569.056C1164.15 568.64 1164.23 568.264 1164.41 567.928C1164.52 567.704 1164.58 567.56 1164.58 567.496C1164.58 567.416 1164.54 567.36 1164.46 567.328L1164.36 567.304C1164.27 567.304 1164.19 567.344 1164.15 567.424C1164.1 567.488 1164.07 567.528 1164.07 567.544C1163.16 569.112 1161.83 569.896 1160.07 569.896C1158.99 569.896 1158.03 569.616 1157.18 569.056C1156.35 568.496 1155.71 567.744 1155.24 566.8C1154.78 565.84 1154.55 564.792 1154.55 563.656ZM1160.79 567.112C1161.44 567.112 1162.02 566.96 1162.54 566.656C1163.05 566.336 1163.44 565.912 1163.71 565.384C1164 564.856 1164.15 564.28 1164.15 563.656C1164.15 563.032 1164 562.456 1163.71 561.928C1163.44 561.4 1163.05 560.984 1162.54 560.68C1162.02 560.36 1161.44 560.2 1160.79 560.2C1159.76 560.2 1158.98 560.528 1158.43 561.184C1157.89 561.84 1157.62 562.664 1157.62 563.656C1157.62 564.648 1157.89 565.472 1158.43 566.128C1158.98 566.784 1159.76 567.112 1160.79 567.112ZM1169.73 553H1172.8V556.072H1169.73V553ZM1169.73 557.608H1172.8V570.28H1169.73V557.608ZM1182.65 557.416C1184.06 557.416 1185.17 557.872 1185.99 558.784C1186.8 559.696 1187.21 561.032 1187.21 562.792V570.28H1184.14V563.848C1184.14 562.472 1183.95 561.52 1183.59 560.992C1183.22 560.464 1182.62 560.2 1181.79 560.2C1181.19 560.2 1180.63 560.408 1180.11 560.824C1179.59 561.24 1179.18 561.824 1178.86 562.576C1178.54 563.328 1178.38 564.176 1178.38 565.12V570.28H1175.31V557.608H1178.38V558.4C1178.38 558.768 1178.35 559.08 1178.28 559.336C1178.22 559.592 1178.12 559.856 1177.99 560.128C1177.91 560.32 1177.87 560.448 1177.87 560.512C1177.87 560.656 1177.94 560.736 1178.07 560.752H1178.14C1178.25 560.752 1178.35 560.656 1178.43 560.464C1178.78 559.68 1179.32 558.976 1180.06 558.352C1180.79 557.728 1181.66 557.416 1182.65 557.416ZM1188.74 563.656C1188.74 562.52 1188.97 561.48 1189.44 560.536C1189.9 559.576 1190.55 558.816 1191.38 558.256C1192.23 557.696 1193.19 557.416 1194.26 557.416C1195.99 557.416 1197.33 558.184 1198.27 559.72C1198.38 559.96 1198.51 560.048 1198.65 559.984C1198.73 559.968 1198.77 559.904 1198.77 559.792C1198.77 559.712 1198.72 559.56 1198.61 559.336C1198.43 559 1198.34 558.616 1198.34 558.184V557.608H1201.41V568.936C1201.41 570.936 1200.86 572.456 1199.76 573.496C1198.65 574.552 1197.12 575.08 1195.15 575.08C1193.28 575.08 1191.83 574.648 1190.8 573.784C1189.8 572.936 1189.24 571.864 1189.12 570.568H1192.15C1192.32 571.912 1193.31 572.584 1195.1 572.584C1197.26 572.584 1198.34 571.408 1198.34 569.056C1198.34 568.64 1198.43 568.264 1198.61 567.928C1198.72 567.704 1198.77 567.56 1198.77 567.496C1198.77 567.416 1198.73 567.36 1198.65 567.328L1198.56 567.304C1198.46 567.304 1198.39 567.344 1198.34 567.424C1198.29 567.488 1198.27 567.528 1198.27 567.544C1197.36 569.112 1196.02 569.896 1194.26 569.896C1193.19 569.896 1192.23 569.616 1191.38 569.056C1190.55 568.496 1189.9 567.744 1189.44 566.8C1188.97 565.84 1188.74 564.792 1188.74 563.656ZM1194.98 567.112C1195.64 567.112 1196.22 566.96 1196.73 566.656C1197.25 566.336 1197.64 565.912 1197.91 565.384C1198.2 564.856 1198.34 564.28 1198.34 563.656C1198.34 563.032 1198.2 562.456 1197.91 561.928C1197.64 561.4 1197.25 560.984 1196.73 560.68C1196.22 560.36 1195.64 560.2 1194.98 560.2C1193.96 560.2 1193.17 560.528 1192.63 561.184C1192.09 561.84 1191.81 562.664 1191.81 563.656C1191.81 564.648 1192.09 565.472 1192.63 566.128C1193.17 566.784 1193.96 567.112 1194.98 567.112ZM1092.56 585.384C1094.8 585.384 1096.45 585.888 1097.52 586.896C1098.6 587.904 1099.13 589.192 1099.13 590.76C1099.13 591.736 1098.88 592.632 1098.39 593.448C1097.91 594.264 1097.2 594.92 1096.25 595.416C1095.32 595.896 1094.22 596.136 1092.94 596.136H1088.96V602.28H1085.69V585.384H1092.56ZM1092.92 593.448C1093.81 593.448 1094.52 593.208 1095.05 592.728C1095.6 592.232 1095.87 591.608 1095.87 590.856C1095.87 590.04 1095.6 589.408 1095.08 588.96C1094.56 588.496 1093.84 588.264 1092.92 588.264H1088.96V593.448H1092.92ZM1103.9 592.32C1103.96 592.32 1104.02 592.296 1104.07 592.248C1104.12 592.184 1104.15 592.128 1104.16 592.08C1104.45 591.424 1104.75 590.912 1105.05 590.544C1105.36 590.176 1105.8 589.896 1106.37 589.704C1106.95 589.512 1107.73 589.416 1108.72 589.416V592.536C1108.53 592.52 1108.27 592.512 1107.93 592.512C1106.51 592.512 1105.52 592.848 1104.96 593.52C1104.4 594.176 1104.12 595.264 1104.12 596.784V602.28H1101.04V589.608H1104.12V590.304C1104.12 590.8 1104 591.288 1103.76 591.768C1103.69 591.896 1103.66 592 1103.66 592.08C1103.66 592.208 1103.73 592.288 1103.88 592.32H1103.9ZM1115.45 589.416C1116.73 589.416 1117.85 589.704 1118.81 590.28C1119.77 590.856 1120.5 591.64 1121.02 592.632C1121.53 593.624 1121.78 594.728 1121.78 595.944C1121.78 597.16 1121.53 598.264 1121.02 599.256C1120.5 600.248 1119.77 601.032 1118.81 601.608C1117.85 602.184 1116.73 602.472 1115.45 602.472C1114.17 602.472 1113.05 602.184 1112.09 601.608C1111.13 601.032 1110.39 600.248 1109.88 599.256C1109.37 598.264 1109.11 597.16 1109.11 595.944C1109.11 594.728 1109.37 593.624 1109.88 592.632C1110.39 591.64 1111.13 590.856 1112.09 590.28C1113.05 589.704 1114.17 589.416 1115.45 589.416ZM1115.45 599.688C1116.46 599.688 1117.25 599.336 1117.82 598.632C1118.42 597.912 1118.71 597.016 1118.71 595.944C1118.71 594.872 1118.42 593.984 1117.82 593.28C1117.25 592.56 1116.46 592.2 1115.45 592.2C1114.44 592.2 1113.64 592.56 1113.05 593.28C1112.47 593.984 1112.18 594.872 1112.18 595.944C1112.18 597.016 1112.47 597.912 1113.05 598.632C1113.64 599.336 1114.44 599.688 1115.45 599.688ZM1123.72 585H1126.79V588.072H1123.72V585ZM1126.79 603C1126.79 604.456 1126.49 605.464 1125.88 606.024C1125.29 606.6 1124.34 606.888 1123.05 606.888H1120.65V604.2H1122.35C1122.78 604.2 1123.08 604.16 1123.26 604.08C1123.45 604 1123.57 603.856 1123.62 603.648C1123.69 603.456 1123.72 603.128 1123.72 602.664V589.608H1126.79V603ZM1140.62 595.776C1140.62 596.032 1140.59 596.344 1140.55 596.712H1131.33C1131.44 597.672 1131.8 598.424 1132.39 598.968C1132.98 599.512 1133.76 599.784 1134.72 599.784C1136.01 599.784 1136.87 599.144 1137.28 597.864H1140.4C1140.12 599.256 1139.49 600.376 1138.53 601.224C1137.59 602.056 1136.31 602.472 1134.69 602.472C1133.36 602.472 1132.22 602.192 1131.26 601.632C1130.3 601.072 1129.57 600.304 1129.08 599.328C1128.58 598.336 1128.33 597.208 1128.33 595.944C1128.33 594.632 1128.59 593.488 1129.1 592.512C1129.61 591.52 1130.34 590.76 1131.28 590.232C1132.24 589.688 1133.36 589.416 1134.64 589.416C1135.68 589.416 1136.65 589.64 1137.55 590.088C1138.46 590.52 1139.2 591.216 1139.76 592.176C1140.33 593.12 1140.62 594.32 1140.62 595.776ZM1137.55 594.6C1137.48 593.8 1137.21 593.152 1136.73 592.656C1136.25 592.16 1135.59 591.912 1134.74 591.912C1132.92 591.912 1131.82 592.808 1131.45 594.6H1137.55ZM1141.85 595.944C1141.85 594.696 1142.11 593.576 1142.62 592.584C1143.15 591.592 1143.9 590.816 1144.88 590.256C1145.85 589.696 1146.98 589.416 1148.26 589.416C1149.4 589.416 1150.4 589.648 1151.26 590.112C1152.13 590.576 1152.8 591.192 1153.28 591.96C1153.77 592.712 1154.06 593.528 1154.14 594.408H1151.12C1151.02 593.768 1150.73 593.24 1150.23 592.824C1149.73 592.408 1149.08 592.2 1148.26 592.2C1147.22 592.2 1146.41 592.544 1145.81 593.232C1145.22 593.92 1144.93 594.824 1144.93 595.944C1144.93 597.064 1145.22 597.968 1145.81 598.656C1146.41 599.344 1147.22 599.688 1148.26 599.688C1149.08 599.688 1149.73 599.48 1150.23 599.064C1150.73 598.648 1151.02 598.12 1151.12 597.48H1154.14C1154.06 598.36 1153.77 599.184 1153.28 599.952C1152.8 600.704 1152.13 601.312 1151.26 601.776C1150.41 602.24 1149.41 602.472 1148.26 602.472C1147 602.472 1145.88 602.192 1144.9 601.632C1143.94 601.072 1143.19 600.296 1142.65 599.304C1142.12 598.312 1141.85 597.192 1141.85 595.944ZM1159.69 592.296V598.08C1159.69 598.592 1159.71 598.944 1159.74 599.136C1159.79 599.328 1159.89 599.456 1160.05 599.52C1160.23 599.568 1160.55 599.592 1161.01 599.592H1163.15V602.28H1160.36C1159.48 602.28 1158.77 602.168 1158.23 601.944C1157.68 601.704 1157.27 601.304 1157 600.744C1156.75 600.184 1156.62 599.4 1156.62 598.392V592.296H1154.31V589.608H1156.62V586.152H1159.69V589.608H1163.15V592.296H1159.69ZM1167.71 598.008C1167.72 598.584 1167.94 599.072 1168.35 599.472C1168.79 599.872 1169.51 600.072 1170.51 600.072C1171.44 600.072 1172.11 599.936 1172.51 599.664C1172.92 599.392 1173.13 599.024 1173.13 598.56C1173.13 598.256 1172.99 598.024 1172.72 597.864C1172.47 597.704 1172.11 597.584 1171.64 597.504C1171.18 597.408 1170.45 597.304 1169.46 597.192C1167.73 596.984 1166.56 596.52 1165.95 595.8C1165.36 595.064 1165.07 594.224 1165.07 593.28C1165.07 592.576 1165.27 591.936 1165.69 591.36C1166.11 590.768 1166.72 590.296 1167.54 589.944C1168.35 589.592 1169.34 589.416 1170.49 589.416C1172.11 589.416 1173.38 589.8 1174.31 590.568C1175.23 591.32 1175.74 592.296 1175.82 593.496H1172.79C1172.75 593.016 1172.54 592.616 1172.17 592.296C1171.82 591.976 1171.23 591.816 1170.42 591.816C1168.9 591.816 1168.14 592.248 1168.14 593.112C1168.14 593.352 1168.19 593.552 1168.31 593.712C1168.43 593.872 1168.7 594.016 1169.1 594.144C1169.5 594.272 1170.09 594.376 1170.87 594.456C1172.55 594.632 1173.86 595.024 1174.79 595.632C1175.73 596.224 1176.2 597.12 1176.2 598.32C1176.2 599.648 1175.7 600.672 1174.69 601.392C1173.7 602.112 1172.27 602.472 1170.42 602.472C1168.63 602.472 1167.23 602.08 1166.24 601.296C1165.27 600.496 1164.75 599.4 1164.68 598.008H1167.71Z" fill="#DCB976"/>
<path d="M619.317 493.104C621.557 493.104 623.213 493.608 624.285 494.616C625.357 495.624 625.893 496.912 625.893 498.48C625.893 499.456 625.645 500.352 625.149 501.168C624.669 501.984 623.957 502.64 623.013 503.136C622.085 503.616 620.981 503.856 619.701 503.856H615.717V510H612.453V493.104H619.317ZM619.677 501.168C620.573 501.168 621.285 500.928 621.813 500.448C622.357 499.952 622.629 499.328 622.629 498.576C622.629 497.76 622.365 497.128 621.837 496.68C621.325 496.216 620.605 495.984 619.677 495.984H615.717V501.168H619.677ZM627.805 492.72H630.877V495.792H627.805V492.72ZM627.805 497.328H630.877V510H627.805V497.328ZM638.764 497.136C640.044 497.136 641.164 497.424 642.124 498C643.084 498.576 643.82 499.36 644.332 500.352C644.844 501.344 645.1 502.448 645.1 503.664C645.1 504.88 644.844 505.984 644.332 506.976C643.82 507.968 643.084 508.752 642.124 509.328C641.164 509.904 640.044 510.192 638.764 510.192C637.484 510.192 636.364 509.904 635.404 509.328C634.444 508.752 633.708 507.968 633.196 506.976C632.684 505.984 632.428 504.88 632.428 503.664C632.428 502.448 632.684 501.344 633.196 500.352C633.708 499.36 634.444 498.576 635.404 498C636.364 497.424 637.484 497.136 638.764 497.136ZM638.764 507.408C639.772 507.408 640.564 507.056 641.14 506.352C641.732 505.632 642.028 504.736 642.028 503.664C642.028 502.592 641.732 501.704 641.14 501C640.564 500.28 639.772 499.92 638.764 499.92C637.756 499.92 636.956 500.28 636.364 501C635.788 501.704 635.5 502.592 635.5 503.664C635.5 504.736 635.788 505.632 636.364 506.352C636.956 507.056 637.756 507.408 638.764 507.408ZM653.993 497.136C655.401 497.136 656.513 497.592 657.329 498.504C658.145 499.416 658.553 500.752 658.553 502.512V510H655.481V503.568C655.481 502.192 655.297 501.24 654.929 500.712C654.561 500.184 653.961 499.92 653.129 499.92C652.537 499.92 651.977 500.128 651.449 500.544C650.937 500.96 650.521 501.544 650.201 502.296C649.881 503.048 649.721 503.896 649.721 504.84V510H646.649V497.328H649.721V498.12C649.721 498.488 649.689 498.8 649.625 499.056C649.561 499.312 649.465 499.576 649.337 499.848C649.257 500.04 649.217 500.168 649.217 500.232C649.217 500.376 649.281 500.456 649.409 500.472H649.481C649.593 500.472 649.689 500.376 649.769 500.184C650.121 499.4 650.665 498.696 651.401 498.072C652.137 497.448 653.001 497.136 653.993 497.136ZM672.372 503.496C672.372 503.752 672.348 504.064 672.3 504.432H663.084C663.196 505.392 663.548 506.144 664.14 506.688C664.732 507.232 665.508 507.504 666.468 507.504C667.764 507.504 668.62 506.864 669.036 505.584H672.156C671.868 506.976 671.244 508.096 670.284 508.944C669.34 509.776 668.06 510.192 666.444 510.192C665.116 510.192 663.972 509.912 663.012 509.352C662.052 508.792 661.324 508.024 660.828 507.048C660.332 506.056 660.084 504.928 660.084 503.664C660.084 502.352 660.34 501.208 660.852 500.232C661.364 499.24 662.092 498.48 663.036 497.952C663.996 497.408 665.116 497.136 666.396 497.136C667.436 497.136 668.404 497.36 669.3 497.808C670.212 498.24 670.948 498.936 671.508 499.896C672.084 500.84 672.372 502.04 672.372 503.496ZM669.3 502.32C669.236 501.52 668.964 500.872 668.484 500.376C668.004 499.88 667.34 499.632 666.492 499.632C664.668 499.632 663.572 500.528 663.204 502.32H669.3ZM685.895 503.496C685.895 503.752 685.871 504.064 685.823 504.432H676.607C676.719 505.392 677.071 506.144 677.663 506.688C678.255 507.232 679.031 507.504 679.991 507.504C681.287 507.504 682.143 506.864 682.559 505.584H685.679C685.391 506.976 684.767 508.096 683.807 508.944C682.863 509.776 681.583 510.192 679.967 510.192C678.639 510.192 677.495 509.912 676.535 509.352C675.575 508.792 674.847 508.024 674.351 507.048C673.855 506.056 673.607 504.928 673.607 503.664C673.607 502.352 673.863 501.208 674.375 500.232C674.887 499.24 675.615 498.48 676.559 497.952C677.519 497.408 678.639 497.136 679.919 497.136C680.959 497.136 681.927 497.36 682.823 497.808C683.735 498.24 684.471 498.936 685.031 499.896C685.607 500.84 685.895 502.04 685.895 503.496ZM682.823 502.32C682.759 501.52 682.487 500.872 682.007 500.376C681.527 499.88 680.863 499.632 680.015 499.632C678.191 499.632 677.095 500.528 676.727 502.32H682.823ZM690.286 500.04C690.35 500.04 690.406 500.016 690.454 499.968C690.502 499.904 690.534 499.848 690.55 499.8C690.838 499.144 691.134 498.632 691.438 498.264C691.742 497.896 692.182 497.616 692.758 497.424C693.334 497.232 694.118 497.136 695.11 497.136V500.256C694.918 500.24 694.654 500.232 694.318 500.232C692.894 500.232 691.902 500.568 691.342 501.24C690.782 501.896 690.502 502.984 690.502 504.504V510H687.43V497.328H690.502V498.024C690.502 498.52 690.382 499.008 690.142 499.488C690.078 499.616 690.046 499.72 690.046 499.8C690.046 499.928 690.118 500.008 690.262 500.04H690.286ZM696.852 492.72H699.924V495.792H696.852V492.72ZM696.852 497.328H699.924V510H696.852V497.328ZM709.774 497.136C711.182 497.136 712.294 497.592 713.11 498.504C713.926 499.416 714.334 500.752 714.334 502.512V510H711.262V503.568C711.262 502.192 711.078 501.24 710.71 500.712C710.342 500.184 709.742 499.92 708.91 499.92C708.318 499.92 707.758 500.128 707.23 500.544C706.718 500.96 706.302 501.544 705.982 502.296C705.662 503.048 705.502 503.896 705.502 504.84V510H702.43V497.328H705.502V498.12C705.502 498.488 705.47 498.8 705.406 499.056C705.342 499.312 705.246 499.576 705.118 499.848C705.038 500.04 704.998 500.168 704.998 500.232C704.998 500.376 705.062 500.456 705.19 500.472H705.262C705.374 500.472 705.47 500.376 705.55 500.184C705.902 499.4 706.446 498.696 707.182 498.072C707.918 497.448 708.782 497.136 709.774 497.136ZM715.865 503.376C715.865 502.24 716.097 501.2 716.561 500.256C717.025 499.296 717.673 498.536 718.505 497.976C719.353 497.416 720.313 497.136 721.385 497.136C723.113 497.136 724.449 497.904 725.393 499.44C725.505 499.68 725.633 499.768 725.777 499.704C725.857 499.688 725.897 499.624 725.897 499.512C725.897 499.432 725.841 499.28 725.729 499.056C725.553 498.72 725.465 498.336 725.465 497.904V497.328H728.537V508.656C728.537 510.656 727.985 512.176 726.881 513.216C725.777 514.272 724.241 514.8 722.273 514.8C720.401 514.8 718.953 514.368 717.929 513.504C716.921 512.656 716.361 511.584 716.249 510.288H719.273C719.449 511.632 720.433 512.304 722.225 512.304C724.385 512.304 725.465 511.128 725.465 508.776C725.465 508.36 725.553 507.984 725.729 507.648C725.841 507.424 725.897 507.28 725.897 507.216C725.897 507.136 725.857 507.08 725.777 507.048L725.681 507.024C725.585 507.024 725.513 507.064 725.465 507.144C725.417 507.208 725.393 507.248 725.393 507.264C724.481 508.832 723.145 509.616 721.385 509.616C720.313 509.616 719.353 509.336 718.505 508.776C717.673 508.216 717.025 507.464 716.561 506.52C716.097 505.56 715.865 504.512 715.865 503.376ZM722.105 506.832C722.761 506.832 723.345 506.68 723.857 506.376C724.369 506.056 724.761 505.632 725.033 505.104C725.321 504.576 725.465 504 725.465 503.376C725.465 502.752 725.321 502.176 725.033 501.648C724.761 501.12 724.369 500.704 723.857 500.4C723.345 500.08 722.761 499.92 722.105 499.92C721.081 499.92 720.297 500.248 719.753 500.904C719.209 501.56 718.937 502.384 718.937 503.376C718.937 504.368 719.209 505.192 719.753 505.848C720.297 506.504 721.081 506.832 722.105 506.832ZM576.899 556.72H579.971V559.792H576.899V556.72ZM576.899 561.328H579.971V574H576.899V561.328ZM589.821 561.136C591.229 561.136 592.341 561.592 593.157 562.504C593.973 563.416 594.381 564.752 594.381 566.512V574H591.309V567.568C591.309 566.192 591.125 565.24 590.757 564.712C590.389 564.184 589.789 563.92 588.957 563.92C588.365 563.92 587.805 564.128 587.277 564.544C586.765 564.96 586.349 565.544 586.029 566.296C585.709 567.048 585.549 567.896 585.549 568.84V574H582.477V561.328H585.549V562.12C585.549 562.488 585.517 562.8 585.453 563.056C585.389 563.312 585.293 563.576 585.165 563.848C585.085 564.04 585.045 564.168 585.045 564.232C585.045 564.376 585.109 564.456 585.237 564.472H585.309C585.421 564.472 585.517 564.376 585.597 564.184C585.949 563.4 586.493 562.696 587.229 562.072C587.965 561.448 588.829 561.136 589.821 561.136ZM610.281 557.104C612.297 557.104 613.945 557.488 615.225 558.256C616.521 559.008 617.465 560.024 618.057 561.304C618.649 562.568 618.945 563.984 618.945 565.552C618.945 567.12 618.641 568.544 618.033 569.824C617.425 571.088 616.473 572.104 615.177 572.872C613.881 573.624 612.249 574 610.281 574H603.969V557.104H610.281ZM610.641 571.12C611.729 571.12 612.649 570.864 613.401 570.352C614.169 569.824 614.737 569.136 615.105 568.288C615.489 567.44 615.681 566.528 615.681 565.552C615.681 564.576 615.489 563.664 615.105 562.816C614.737 561.968 614.169 561.288 613.401 560.776C612.649 560.248 611.729 559.984 610.641 559.984H607.233V571.12H610.641ZM632.387 567.496C632.387 567.752 632.363 568.064 632.315 568.432H623.099C623.211 569.392 623.563 570.144 624.155 570.688C624.747 571.232 625.523 571.504 626.483 571.504C627.779 571.504 628.635 570.864 629.051 569.584H632.171C631.883 570.976 631.259 572.096 630.299 572.944C629.355 573.776 628.075 574.192 626.459 574.192C625.131 574.192 623.987 573.912 623.027 573.352C622.067 572.792 621.339 572.024 620.843 571.048C620.347 570.056 620.099 568.928 620.099 567.664C620.099 566.352 620.355 565.208 620.867 564.232C621.379 563.24 622.107 562.48 623.051 561.952C624.011 561.408 625.131 561.136 626.411 561.136C627.451 561.136 628.419 561.36 629.315 561.808C630.227 562.24 630.963 562.936 631.523 563.896C632.099 564.84 632.387 566.04 632.387 567.496ZM629.315 566.32C629.251 565.52 628.979 564.872 628.499 564.376C628.019 563.88 627.355 563.632 626.507 563.632C624.683 563.632 623.587 564.528 623.219 566.32H629.315ZM633.623 567.664C633.623 566.416 633.879 565.296 634.391 564.304C634.919 563.312 635.671 562.536 636.647 561.976C637.623 561.416 638.751 561.136 640.031 561.136C641.167 561.136 642.167 561.368 643.031 561.832C643.895 562.296 644.567 562.912 645.047 563.68C645.543 564.432 645.831 565.248 645.911 566.128H642.887C642.791 565.488 642.495 564.96 641.999 564.544C641.503 564.128 640.847 563.92 640.031 563.92C638.991 563.92 638.175 564.264 637.583 564.952C636.991 565.64 636.695 566.544 636.695 567.664C636.695 568.784 636.991 569.688 637.583 570.376C638.175 571.064 638.991 571.408 640.031 571.408C640.847 571.408 641.503 571.2 641.999 570.784C642.495 570.368 642.791 569.84 642.887 569.2H645.911C645.831 570.08 645.543 570.904 645.047 571.672C644.567 572.424 643.895 573.032 643.031 573.496C642.183 573.96 641.183 574.192 640.031 574.192C638.767 574.192 637.647 573.912 636.671 573.352C635.711 572.792 634.959 572.016 634.415 571.024C633.887 570.032 633.623 568.912 633.623 567.664ZM659.434 567.496C659.434 567.752 659.41 568.064 659.362 568.432H650.146C650.258 569.392 650.61 570.144 651.202 570.688C651.794 571.232 652.57 571.504 653.53 571.504C654.826 571.504 655.682 570.864 656.098 569.584H659.218C658.93 570.976 658.306 572.096 657.346 572.944C656.402 573.776 655.122 574.192 653.506 574.192C652.178 574.192 651.034 573.912 650.074 573.352C649.114 572.792 648.386 572.024 647.89 571.048C647.394 570.056 647.146 568.928 647.146 567.664C647.146 566.352 647.402 565.208 647.914 564.232C648.426 563.24 649.154 562.48 650.098 561.952C651.058 561.408 652.178 561.136 653.458 561.136C654.498 561.136 655.466 561.36 656.362 561.808C657.274 562.24 658.01 562.936 658.57 563.896C659.146 564.84 659.434 566.04 659.434 567.496ZM656.362 566.32C656.298 565.52 656.026 564.872 655.546 564.376C655.066 563.88 654.402 563.632 653.554 563.632C651.73 563.632 650.634 564.528 650.266 566.32H656.362ZM668.313 561.136C669.721 561.136 670.833 561.592 671.649 562.504C672.465 563.416 672.873 564.752 672.873 566.512V574H669.801V567.568C669.801 566.192 669.617 565.24 669.249 564.712C668.881 564.184 668.281 563.92 667.449 563.92C666.857 563.92 666.297 564.128 665.769 564.544C665.257 564.96 664.841 565.544 664.521 566.296C664.201 567.048 664.041 567.896 664.041 568.84V574H660.969V561.328H664.041V562.12C664.041 562.488 664.009 562.8 663.945 563.056C663.881 563.312 663.785 563.576 663.657 563.848C663.577 564.04 663.537 564.168 663.537 564.232C663.537 564.376 663.601 564.456 663.729 564.472H663.801C663.913 564.472 664.009 564.376 664.089 564.184C664.441 563.4 664.985 562.696 665.721 562.072C666.457 561.448 667.321 561.136 668.313 561.136ZM679.209 564.016V569.8C679.209 570.312 679.225 570.664 679.257 570.856C679.305 571.048 679.409 571.176 679.569 571.24C679.745 571.288 680.065 571.312 680.529 571.312H682.665V574H679.881C679.001 574 678.289 573.888 677.745 573.664C677.201 573.424 676.793 573.024 676.521 572.464C676.265 571.904 676.137 571.12 676.137 570.112V564.016H673.833V561.328H676.137V557.872H679.209V561.328H682.665V564.016H679.209ZM687.638 564.04C687.702 564.04 687.758 564.016 687.806 563.968C687.854 563.904 687.886 563.848 687.902 563.8C688.19 563.144 688.486 562.632 688.79 562.264C689.094 561.896 689.534 561.616 690.11 561.424C690.686 561.232 691.47 561.136 692.462 561.136V564.256C692.27 564.24 692.006 564.232 691.67 564.232C690.246 564.232 689.254 564.568 688.694 565.24C688.134 565.896 687.854 566.984 687.854 568.504V574H684.782V561.328H687.854V562.024C687.854 562.52 687.734 563.008 687.494 563.488C687.43 563.616 687.398 563.72 687.398 563.8C687.398 563.928 687.47 564.008 687.614 564.04H687.638ZM693.037 570.52C693.037 569.208 693.453 568.24 694.285 567.616C695.133 566.976 696.253 566.616 697.645 566.536L698.869 566.488C699.957 566.456 700.733 566.384 701.197 566.272C701.661 566.16 701.885 565.888 701.869 565.456C701.853 564.912 701.669 564.472 701.317 564.136C700.965 563.8 700.301 563.632 699.325 563.632C698.333 563.632 697.629 563.808 697.213 564.16C696.797 564.496 696.541 564.96 696.445 565.552H693.421C693.629 564.048 694.293 562.936 695.413 562.216C696.533 561.496 697.869 561.136 699.421 561.136C701.117 561.136 702.461 561.552 703.453 562.384C704.445 563.216 704.941 564.752 704.941 566.992V574H701.869V573.112C701.869 572.632 701.989 572.168 702.229 571.72C702.293 571.56 702.325 571.44 702.325 571.36C702.325 571.264 702.285 571.2 702.205 571.168L702.109 571.144C702.013 571.144 701.941 571.192 701.893 571.288C701.845 571.368 701.821 571.416 701.821 571.432C701.069 573.272 699.613 574.192 697.453 574.192C696.669 574.192 695.933 574.032 695.245 573.712C694.573 573.392 694.037 572.952 693.637 572.392C693.237 571.832 693.037 571.208 693.037 570.52ZM701.869 567.472C701.549 567.824 701.125 568.072 700.597 568.216C700.085 568.344 699.277 568.464 698.173 568.576C697.485 568.656 696.965 568.84 696.613 569.128C696.277 569.4 696.109 569.808 696.109 570.352C696.109 570.816 696.285 571.192 696.637 571.48C697.005 571.768 697.477 571.912 698.053 571.912C698.261 571.912 698.421 571.904 698.533 571.888C699.477 571.76 700.261 571.352 700.885 570.664C701.525 569.976 701.853 568.912 701.869 567.472ZM710.518 556.72V574H707.446V556.72H710.518ZM713.024 556.72H716.096V559.792H713.024V556.72ZM713.024 561.328H716.096V574H713.024V561.328ZM724.458 565C724.81 564.68 725.314 564.392 725.97 564.136C726.162 564.056 726.234 563.936 726.186 563.776C726.138 563.664 726.066 563.608 725.97 563.608C725.938 563.608 725.874 563.624 725.778 563.656C725.698 563.688 725.506 563.76 725.202 563.872C724.914 563.968 724.61 564.016 724.29 564.016H718.218V561.328H729.354V564.592L723.114 570.328C722.762 570.648 722.258 570.936 721.602 571.192C721.41 571.272 721.338 571.392 721.386 571.552C721.434 571.664 721.506 571.72 721.602 571.72C721.634 571.72 721.698 571.704 721.794 571.672C722.114 571.544 722.378 571.456 722.586 571.408C722.794 571.344 723.026 571.312 723.282 571.312H729.354V574H718.218V570.736L724.458 565ZM742.802 567.496C742.802 567.752 742.778 568.064 742.73 568.432H733.514C733.626 569.392 733.978 570.144 734.57 570.688C735.162 571.232 735.938 571.504 736.898 571.504C738.194 571.504 739.05 570.864 739.466 569.584H742.586C742.298 570.976 741.674 572.096 740.714 572.944C739.77 573.776 738.49 574.192 736.874 574.192C735.546 574.192 734.402 573.912 733.442 573.352C732.482 572.792 731.754 572.024 731.258 571.048C730.762 570.056 730.514 568.928 730.514 567.664C730.514 566.352 730.77 565.208 731.282 564.232C731.794 563.24 732.522 562.48 733.465 561.952C734.426 561.408 735.546 561.136 736.826 561.136C737.866 561.136 738.834 561.36 739.73 561.808C740.642 562.24 741.378 562.936 741.938 563.896C742.514 564.84 742.802 566.04 742.802 567.496ZM739.73 566.32C739.666 565.52 739.394 564.872 738.914 564.376C738.434 563.88 737.77 563.632 736.922 563.632C735.098 563.632 734.002 564.528 733.634 566.32H739.73ZM756.803 574H753.731V573.448C753.731 573.032 753.843 572.6 754.067 572.152C754.147 572.024 754.187 571.904 754.187 571.792C754.187 571.696 754.131 571.624 754.019 571.576L753.947 571.552C753.851 571.552 753.779 571.592 753.731 571.672C753.699 571.752 753.675 571.8 753.659 571.816C753.163 572.552 752.595 573.136 751.955 573.568C751.315 573.984 750.547 574.192 749.651 574.192C748.579 574.192 747.619 573.904 746.771 573.328C745.939 572.752 745.291 571.968 744.827 570.976C744.363 569.984 744.131 568.88 744.131 567.664C744.131 566.448 744.363 565.344 744.827 564.352C745.291 563.36 745.939 562.576 746.771 562C747.619 561.424 748.579 561.136 749.651 561.136C750.595 561.136 751.403 561.352 752.075 561.784C752.763 562.2 753.291 562.768 753.659 563.488C753.787 563.76 753.931 563.856 754.091 563.776C754.171 563.728 754.211 563.656 754.211 563.56C754.211 563.464 754.163 563.32 754.067 563.128C753.843 562.68 753.731 562.24 753.731 561.808V556.72H756.803V574ZM750.371 571.408C751.027 571.408 751.611 571.24 752.123 570.904C752.635 570.568 753.027 570.112 753.299 569.536C753.587 568.96 753.731 568.336 753.731 567.664C753.731 566.992 753.587 566.368 753.299 565.792C753.027 565.216 752.635 564.76 752.123 564.424C751.611 564.088 751.027 563.92 750.371 563.92C749.347 563.92 748.563 564.28 748.019 565C747.475 565.704 747.203 566.592 747.203 567.664C747.203 568.736 747.475 569.632 748.019 570.352C748.563 571.056 749.347 571.408 750.371 571.408ZM627.735 589.104H639.639V591.984H630.999V596.208H638.103V598.896H630.999V606H627.735V589.104ZM641.563 588.72H644.635V591.792H641.563V588.72ZM641.563 593.328H644.635V606H641.563V593.328ZM654.485 593.136C655.893 593.136 657.005 593.592 657.821 594.504C658.637 595.416 659.045 596.752 659.045 598.512V606H655.973V599.568C655.973 598.192 655.789 597.24 655.421 596.712C655.053 596.184 654.453 595.92 653.621 595.92C653.029 595.92 652.469 596.128 651.941 596.544C651.429 596.96 651.013 597.544 650.693 598.296C650.373 599.048 650.213 599.896 650.213 600.84V606H647.141V593.328H650.213V594.12C650.213 594.488 650.181 594.8 650.117 595.056C650.053 595.312 649.957 595.576 649.829 595.848C649.749 596.04 649.709 596.168 649.709 596.232C649.709 596.376 649.773 596.456 649.901 596.472H649.973C650.085 596.472 650.181 596.376 650.261 596.184C650.613 595.4 651.157 594.696 651.893 594.072C652.629 593.448 653.493 593.136 654.485 593.136ZM660.576 602.52C660.576 601.208 660.992 600.24 661.824 599.616C662.672 598.976 663.792 598.616 665.184 598.536L666.408 598.488C667.496 598.456 668.272 598.384 668.736 598.272C669.2 598.16 669.424 597.888 669.408 597.456C669.392 596.912 669.208 596.472 668.856 596.136C668.504 595.8 667.84 595.632 666.864 595.632C665.872 595.632 665.168 595.808 664.752 596.16C664.336 596.496 664.08 596.96 663.984 597.552H660.96C661.168 596.048 661.832 594.936 662.952 594.216C664.072 593.496 665.408 593.136 666.96 593.136C668.656 593.136 670 593.552 670.992 594.384C671.984 595.216 672.48 596.752 672.48 598.992V606H669.408V605.112C669.408 604.632 669.528 604.168 669.768 603.72C669.832 603.56 669.864 603.44 669.864 603.36C669.864 603.264 669.824 603.2 669.744 603.168L669.648 603.144C669.552 603.144 669.48 603.192 669.432 603.288C669.384 603.368 669.36 603.416 669.36 603.432C668.608 605.272 667.152 606.192 664.992 606.192C664.208 606.192 663.472 606.032 662.784 605.712C662.112 605.392 661.576 604.952 661.176 604.392C660.776 603.832 660.576 603.208 660.576 602.52ZM669.408 599.472C669.088 599.824 668.664 600.072 668.136 600.216C667.624 600.344 666.816 600.464 665.712 600.576C665.024 600.656 664.504 600.84 664.152 601.128C663.816 601.4 663.648 601.808 663.648 602.352C663.648 602.816 663.824 603.192 664.176 603.48C664.544 603.768 665.016 603.912 665.592 603.912C665.8 603.912 665.96 603.904 666.072 603.888C667.016 603.76 667.8 603.352 668.424 602.664C669.064 601.976 669.392 600.912 669.408 599.472ZM682.141 593.136C683.549 593.136 684.661 593.592 685.477 594.504C686.293 595.416 686.701 596.752 686.701 598.512V606H683.629V599.568C683.629 598.192 683.445 597.24 683.077 596.712C682.709 596.184 682.109 595.92 681.277 595.92C680.685 595.92 680.125 596.128 679.597 596.544C679.085 596.96 678.669 597.544 678.349 598.296C678.029 599.048 677.869 599.896 677.869 600.84V606H674.797V593.328H677.869V594.12C677.869 594.488 677.837 594.8 677.773 595.056C677.709 595.312 677.613 595.576 677.485 595.848C677.405 596.04 677.365 596.168 677.365 596.232C677.365 596.376 677.429 596.456 677.557 596.472H677.629C677.741 596.472 677.837 596.376 677.917 596.184C678.269 595.4 678.813 594.696 679.549 594.072C680.285 593.448 681.149 593.136 682.141 593.136ZM688.232 599.664C688.232 598.416 688.488 597.296 689 596.304C689.528 595.312 690.28 594.536 691.256 593.976C692.232 593.416 693.36 593.136 694.64 593.136C695.776 593.136 696.776 593.368 697.64 593.832C698.504 594.296 699.176 594.912 699.656 595.68C700.152 596.432 700.44 597.248 700.52 598.128H697.496C697.4 597.488 697.104 596.96 696.608 596.544C696.112 596.128 695.456 595.92 694.64 595.92C693.6 595.92 692.784 596.264 692.192 596.952C691.6 597.64 691.304 598.544 691.304 599.664C691.304 600.784 691.6 601.688 692.192 602.376C692.784 603.064 693.6 603.408 694.64 603.408C695.456 603.408 696.112 603.2 696.608 602.784C697.104 602.368 697.4 601.84 697.496 601.2H700.52C700.44 602.08 700.152 602.904 699.656 603.672C699.176 604.424 698.504 605.032 697.64 605.496C696.792 605.96 695.792 606.192 694.64 606.192C693.376 606.192 692.256 605.912 691.28 605.352C690.32 604.792 689.568 604.016 689.024 603.024C688.496 602.032 688.232 600.912 688.232 599.664ZM714.044 599.496C714.044 599.752 714.02 600.064 713.972 600.432H704.756C704.868 601.392 705.22 602.144 705.812 602.688C706.404 603.232 707.18 603.504 708.14 603.504C709.436 603.504 710.292 602.864 710.708 601.584H713.828C713.54 602.976 712.916 604.096 711.956 604.944C711.012 605.776 709.732 606.192 708.116 606.192C706.788 606.192 705.644 605.912 704.684 605.352C703.724 604.792 702.996 604.024 702.5 603.048C702.004 602.056 701.756 600.928 701.756 599.664C701.756 598.352 702.012 597.208 702.524 596.232C703.036 595.24 703.764 594.48 704.708 593.952C705.668 593.408 706.788 593.136 708.068 593.136C709.108 593.136 710.076 593.36 710.972 593.808C711.884 594.24 712.62 594.936 713.18 595.896C713.756 596.84 714.044 598.04 714.044 599.496ZM710.972 598.32C710.908 597.52 710.636 596.872 710.156 596.376C709.676 595.88 709.012 595.632 708.164 595.632C706.34 595.632 705.244 596.528 704.876 598.32H710.972Z" fill="white"/>
<path d="M568.901 525.104V539.12H577.157V542H565.637V525.104H568.901ZM579.067 524.72H582.139V527.792H579.067V524.72ZM579.067 529.328H582.139V542H579.067V529.328ZM596.549 546.608H593.477V541.448C593.477 541.032 593.589 540.6 593.813 540.152C593.893 540.024 593.933 539.904 593.933 539.792C593.933 539.696 593.877 539.624 593.765 539.576L593.693 539.552C593.597 539.552 593.525 539.592 593.477 539.672C593.445 539.752 593.421 539.8 593.405 539.816C592.909 540.552 592.341 541.136 591.701 541.568C591.061 541.984 590.293 542.192 589.397 542.192C588.325 542.192 587.365 541.904 586.517 541.328C585.685 540.752 585.037 539.968 584.573 538.976C584.109 537.984 583.877 536.88 583.877 535.664C583.877 534.448 584.109 533.344 584.573 532.352C585.037 531.36 585.685 530.576 586.517 530C587.365 529.424 588.325 529.136 589.397 529.136C590.341 529.136 591.149 529.352 591.821 529.784C592.509 530.2 593.037 530.768 593.405 531.488C593.533 531.76 593.677 531.856 593.837 531.776C593.917 531.728 593.957 531.656 593.957 531.56C593.957 531.464 593.909 531.32 593.813 531.128C593.589 530.68 593.477 530.24 593.477 529.808V529.328H596.549V546.608ZM590.117 539.408C590.773 539.408 591.357 539.24 591.869 538.904C592.381 538.568 592.773 538.112 593.045 537.536C593.333 536.96 593.477 536.336 593.477 535.664C593.477 534.992 593.333 534.368 593.045 533.792C592.773 533.216 592.381 532.76 591.869 532.424C591.357 532.088 590.773 531.92 590.117 531.92C589.093 531.92 588.309 532.28 587.765 533C587.221 533.704 586.949 534.592 586.949 535.664C586.949 536.736 587.221 537.632 587.765 538.352C588.309 539.056 589.093 539.408 590.117 539.408ZM603.235 542.192C601.827 542.192 600.715 541.736 599.899 540.824C599.083 539.912 598.675 538.576 598.675 536.816V529.328H601.747V535.76C601.747 537.136 601.931 538.088 602.299 538.616C602.667 539.144 603.267 539.408 604.099 539.408C604.691 539.408 605.243 539.2 605.755 538.784C606.283 538.368 606.707 537.784 607.027 537.032C607.347 536.28 607.507 535.432 607.507 534.488V529.328H610.579V542H607.507V541.208C607.507 540.856 607.539 540.56 607.603 540.32C607.667 540.064 607.763 539.784 607.891 539.48C607.971 539.272 608.011 539.144 608.011 539.096C608.011 538.952 607.947 538.872 607.819 538.856H607.747C607.635 538.856 607.539 538.952 607.459 539.144C607.059 539.944 606.499 540.656 605.779 541.28C605.075 541.888 604.227 542.192 603.235 542.192ZM613.074 524.72H616.146V527.792H613.074V524.72ZM613.074 529.328H616.146V542H613.074V529.328ZM630.557 542H627.485V541.448C627.485 541.032 627.597 540.6 627.821 540.152C627.901 540.024 627.941 539.904 627.941 539.792C627.941 539.696 627.885 539.624 627.773 539.576L627.701 539.552C627.605 539.552 627.533 539.592 627.485 539.672C627.453 539.752 627.429 539.8 627.413 539.816C626.917 540.552 626.349 541.136 625.709 541.568C625.069 541.984 624.301 542.192 623.405 542.192C622.333 542.192 621.373 541.904 620.525 541.328C619.693 540.752 619.045 539.968 618.581 538.976C618.117 537.984 617.885 536.88 617.885 535.664C617.885 534.448 618.117 533.344 618.581 532.352C619.045 531.36 619.693 530.576 620.525 530C621.373 529.424 622.333 529.136 623.405 529.136C624.349 529.136 625.157 529.352 625.829 529.784C626.517 530.2 627.045 530.768 627.413 531.488C627.541 531.76 627.685 531.856 627.845 531.776C627.925 531.728 627.965 531.656 627.965 531.56C627.965 531.464 627.917 531.32 627.821 531.128C627.597 530.68 627.485 530.24 627.485 529.808V524.72H630.557V542ZM624.125 539.408C624.781 539.408 625.365 539.24 625.877 538.904C626.389 538.568 626.781 538.112 627.053 537.536C627.341 536.96 627.485 536.336 627.485 535.664C627.485 534.992 627.341 534.368 627.053 533.792C626.781 533.216 626.389 532.76 625.877 532.424C625.365 532.088 624.781 531.92 624.125 531.92C623.101 531.92 622.317 532.28 621.773 533C621.229 533.704 620.957 534.592 620.957 535.664C620.957 536.736 621.229 537.632 621.773 538.352C622.317 539.056 623.101 539.408 624.125 539.408ZM633.067 524.72H636.139V527.792H633.067V524.72ZM633.067 529.328H636.139V542H633.067V529.328ZM642.681 532.016V537.8C642.681 538.312 642.697 538.664 642.729 538.856C642.777 539.048 642.881 539.176 643.041 539.24C643.217 539.288 643.537 539.312 644.001 539.312H646.137V542H643.353C642.473 542 641.761 541.888 641.217 541.664C640.673 541.424 640.265 541.024 639.993 540.464C639.737 539.904 639.609 539.12 639.609 538.112V532.016H637.305V529.328H639.609V525.872H642.681V529.328H646.137V532.016H642.681ZM653.002 537.512C653.13 537.896 653.194 538.376 653.194 538.952C653.194 539.224 653.29 539.36 653.482 539.36C653.674 539.36 653.77 539.224 653.77 538.952C653.77 538.424 653.842 537.944 653.986 537.512L656.698 529.328H659.962L654.586 543.464C654.154 544.6 653.61 545.408 652.954 545.888C652.298 546.368 651.418 546.608 650.314 546.608H648.01V543.92H649.066C649.77 543.92 650.258 543.904 650.53 543.872C650.818 543.84 651.034 543.76 651.178 543.632C651.338 543.504 651.474 543.272 651.586 542.936L651.85 542.168L646.906 529.328H650.17L653.002 537.512ZM671.674 527.984V532.208H678.778V534.896H671.674V539.12H680.314V542H668.41V525.104H680.314V527.984H671.674ZM681.846 529.328H685.398L687.51 532.76C687.718 533.064 687.838 533.44 687.87 533.888C687.886 534.016 687.91 534.112 687.942 534.176C687.99 534.24 688.07 534.272 688.182 534.272C688.294 534.272 688.366 534.24 688.398 534.176C688.446 534.112 688.478 534.016 688.494 533.888C688.526 533.44 688.646 533.064 688.854 532.76L690.966 529.328H694.518L690.39 535.376L694.902 542H691.35L688.854 537.968C688.646 537.6 688.526 537.224 688.494 536.84C688.494 536.584 688.39 536.456 688.182 536.456C687.974 536.456 687.87 536.584 687.87 536.84C687.838 537.224 687.718 537.6 687.51 537.968L685.014 542H681.462L685.974 535.376L681.846 529.328ZM694.713 535.664C694.713 534.416 694.969 533.296 695.481 532.304C696.009 531.312 696.761 530.536 697.737 529.976C698.713 529.416 699.841 529.136 701.121 529.136C702.257 529.136 703.257 529.368 704.121 529.832C704.985 530.296 705.657 530.912 706.137 531.68C706.633 532.432 706.921 533.248 707.001 534.128H703.977C703.881 533.488 703.585 532.96 703.089 532.544C702.593 532.128 701.937 531.92 701.121 531.92C700.081 531.92 699.265 532.264 698.673 532.952C698.081 533.64 697.785 534.544 697.785 535.664C697.785 536.784 698.081 537.688 698.673 538.376C699.265 539.064 700.081 539.408 701.121 539.408C701.937 539.408 702.593 539.2 703.089 538.784C703.585 538.368 703.881 537.84 703.977 537.2H707.001C706.921 538.08 706.633 538.904 706.137 539.672C705.657 540.424 704.985 541.032 704.121 541.496C703.273 541.96 702.273 542.192 701.121 542.192C699.857 542.192 698.737 541.912 697.761 541.352C696.801 540.792 696.049 540.016 695.505 539.024C694.977 538.032 694.713 536.912 694.713 535.664ZM715.879 529.136C717.287 529.136 718.399 529.592 719.215 530.504C720.031 531.416 720.439 532.752 720.439 534.512V542H717.367V535.568C717.367 534.192 717.183 533.24 716.815 532.712C716.447 532.184 715.847 531.92 715.015 531.92C714.423 531.92 713.863 532.128 713.335 532.544C712.823 532.96 712.407 533.544 712.087 534.296C711.767 535.048 711.607 535.896 711.607 536.84V542H708.535V524.72H711.607V530.12C711.607 530.488 711.575 530.8 711.511 531.056C711.447 531.312 711.351 531.576 711.223 531.848C711.143 532.04 711.103 532.168 711.103 532.232C711.103 532.376 711.167 532.456 711.295 532.472H711.367C711.479 532.472 711.575 532.376 711.655 532.184C712.007 531.4 712.551 530.696 713.287 530.072C714.023 529.448 714.887 529.136 715.879 529.136ZM721.971 538.52C721.971 537.208 722.387 536.24 723.219 535.616C724.067 534.976 725.187 534.616 726.579 534.536L727.803 534.488C728.891 534.456 729.667 534.384 730.131 534.272C730.595 534.16 730.819 533.888 730.803 533.456C730.787 532.912 730.603 532.472 730.251 532.136C729.899 531.8 729.235 531.632 728.259 531.632C727.267 531.632 726.563 531.808 726.147 532.16C725.731 532.496 725.475 532.96 725.379 533.552H722.355C722.563 532.048 723.227 530.936 724.347 530.216C725.467 529.496 726.803 529.136 728.355 529.136C730.051 529.136 731.395 529.552 732.387 530.384C733.379 531.216 733.875 532.752 733.875 534.992V542H730.803V541.112C730.803 540.632 730.923 540.168 731.163 539.72C731.227 539.56 731.259 539.44 731.259 539.36C731.259 539.264 731.219 539.2 731.139 539.168L731.043 539.144C730.947 539.144 730.875 539.192 730.827 539.288C730.779 539.368 730.755 539.416 730.755 539.432C730.003 541.272 728.547 542.192 726.387 542.192C725.603 542.192 724.867 542.032 724.179 541.712C723.507 541.392 722.971 540.952 722.571 540.392C722.171 539.832 721.971 539.208 721.971 538.52ZM730.803 535.472C730.483 535.824 730.059 536.072 729.531 536.216C729.019 536.344 728.211 536.464 727.107 536.576C726.419 536.656 725.899 536.84 725.547 537.128C725.211 537.4 725.043 537.808 725.043 538.352C725.043 538.816 725.219 539.192 725.571 539.48C725.939 539.768 726.411 539.912 726.987 539.912C727.195 539.912 727.355 539.904 727.467 539.888C728.411 539.76 729.195 539.352 729.819 538.664C730.459 537.976 730.787 536.912 730.803 535.472ZM743.536 529.136C744.944 529.136 746.056 529.592 746.872 530.504C747.688 531.416 748.096 532.752 748.096 534.512V542H745.024V535.568C745.024 534.192 744.84 533.24 744.472 532.712C744.104 532.184 743.504 531.92 742.672 531.92C742.08 531.92 741.52 532.128 740.992 532.544C740.48 532.96 740.064 533.544 739.744 534.296C739.424 535.048 739.264 535.896 739.264 536.84V542H736.192V529.328H739.264V530.12C739.264 530.488 739.232 530.8 739.168 531.056C739.104 531.312 739.008 531.576 738.88 531.848C738.8 532.04 738.76 532.168 738.76 532.232C738.76 532.376 738.824 532.456 738.952 532.472H739.024C739.136 532.472 739.232 532.376 739.312 532.184C739.664 531.4 740.208 530.696 740.944 530.072C741.68 529.448 742.544 529.136 743.536 529.136ZM749.627 535.376C749.627 534.24 749.859 533.2 750.323 532.256C750.787 531.296 751.435 530.536 752.267 529.976C753.115 529.416 754.075 529.136 755.147 529.136C756.875 529.136 758.211 529.904 759.155 531.44C759.267 531.68 759.395 531.768 759.539 531.704C759.619 531.688 759.659 531.624 759.659 531.512C759.659 531.432 759.603 531.28 759.491 531.056C759.315 530.72 759.227 530.336 759.227 529.904V529.328H762.299V540.656C762.299 542.656 761.747 544.176 760.643 545.216C759.539 546.272 758.003 546.8 756.035 546.8C754.163 546.8 752.715 546.368 751.691 545.504C750.683 544.656 750.123 543.584 750.011 542.288H753.035C753.211 543.632 754.195 544.304 755.987 544.304C758.147 544.304 759.227 543.128 759.227 540.776C759.227 540.36 759.315 539.984 759.491 539.648C759.603 539.424 759.659 539.28 759.659 539.216C759.659 539.136 759.619 539.08 759.539 539.048L759.443 539.024C759.347 539.024 759.275 539.064 759.227 539.144C759.179 539.208 759.155 539.248 759.155 539.264C758.243 540.832 756.907 541.616 755.147 541.616C754.075 541.616 753.115 541.336 752.267 540.776C751.435 540.216 750.787 539.464 750.323 538.52C749.859 537.56 749.627 536.512 749.627 535.376ZM755.867 538.832C756.523 538.832 757.107 538.68 757.619 538.376C758.131 538.056 758.523 537.632 758.795 537.104C759.083 536.576 759.227 536 759.227 535.376C759.227 534.752 759.083 534.176 758.795 533.648C758.523 533.12 758.131 532.704 757.619 532.4C757.107 532.08 756.523 531.92 755.867 531.92C754.843 531.92 754.059 532.248 753.515 532.904C752.971 533.56 752.699 534.384 752.699 535.376C752.699 536.368 752.971 537.192 753.515 537.848C754.059 538.504 754.843 538.832 755.867 538.832ZM776.141 535.496C776.141 535.752 776.117 536.064 776.069 536.432H766.853C766.965 537.392 767.317 538.144 767.909 538.688C768.501 539.232 769.277 539.504 770.237 539.504C771.533 539.504 772.389 538.864 772.805 537.584H775.925C775.637 538.976 775.013 540.096 774.053 540.944C773.109 541.776 771.829 542.192 770.213 542.192C768.885 542.192 767.741 541.912 766.781 541.352C765.821 540.792 765.093 540.024 764.597 539.048C764.101 538.056 763.853 536.928 763.853 535.664C763.853 534.352 764.109 533.208 764.621 532.232C765.133 531.24 765.861 530.48 766.805 529.952C767.765 529.408 768.885 529.136 770.165 529.136C771.205 529.136 772.173 529.36 773.069 529.808C773.981 530.24 774.717 530.936 775.277 531.896C775.853 532.84 776.141 534.04 776.141 535.496ZM773.069 534.32C773.005 533.52 772.733 532.872 772.253 532.376C771.773 531.88 771.109 531.632 770.261 531.632C768.437 531.632 767.341 532.528 766.973 534.32H773.069Z" fill="#DCB976"/>
</g>
<defs>
<clipPath id="clip0_120_192">
<rect width="1820" height="926" fill="white"/>
</clipPath>
</defs>
</svg>
