<svg width="580" height="207" viewBox="0 0 580 207" fill="none" xmlns="http://www.w3.org/2000/svg">
<g opacity="0.6" filter="url(#filter0_f_35_360)">
<ellipse cx="290" cy="-6.32356" rx="206" ry="13.1454" fill="#DCB976"/>
<path d="M495.5 -6.32356C495.5 -6.1489 495.351 -5.83054 494.67 -5.40288C494.021 -4.99504 493.023 -4.57485 491.666 -4.15163C488.959 -3.30744 484.942 -2.48645 479.737 -1.70117C469.334 -0.131678 454.267 1.28355 435.632 2.47268C398.367 4.85067 346.878 6.32187 290 6.32187C233.122 6.32187 181.633 4.85067 144.368 2.47268C125.733 1.28355 110.666 -0.131678 100.263 -1.70117C95.0581 -2.48645 91.0411 -3.30744 88.334 -4.15163C86.9769 -4.57485 85.9786 -4.99504 85.3296 -5.40288C84.649 -5.83054 84.5 -6.1489 84.5 -6.32356C84.5 -6.49822 84.649 -6.81658 85.3296 -7.24425C85.9786 -7.65208 86.9769 -8.07227 88.334 -8.49549C91.0411 -9.33968 95.0581 -10.1607 100.263 -10.946C110.666 -12.5154 125.733 -13.9307 144.368 -15.1198C181.633 -17.4978 233.122 -18.969 290 -18.969C346.878 -18.969 398.367 -17.4978 435.632 -15.1198C454.267 -13.9307 469.334 -12.5154 479.737 -10.946C484.942 -10.1607 488.959 -9.33968 491.666 -8.49549C493.023 -8.07227 494.021 -7.65208 494.67 -7.24425C495.351 -6.81658 495.5 -6.49822 495.5 -6.32356Z" stroke="black"/>
</g>
<defs>
<filter id="filter0_f_35_360" x="-116" y="-219.469" width="812" height="426.291" filterUnits="userSpaceOnUse" color-interpolation-filters="sRGB">
<feFlood flood-opacity="0" result="BackgroundImageFix"/>
<feBlend mode="normal" in="SourceGraphic" in2="BackgroundImageFix" result="shape"/>
<feGaussianBlur stdDeviation="100" result="effect1_foregroundBlur_35_360"/>
</filter>
</defs>
</svg>
