<svg width="24" height="24" viewBox="0 0 24 24" fill="none" xmlns="http://www.w3.org/2000/svg">
<g clip-path="url(#clip0_35_292)">
<path d="M10.8021 17.7701C10.8944 17.7702 10.9858 17.7885 11.0711 17.824C11.1563 17.8594 11.2337 17.9113 11.2989 17.9767C11.3641 18.042 11.4158 18.1196 11.451 18.205C11.4862 18.2903 11.5042 18.3817 11.5041 18.4741C11.504 18.5664 11.4857 18.6578 11.4502 18.743C11.4148 18.8283 11.3629 18.9057 11.2975 18.9709C11.2321 19.0361 11.1545 19.0877 11.0692 19.1229C10.9839 19.1581 10.8924 19.1762 10.8001 19.1761C10.6137 19.1758 10.435 19.1015 10.3033 18.9695C10.1716 18.8374 10.0978 18.6585 10.0981 18.4721C10.0984 18.2856 10.1727 18.1069 10.3047 17.9753C10.4367 17.8436 10.6157 17.7698 10.8021 17.7701ZM21.8261 13.4231C21.7338 13.423 21.6424 13.4047 21.5571 13.3694C21.4718 13.334 21.3944 13.2821 21.3292 13.2168C21.2639 13.1515 21.2122 13.0739 21.1769 12.9886C21.1417 12.9033 21.1235 12.8119 21.1236 12.7196C21.1237 12.6272 21.1419 12.5358 21.1773 12.4506C21.2127 12.3653 21.2645 12.2878 21.3299 12.2226C21.3952 12.1574 21.4727 12.1057 21.558 12.0704C21.6434 12.0351 21.7348 12.017 21.8271 12.0171C22.0135 12.0172 22.1923 12.0914 22.3241 12.2233C22.4558 12.3553 22.5297 12.5341 22.5296 12.7206C22.5295 12.907 22.4553 13.0858 22.3233 13.2175C22.1914 13.3493 22.0125 13.4232 21.8261 13.4231ZM21.8261 10.5471C21.2497 10.5476 20.697 10.7768 20.2894 11.1844C19.8818 11.592 19.6526 12.1446 19.6521 12.7211C19.6521 12.9541 19.6911 13.1861 19.7671 13.4121L12.5861 17.2351C12.387 16.9459 12.1206 16.7096 11.8098 16.5464C11.499 16.3831 11.1532 16.2979 10.8021 16.2981C9.9731 16.2981 9.2181 16.7731 8.8521 17.5141L2.4011 14.1121C1.7191 13.7541 1.2091 12.6321 1.2631 11.6101C1.2911 11.0771 1.4751 10.6631 1.7561 10.5031C1.9341 10.4031 2.1481 10.4111 2.3761 10.5301L2.4181 10.5531C4.1281 11.4531 9.7221 14.4001 9.9581 14.5091C10.3211 14.6781 10.5231 14.7461 11.1431 14.4521L22.7071 8.43806C22.8771 8.37406 23.0751 8.21106 23.0751 7.96406C23.0751 7.62206 22.7211 7.48706 22.7201 7.48706C22.0621 7.17206 21.0511 6.69906 20.0651 6.23706C17.9571 5.25006 15.5681 4.13206 14.5191 3.58206C13.6131 3.10806 12.8841 3.50806 12.7541 3.58806L12.5021 3.71306C7.7801 6.04806 1.4601 9.17806 1.1001 9.39706C0.457104 9.78906 0.0581037 10.5701 0.00610369 11.5391C-0.0738963 13.0761 0.709104 14.6791 1.8301 15.2661L8.6521 18.7841C8.72725 19.3008 8.98582 19.7733 9.38057 20.1152C9.77532 20.4571 10.2799 20.6455 10.8021 20.6461C11.3724 20.6451 11.9196 20.4204 12.326 20.0202C12.7323 19.62 12.9654 19.0763 12.9751 18.5061L20.4891 14.4331C20.8691 14.7311 21.3421 14.8941 21.8261 14.8941C22.4025 14.8935 22.9552 14.6643 23.3628 14.2567C23.7704 13.8491 23.9996 13.2965 24.0001 12.7201C23.9996 12.1436 23.7704 11.591 23.3628 11.1834C22.9552 10.7758 22.4025 10.5466 21.8261 10.5461" fill="#B3B3B3"/>
</g>
<defs>
<clipPath id="clip0_35_292">
<rect width="24" height="24" fill="white"/>
</clipPath>
</defs>
</svg>
