<svg width="180" height="34" viewBox="0 0 180 34" fill="none" xmlns="http://www.w3.org/2000/svg">
<g clip-path="url(#clip0_35_275)">
<path d="M16.9905 33.5326C12.7203 33.5326 8.45017 33.5326 4.18001 33.5326C3.31483 33.5414 2.46869 33.2785 1.76091 32.7809C1.05313 32.2832 0.519418 31.5759 0.235034 30.7588C0.0741144 30.2973 -0.00523533 29.8113 0.000537949 29.3227C0.000537949 27.3275 0.000537949 25.3321 0.000537949 23.3365C0.000537949 19.8817 0.000537949 16.4286 0.000537949 12.9772C0.000537949 11.1868 0.817388 9.88474 2.41287 9.07631C2.58777 8.98691 2.79441 8.95712 2.9881 8.90918C3.08138 8.88651 3.13385 8.93056 3.13255 9.03874C3.12931 9.31339 3.14033 9.58805 3.12543 9.86207C3.1175 9.89934 3.10188 9.93455 3.07957 9.96544C3.05726 9.99634 3.02876 10.0222 2.99587 10.0415C2.54242 10.3006 2.11813 10.583 1.79554 11.0009C1.37207 11.5447 1.14696 12.2168 1.15747 12.906C1.15747 16.2079 1.15747 19.5094 1.15747 22.8105C1.15747 25.0026 1.14581 27.194 1.16265 29.3861C1.17237 30.5878 1.73853 31.4811 2.79765 32.0524C3.1924 32.2578 3.62949 32.3687 4.07442 32.3763C4.13078 32.3763 4.18649 32.3763 4.24285 32.3763C12.7503 32.3763 21.2579 32.3763 29.7654 32.3763C30.9016 32.3763 31.7903 31.9021 32.4038 30.9408C32.7192 30.4459 32.8462 29.8946 32.8449 29.309C32.8419 27.2854 32.8419 25.2617 32.8449 23.2381V12.9163C32.8449 11.841 32.407 10.9905 31.5312 10.3647C31.2785 10.1837 30.9747 10.0877 30.6638 10.0907H29.9565C29.7045 10.0907 29.5736 9.97089 29.5613 9.71761C29.5496 9.4883 29.5412 9.25834 29.5406 9.02837C29.5302 8.20246 29.5302 7.38172 29.5302 6.5545C29.5302 5.69166 29.5198 4.82817 29.5211 3.96339C29.5211 3.5948 29.3482 3.29423 29.1571 3.00467C28.567 2.11074 27.7261 1.62685 26.6593 1.62555C20.2346 1.61475 13.8099 1.61475 7.38522 1.62555C6.60433 1.63042 5.85655 1.94164 5.30279 2.49225C4.74903 3.04286 4.43355 3.78885 4.42422 4.56971C4.4158 5.23627 4.41839 5.90349 4.42422 6.5707C4.42422 6.71969 4.37888 6.76503 4.22989 6.7605C3.96689 6.75531 3.7026 6.76503 3.4396 6.77799C3.31587 6.78382 3.25692 6.7605 3.25822 6.61669C3.26599 5.90413 3.25174 5.19158 3.26599 4.47902C3.30745 2.3109 5.1316 0.491288 7.3036 0.474445C9.57083 0.457603 11.8381 0.469263 14.1053 0.469263C18.2692 0.469263 22.4327 0.469263 26.5958 0.469263C28.3506 0.469263 29.8528 1.48109 30.4922 3.09147C30.6801 3.5433 30.7789 4.02724 30.783 4.51659C30.7772 5.87692 30.783 7.24115 30.7778 8.60278C30.7778 8.75242 30.8193 8.81396 30.9683 8.85412C31.8209 9.08979 32.5752 9.59352 33.1195 10.2909C33.6638 10.9882 33.9693 11.8422 33.9908 12.7265C34.0051 13.522 33.9954 14.3181 33.9954 15.1143C33.9954 19.8508 34.0025 24.5874 33.9915 29.3239C33.9876 30.9991 33.2258 32.2532 31.7586 33.0642C31.1477 33.4011 30.4799 33.5339 29.7822 33.5339C25.5189 33.5321 21.255 33.5317 16.9905 33.5326Z" fill="white"/>
<path d="M12.9142 18.6466V22.8986H16.7691V18.6343H16.9705C18.3898 18.6343 19.8098 18.6343 21.229 18.6343C21.4813 18.6345 21.7332 18.6561 21.9818 18.6991C22.5596 18.8027 22.9347 19.1467 23.0467 19.7245C23.1842 20.4252 23.182 21.1461 23.0402 21.846C22.901 22.5242 22.4482 22.8708 21.6702 22.8954C20.7957 22.9226 19.9212 22.9135 19.0447 22.9193C18.7824 22.9193 18.52 22.9193 18.2415 22.9193V24.0983H11.4612V18.6466H12.9142ZM18.2473 21.6387C18.2685 21.6448 18.2902 21.6491 18.3121 21.6516C19.2481 21.6516 20.1842 21.6562 21.1202 21.6516C21.4312 21.6516 21.6261 21.4424 21.6339 21.1256C21.6397 20.8853 21.6339 20.6443 21.6339 20.404C21.6339 20.027 21.4396 19.8391 21.0613 19.8385C20.176 19.8385 19.2907 19.8385 18.4054 19.8385C18.3568 19.8385 18.3076 19.843 18.2499 19.8456L18.2473 21.6387Z" fill="#DCB976"/>
<path d="M16.3066 10.0163H5.06304C4.75794 10.0163 4.73462 9.9936 4.73462 9.69238C4.73462 9.4404 4.73786 9.18776 4.73462 8.93578C4.73462 8.77772 4.80587 8.70905 4.95875 8.71359H27.5961C27.745 8.71359 27.826 8.78873 27.8267 8.94031C27.8267 9.24282 27.8267 9.54599 27.8267 9.8472C27.8267 9.95862 27.7794 10.015 27.6667 10.0137H16.3066V10.0163Z" fill="#DCB976"/>
</g>
<path d="M50.1914 24.3027C46.9297 24.3027 45.1035 21.666 45.1035 16.9492C45.1035 12.2422 46.9297 9.60547 50.1914 9.60547C53.4434 9.60547 55.2695 12.2422 55.2695 16.9492C55.2695 21.666 53.4434 24.3027 50.1914 24.3027ZM47.418 16.9492C47.418 17.2422 47.4277 17.5254 47.4375 17.7891L52.6328 13.9805C52.2129 12.3984 51.3828 11.5781 50.1914 11.5781C48.3848 11.5781 47.418 13.4531 47.418 16.9492ZM50.1914 22.3301C51.9883 22.3301 52.9551 20.4551 52.9551 16.9492C52.9551 16.666 52.9453 16.3828 52.9355 16.1191L47.75 19.9375C48.1699 21.5098 48.9902 22.3301 50.1914 22.3301ZM62.5742 20.1914H62.4277L60.0742 24H57.6328L61.1289 18.6777L57.6035 13.3066H60.2402L62.5254 17.0957H62.6719L64.957 13.3066H67.4668L63.9512 18.5801L67.4863 24H64.9277L62.5742 20.1914ZM79.8105 21.9004V24H71.1094V9.9082H73.4434V21.9004H79.8105ZM87.4375 10.9336C86.4707 10.9336 85.7871 10.2988 85.7871 9.38086C85.7871 8.46289 86.4707 7.82812 87.4375 7.82812C88.4141 7.82812 89.0977 8.46289 89.0977 9.38086C89.0977 10.2988 88.4141 10.9336 87.4375 10.9336ZM91.9785 24H82.877V22.1836H86.4023V15.123H82.9941V13.3066H88.6191V22.1836H91.9785V24ZM98.6484 13.1309C100.191 13.1309 101.275 13.8145 101.725 15.0645H101.92V13.3066H104.225V27.584H101.881V22.252H101.686C101.285 23.4824 100.191 24.1855 98.6484 24.1855C96.1875 24.1855 94.6641 22.457 94.6641 19.6055V17.7012C94.6641 14.8594 96.1875 13.1309 98.6484 13.1309ZM99.459 15.123C97.9258 15.123 96.9785 16.168 96.9785 17.8477V19.5273C96.9785 21.1973 97.9258 22.252 99.459 22.252C100.982 22.252 101.93 21.207 101.93 19.5273V17.8477C101.93 16.168 100.982 15.123 99.459 15.123ZM116.617 13.3066V24H114.42V22.1738H114.264C113.717 23.4824 112.535 24.2148 110.963 24.2148C108.639 24.2148 107.379 22.8281 107.379 20.2305V13.3066H109.654V19.6836C109.654 21.4023 110.357 22.2129 111.822 22.2129C113.346 22.2129 114.342 21.1582 114.342 19.5371V13.3066H116.617ZM124.527 10.9336C123.561 10.9336 122.877 10.2988 122.877 9.38086C122.877 8.46289 123.561 7.82812 124.527 7.82812C125.504 7.82812 126.188 8.46289 126.188 9.38086C126.188 10.2988 125.504 10.9336 124.527 10.9336ZM129.068 24H119.967V22.1836H123.492V15.123H120.084V13.3066H125.709V22.1836H129.068V24ZM135.738 24.166C133.287 24.166 131.764 22.4473 131.764 19.5957V17.6914C131.764 14.8496 133.287 13.1211 135.738 13.1211C137.281 13.1211 138.385 13.8145 138.785 15.0547H138.98V9.17578H141.324V24H139.02V22.2422H138.824C138.375 23.4922 137.291 24.166 135.738 24.166ZM136.559 22.1836C138.082 22.1836 139.029 21.1387 139.029 19.459V17.7891C139.029 16.0996 138.082 15.0547 136.559 15.0547C135.025 15.0547 134.078 16.1094 134.078 17.7891V19.459C134.078 21.1387 135.025 22.1836 136.559 22.1836ZM149.254 10.9336C148.287 10.9336 147.604 10.2988 147.604 9.38086C147.604 8.46289 148.287 7.82812 149.254 7.82812C150.23 7.82812 150.914 8.46289 150.914 9.38086C150.914 10.2988 150.23 10.9336 149.254 10.9336ZM153.795 24H144.693V22.1836H148.219V15.123H144.811V13.3066H150.436V22.1836H153.795V24ZM159.391 10.3184H161.617V13.375H165.748V15.2109H161.656V20.709C161.656 21.6562 162.33 22.1836 163.541 22.1836C163.932 22.1836 165.475 22.1738 165.66 22.1543V23.9707C165.484 24 163.688 24.0293 163.365 24.0293C160.553 24.0293 159.391 23.0723 159.391 20.6992V15.2109H156.578V13.375H159.391V10.3184ZM170.719 27.8379C170.348 27.8379 169.918 27.8281 169.811 27.8184V25.9336C169.908 25.9531 170.25 25.9629 170.406 25.9629C171.451 25.9629 172.027 25.5625 172.359 24.5566L172.506 24.0781L168.668 13.3066H171.158L173.775 21.8418H173.922L176.539 13.3066H178.951L175.133 24.2441C174.205 26.9395 173.082 27.8379 170.719 27.8379Z" fill="#DCB976"/>
<defs>
<clipPath id="clip0_35_275">
<rect width="34" height="33.0678" fill="white" transform="translate(0 0.466064)"/>
</clipPath>
</defs>
</svg>
