<svg width="43" height="24" viewBox="0 0 43 24" fill="none" xmlns="http://www.w3.org/2000/svg">
<g clip-path="url(#clip0_35_773)">
<path d="M24.4502 12.0002C24.4502 18.6275 19.1141 24 12.5322 24C5.95021 24 0.61377 18.6263 0.61377 12.0002C0.61377 5.37409 5.9498 0 12.5322 0C19.1146 0 24.4502 5.37288 24.4502 12.0002ZM37.5246 12.0002C37.5246 18.2384 34.8566 23.2975 31.5654 23.2975C28.2742 23.2975 25.6062 18.2384 25.6062 12.0002C25.6062 5.76201 28.2738 0.702941 31.565 0.702941C34.8562 0.702941 37.5242 5.76039 37.5242 12.0002M42.8724 12.0002C42.8724 17.5881 41.9342 22.1208 40.7765 22.1208C39.6189 22.1208 38.6811 17.5893 38.6811 12.0002C38.6811 6.41109 39.6193 1.87964 40.7765 1.87964C41.9338 1.87964 42.8724 6.41069 42.8724 12.0002Z" fill="#DCB976"/>
</g>
<defs>
<clipPath id="clip0_35_773">
<rect width="42.2586" height="24" fill="white" transform="translate(0.61377)"/>
</clipPath>
</defs>
</svg>
