<svg width="31" height="31" viewBox="0 0 31 31" fill="none" xmlns="http://www.w3.org/2000/svg">
<path d="M16.0681 17.6785C15.7415 17.5935 15.4098 17.5752 15.0815 17.6035L12.3365 12.9135C11.9865 12.3169 11.2198 12.1185 10.6265 12.4652C10.0315 12.8135 9.82979 13.5802 10.1781 14.1752L12.9231 18.8669C12.7398 19.1385 12.5915 19.4352 12.5065 19.7602C12.3081 20.5152 12.4165 21.3002 12.8115 21.9735C13.2048 22.6452 13.8365 23.1235 14.5898 23.3219C14.8365 23.3869 15.0865 23.4185 15.3348 23.4185C15.8465 23.4185 16.3498 23.2835 16.8031 23.0185C17.4748 22.6252 17.9531 21.9935 18.1515 21.2402C18.3498 20.4852 18.2415 19.7002 17.8465 19.0269C17.4531 18.3552 16.8215 17.8769 16.0681 17.6785Z" fill="#DCB976"/>
<path d="M15.3294 7.16699C7.97776 7.16699 1.99609 13.1487 1.99609 20.5003C1.99609 20.612 2.00276 20.722 2.01776 20.9603C2.04109 21.6337 2.59443 22.167 3.26776 22.167H9.07943C9.76943 22.167 10.3294 21.607 10.3294 20.917C10.3294 20.227 9.76943 19.667 9.07943 19.667H4.52776C4.95443 14.0803 9.63609 9.66699 15.3294 9.66699C20.9761 9.66699 25.6294 14.0103 26.1128 19.667H21.5794C20.8894 19.667 20.3294 20.227 20.3294 20.917C20.3294 21.607 20.8894 22.167 21.5794 22.167H27.3911C28.0644 22.167 28.6244 21.5053 28.6478 20.832C28.6561 20.722 28.6628 20.612 28.6628 20.5003C28.6628 13.1487 22.6811 7.16699 15.3294 7.16699Z" fill="#DCB976"/>
</svg>
