<svg width="34" height="24" viewBox="0 0 34 24" fill="none" xmlns="http://www.w3.org/2000/svg">
<path d="M15.2957 20.0083C15.4238 20.0085 15.5507 20.0339 15.669 20.0831C15.7873 20.1323 15.8948 20.2043 15.9852 20.295C16.0757 20.3858 16.1474 20.4934 16.1963 20.6119C16.2452 20.7303 16.2702 20.8573 16.27 20.9854C16.2699 21.1135 16.2444 21.2404 16.1952 21.3587C16.146 21.477 16.074 21.5845 15.9833 21.6749C15.8925 21.7654 15.7849 21.8371 15.6664 21.886C15.548 21.9349 15.4211 21.9599 15.2929 21.9597C15.0342 21.9594 14.7861 21.8562 14.6034 21.673C14.4207 21.4897 14.3182 21.2414 14.3186 20.9826C14.319 20.7238 14.4221 20.4758 14.6054 20.2931C14.7886 20.1104 15.0369 20.0079 15.2957 20.0083ZM30.5964 13.9749C30.4682 13.9748 30.3414 13.9495 30.223 13.9004C30.1047 13.8513 29.9972 13.7793 29.9066 13.6886C29.8161 13.598 29.7443 13.4904 29.6953 13.3719C29.6464 13.2535 29.6212 13.1266 29.6213 12.9985C29.6214 12.8704 29.6467 12.7435 29.6959 12.6252C29.745 12.5068 29.8169 12.3993 29.9076 12.3088C29.9983 12.2182 30.1059 12.1464 30.2243 12.0975C30.3427 12.0485 30.4696 12.0234 30.5977 12.0235C30.8565 12.0237 31.1046 12.1266 31.2875 12.3097C31.4703 12.4929 31.5729 12.7411 31.5728 12.9999C31.5726 13.2587 31.4696 13.5068 31.2865 13.6896C31.1034 13.8725 30.8551 13.9751 30.5964 13.9749ZM30.5964 9.9832C29.7963 9.98393 29.0293 10.3021 28.4636 10.8678C27.8978 11.4335 27.5797 12.2005 27.579 13.0006C27.579 13.324 27.6331 13.646 27.7386 13.9596L17.7718 19.2657C17.4954 18.8645 17.1256 18.5364 16.6943 18.3098C16.2629 18.0833 15.7829 17.965 15.2957 17.9652C14.1451 17.9652 13.0972 18.6245 12.5892 19.653L3.63562 14.9312C2.68905 14.4343 1.9812 12.8771 2.05615 11.4586C2.09501 10.7188 2.35039 10.1442 2.7404 9.92213C2.98745 9.78333 3.28447 9.79444 3.60092 9.9596L3.65922 9.99152C6.03259 11.2407 13.7967 15.3309 14.1243 15.4822C14.6281 15.7168 14.9085 15.8112 15.769 15.4031L31.8191 7.05603C32.0551 6.9672 32.3299 6.74097 32.3299 6.39815C32.3299 5.92347 31.8386 5.7361 31.8372 5.7361C30.9239 5.2989 29.5207 4.6424 28.1522 4.00118C25.2264 2.63128 21.9106 1.07956 20.4547 0.316196C19.1972 -0.341688 18.1854 0.213488 18.005 0.324523L17.6552 0.498016C11.1013 3.73886 2.32957 8.08311 1.82991 8.38707C0.937466 8.93114 0.383678 10.0151 0.311505 11.36C0.20047 13.4933 1.28723 15.7182 2.84311 16.5329L12.3116 21.4157C12.4159 22.1329 12.7748 22.7887 13.3227 23.2632C13.8706 23.7377 14.5709 23.9992 15.2957 24C16.0873 23.9987 16.8467 23.6867 17.4107 23.1313C17.9747 22.5759 18.2982 21.8213 18.3117 21.0298L28.7407 15.3767C29.2681 15.7903 29.9246 16.0166 30.5964 16.0166C31.3964 16.0158 32.1634 15.6977 32.7291 15.132C33.2949 14.5663 33.613 13.7992 33.6137 12.9992C33.613 12.1992 33.2949 11.4321 32.7291 10.8664C32.1634 10.3007 31.3964 9.98254 30.5964 9.98181" fill="#DCB976"/>
</svg>
