<svg width="774" height="2595" viewBox="0 0 774 2595" fill="none" xmlns="http://www.w3.org/2000/svg">
<rect y="102" width="774" height="1" fill="#DCB976" fill-opacity="0.1"/>
<rect y="204" width="774" height="1" fill="#DCB976" fill-opacity="0.1"/>
<rect y="306" width="774" height="1" fill="#DCB976" fill-opacity="0.1"/>
<rect y="408" width="774" height="1" fill="#DCB976" fill-opacity="0.1"/>
<rect y="510" width="774" height="1" fill="#DCB976" fill-opacity="0.1"/>
<rect y="612" width="774" height="1" fill="#DCB976" fill-opacity="0.1"/>
<rect y="714" width="774" height="1" fill="#DCB976" fill-opacity="0.1"/>
<rect y="816" width="774" height="1" fill="#DCB976" fill-opacity="0.1"/>
<rect y="918" width="774" height="1" fill="#DCB976" fill-opacity="0.1"/>
<rect y="1020" width="774" height="1" fill="#DCB976" fill-opacity="0.1"/>
<rect y="1122" width="774" height="1" fill="#DCB976" fill-opacity="0.1"/>
<rect y="1224" width="774" height="1" fill="#DCB976" fill-opacity="0.1"/>
<rect x="114.5" width="1298" height="0.999943" transform="rotate(90 114.5 0)" fill="#DCB976" fill-opacity="0.1"/>
<rect x="205.5" width="1298" height="0.999943" transform="rotate(90 205.5 0)" fill="#DCB976" fill-opacity="0.1"/>
<rect x="296.5" width="1298" height="0.999943" transform="rotate(90 296.5 0)" fill="#DCB976" fill-opacity="0.1"/>
<rect x="387.5" width="1298" height="0.999943" transform="rotate(90 387.5 0)" fill="#DCB976" fill-opacity="0.1"/>
<rect x="478.5" width="1298" height="0.999943" transform="rotate(90 478.5 0)" fill="#DCB976" fill-opacity="0.1"/>
<rect x="569.5" width="1298" height="0.999943" transform="rotate(90 569.5 0)" fill="#DCB976" fill-opacity="0.1"/>
<rect x="660.5" width="1298" height="0.999943" transform="rotate(90 660.5 0)" fill="#DCB976" fill-opacity="0.1"/>
<rect y="1297" width="774" height="1" fill="#DCB976" fill-opacity="0.1"/>
<rect y="1399" width="774" height="1" fill="#DCB976" fill-opacity="0.1"/>
<rect y="1501" width="774" height="1" fill="#DCB976" fill-opacity="0.1"/>
<rect y="1603" width="774" height="1" fill="#DCB976" fill-opacity="0.1"/>
<rect y="1705" width="774" height="1" fill="#DCB976" fill-opacity="0.1"/>
<rect y="1807" width="774" height="1" fill="#DCB976" fill-opacity="0.1"/>
<rect y="1909" width="774" height="1" fill="#DCB976" fill-opacity="0.1"/>
<rect y="2011" width="774" height="1" fill="#DCB976" fill-opacity="0.1"/>
<rect y="2113" width="774" height="1" fill="#DCB976" fill-opacity="0.1"/>
<rect y="2215" width="774" height="1" fill="#DCB976" fill-opacity="0.1"/>
<rect y="2317" width="774" height="1" fill="#DCB976" fill-opacity="0.1"/>
<rect y="2419" width="774" height="1" fill="#DCB976" fill-opacity="0.1"/>
<rect x="114.5" y="1297" width="1298" height="0.999943" transform="rotate(90 114.5 1297)" fill="#DCB976" fill-opacity="0.1"/>
<rect x="205.5" y="1297" width="1298" height="0.999943" transform="rotate(90 205.5 1297)" fill="#DCB976" fill-opacity="0.1"/>
<rect x="296.5" y="1297" width="1298" height="0.999943" transform="rotate(90 296.5 1297)" fill="#DCB976" fill-opacity="0.1"/>
<rect x="387.5" y="1297" width="1298" height="0.999943" transform="rotate(90 387.5 1297)" fill="#DCB976" fill-opacity="0.1"/>
<rect x="478.5" y="1297" width="1298" height="0.999943" transform="rotate(90 478.5 1297)" fill="#DCB976" fill-opacity="0.1"/>
<rect x="569.5" y="1297" width="1298" height="0.999943" transform="rotate(90 569.5 1297)" fill="#DCB976" fill-opacity="0.1"/>
<rect x="660.5" y="1297" width="1298" height="0.999943" transform="rotate(90 660.5 1297)" fill="#DCB976" fill-opacity="0.1"/>
</svg>
