<svg width="1818" height="1351" viewBox="0 0 1818 1351" fill="none" xmlns="http://www.w3.org/2000/svg">
<rect y="102" width="1818" height="1" fill="#DCB976" fill-opacity="0.1"/>
<rect y="204" width="1818" height="1" fill="#DCB976" fill-opacity="0.1"/>
<rect y="306" width="1818" height="1" fill="#DCB976" fill-opacity="0.1"/>
<rect y="408" width="1818" height="1" fill="#DCB976" fill-opacity="0.1"/>
<rect y="510" width="1818" height="1" fill="#DCB976" fill-opacity="0.1"/>
<rect y="612" width="1818" height="1" fill="#DCB976" fill-opacity="0.1"/>
<rect y="714" width="1818" height="1" fill="#DCB976" fill-opacity="0.1"/>
<rect y="816" width="1818" height="1" fill="#DCB976" fill-opacity="0.1"/>
<rect y="918" width="1818" height="1" fill="#DCB976" fill-opacity="0.1"/>
<rect y="1020" width="1818" height="1" fill="#DCB976" fill-opacity="0.1"/>
<rect y="1122" width="1818" height="1" fill="#DCB976" fill-opacity="0.1"/>
<rect y="1224" width="1818" height="1" fill="#DCB976" fill-opacity="0.1"/>
<rect x="201" width="1351" height="0.999941" transform="rotate(90 201 0)" fill="#DCB976" fill-opacity="0.1"/>
<rect x="358.444" width="1351" height="0.999941" transform="rotate(90 358.444 0)" fill="#DCB976" fill-opacity="0.1"/>
<rect x="515.889" width="1351" height="0.999941" transform="rotate(90 515.889 0)" fill="#DCB976" fill-opacity="0.1"/>
<rect x="673.333" width="1351" height="0.999941" transform="rotate(90 673.333 0)" fill="#DCB976" fill-opacity="0.1"/>
<rect x="830.778" width="1351" height="0.999941" transform="rotate(90 830.778 0)" fill="#DCB976" fill-opacity="0.1"/>
<rect x="988.222" width="1351" height="0.999941" transform="rotate(90 988.222 0)" fill="#DCB976" fill-opacity="0.1"/>
<rect x="1145.67" width="1351" height="0.999941" transform="rotate(90 1145.67 0)" fill="#DCB976" fill-opacity="0.1"/>
<rect x="1303.11" width="1351" height="0.999941" transform="rotate(90 1303.11 0)" fill="#DCB976" fill-opacity="0.1"/>
<rect x="1460.56" width="1351" height="0.999941" transform="rotate(90 1460.56 0)" fill="#DCB976" fill-opacity="0.1"/>
<rect x="1618" width="1351" height="0.999941" transform="rotate(90 1618 0)" fill="#DCB976" fill-opacity="0.1"/>
</svg>
