<svg width="18" height="18" viewBox="0 0 18 18" fill="none" xmlns="http://www.w3.org/2000/svg">
<path fill-rule="evenodd" clip-rule="evenodd" d="M0.43597 2.18404C5.96046e-08 3.03968 0 4.15979 0 6.4V11.6C0 13.8402 5.96046e-08 14.9603 0.43597 15.816C0.81947 16.5686 1.43139 17.1805 2.18404 17.564C3.03968 18 4.15979 18 6.4 18H11.6C13.8402 18 14.9603 18 15.816 17.564C16.5686 17.1805 17.1805 16.5686 17.564 15.816C18 14.9603 18 13.8402 18 11.6V6.4C18 4.15979 18 3.03968 17.564 2.18404C17.1805 1.43139 16.5686 0.81947 15.816 0.43597C14.9603 5.96046e-08 13.8402 0 11.6 0H6.4C4.15979 0 3.03968 5.96046e-08 2.18404 0.43597C1.43139 0.81947 0.81947 1.43139 0.43597 2.18404ZM13.7071 9.7071L9.7071 13.7071C9.3166 14.0976 8.6834 14.0976 8.2929 13.7071C7.9024 13.3166 7.9024 12.6834 8.2929 12.2929L10.5858 10H5C4.44772 10 4 9.5523 4 9C4 8.4477 4.44772 8 5 8H10.5858L8.2929 5.70711C7.9024 5.31658 7.9024 4.68342 8.2929 4.29289C8.6834 3.90237 9.3166 3.90237 9.7071 4.29289L13.7071 8.2929C14.0976 8.6834 14.0976 9.3166 13.7071 9.7071Z" fill="#111111"/>
</svg>
