<svg width="40" height="41" viewBox="0 0 40 41" fill="none" xmlns="http://www.w3.org/2000/svg">
<g clip-path="url(#clip0_35_363)">
<path d="M19.9992 15.2442C23.6811 15.2442 26.6659 12.2595 26.6659 8.57755C26.6659 4.89566 23.6811 1.91089 19.9992 1.91089C16.3173 1.91089 13.3325 4.89566 13.3325 8.57755C13.3325 12.2595 16.3173 15.2442 19.9992 15.2442Z" stroke="#DCB976" stroke-width="3.33333" stroke-linecap="round" stroke-linejoin="round"/>
<path d="M19.9993 6.91089V10.2442" stroke="#DCB976" stroke-width="3.33333" stroke-linecap="round" stroke-linejoin="round"/>
<path d="M11.1106 29.689H28.8884L27.2973 36.0534C26.9262 37.5379 25.5928 38.5779 24.0639 38.5779H15.935C14.4062 38.5779 13.0728 37.5379 12.7017 36.0534L11.1106 29.689Z" stroke="#DCB976" stroke-width="3.33333" stroke-linecap="round" stroke-linejoin="round"/>
<path d="M18.0061 22.4888C17.7105 22.6777 13.5727 25.2488 9.16607 23.231C5.86385 21.7199 4.67274 18.6688 4.44385 18.0399C4.79051 17.9266 11.1505 15.9866 16.0416 20.2444C19.6527 23.3888 19.9572 27.7355 19.9994 28.5777V29.6888" stroke="#DCB976" stroke-width="3.33333" stroke-linecap="round" stroke-linejoin="round"/>
<path d="M21.9926 22.4888C22.2882 22.6777 26.4259 25.2488 30.8326 23.231C34.1348 21.7199 35.3259 18.6688 35.5548 18.0399C35.2082 17.9266 28.8482 15.9866 23.957 20.2444C20.3459 23.3888 20.0415 27.7355 19.9993 28.5777V29.6888" stroke="#DCB976" stroke-width="3.33333" stroke-linecap="round" stroke-linejoin="round"/>
</g>
<defs>
<clipPath id="clip0_35_363">
<rect width="40" height="40" fill="white" transform="translate(0 0.244629)"/>
</clipPath>
</defs>
</svg>
