<svg width="40" height="41" viewBox="0 0 40 41" fill="none" xmlns="http://www.w3.org/2000/svg">
<path d="M17.411 16.2625L4.85764 28.8158C3.04875 30.6269 3.04875 33.5758 4.85764 35.3869C5.73542 36.2647 6.90209 36.7469 8.14431 36.7469C9.38653 36.7469 10.5532 36.2647 11.431 35.3869L23.9843 22.8336L17.411 16.2625Z" fill="#DCB976"/>
<path d="M37.1939 15.7983L26.6383 5.2427C26.0228 4.62714 25.2072 4.23159 24.3428 4.13159L15.0317 3.03603C14.525 2.96936 14.0183 3.15159 13.6583 3.51159L12.6939 4.47603C12.0428 5.12714 12.0428 6.1827 12.6939 6.83381L29.4272 23.5694C30.185 24.3271 31.1806 24.7071 32.1761 24.7071C33.1717 24.7071 34.1672 24.3294 34.925 23.5694L37.1939 21.3005C37.9272 20.5649 38.3339 19.5894 38.3339 18.5494C38.3339 17.5094 37.9295 16.5316 37.1939 15.7983Z" fill="#DCB976"/>
<rect x="20" y="32.7446" width="19" height="4" rx="2" fill="#DCB976"/>
</svg>
