<svg width="29" height="24" viewBox="0 0 29 24" fill="none" xmlns="http://www.w3.org/2000/svg">
<path d="M26.7644 0.0980734L0.747999 10.1656C0.73252 10.1716 0.717515 10.1787 0.703112 10.187C0.492144 10.3065 -0.980145 11.207 1.09587 12.0144L1.11719 12.0223L7.31214 14.0237C7.35941 14.039 7.40945 14.0439 7.45878 14.0378C7.50811 14.0318 7.55554 14.0151 7.59773 13.9889L22.9631 4.40216C23.0007 4.37865 23.0427 4.36282 23.0865 4.35559C23.3003 4.32024 23.9158 4.25403 23.5264 4.74835C23.0859 5.30944 12.5908 14.7144 11.426 15.7574C11.3589 15.8177 11.3173 15.9014 11.3099 15.9914L10.8015 22.0511C10.8015 22.1128 10.8158 22.1737 10.8433 22.2289C10.8709 22.2842 10.911 22.3322 10.9603 22.3692C11.0304 22.4134 11.1127 22.4338 11.1953 22.4275C11.2778 22.4213 11.3561 22.3886 11.4187 22.3345L15.0995 19.0448C15.1576 18.9929 15.2318 18.9624 15.3096 18.9584C15.3875 18.9544 15.4644 18.9772 15.5276 19.0229L21.9492 23.6856L21.9699 23.6996C22.1254 23.7955 23.8041 24.7724 24.2889 22.5909L28.7215 1.51369C28.7277 1.44692 28.7877 0.713023 28.2631 0.279304C27.7121 -0.174053 26.9322 0.0548697 26.8149 0.0795575C26.7976 0.0843728 26.7807 0.0905646 26.7644 0.0980734Z" fill="#DCB976"/>
</svg>
