<svg width="23" height="23" viewBox="0 0 23 23" fill="none" xmlns="http://www.w3.org/2000/svg">
<path fill-rule="evenodd" clip-rule="evenodd" d="M11.25 5.00012C11.9404 5.00012 12.5 5.55977 12.5 6.25012V10.0001H16.25C16.9404 10.0001 17.5 10.5597 17.5 11.2501C17.5 11.9405 16.9404 12.5001 16.25 12.5001H12.5V16.2501C12.5 16.9405 11.9404 17.5001 11.25 17.5001C10.5596 17.5001 10 16.9405 10 16.2501V12.5001H6.25C5.55965 12.5001 5 11.9405 5 11.2501C5 10.5597 5.55965 10.0001 6.25 10.0001H10V6.25012C10 5.55977 10.5596 5.00012 11.25 5.00012Z" fill="#B3B3B3"/>
<path fill-rule="evenodd" clip-rule="evenodd" d="M9.1965 3.28639e-07H13.3035C14.6583 -1.21714e-05 15.7509 -2.45683e-05 16.6357 0.0722754C17.5469 0.146713 18.3471 0.303975 19.0875 0.681213C20.2635 1.28041 21.2196 2.23655 21.8188 3.41256C22.196 4.15293 22.3533 4.95316 22.4277 5.86423C22.5 6.74906 22.5 7.84174 22.5 9.1965V13.3035C22.5 14.6583 22.5 15.751 22.4277 16.6357C22.3533 17.5469 22.196 18.3471 21.8188 19.0875C21.2196 20.2635 20.2635 21.2196 19.0875 21.8188C18.3471 22.196 17.5469 22.3533 16.6357 22.4277C15.751 22.5 14.6583 22.5 13.3035 22.5H9.1965C7.84174 22.5 6.74906 22.5 5.86423 22.4277C4.95316 22.3533 4.15293 22.196 3.41256 21.8188C2.23655 21.2196 1.28041 20.2635 0.681213 19.0875C0.303975 18.3471 0.146713 17.5469 0.0722754 16.6357C-2.45683e-05 15.7509 -1.21714e-05 14.6583 3.28639e-07 13.3035V9.1965C-1.21714e-05 7.84176 -2.45683e-05 6.74908 0.0722754 5.86423C0.146713 4.95316 0.303975 4.15293 0.681213 3.41256C1.28041 2.23655 2.23655 1.28041 3.41256 0.681213C4.15293 0.303975 4.95316 0.146713 5.86423 0.0722754C6.74908 -2.45683e-05 7.84176 -1.21714e-05 9.1965 3.28639e-07ZM6.0678 2.56398C5.31134 2.62578 4.87673 2.74099 4.54754 2.90873C3.84193 3.26825 3.26825 3.84193 2.90873 4.54754C2.74099 4.87673 2.62578 5.31134 2.56398 6.0678C2.50098 6.83885 2.5 7.82924 2.5 9.25V13.25C2.5 14.6708 2.50098 15.6611 2.56398 16.4322C2.62578 17.1886 2.74099 17.6232 2.90873 17.9525C3.26825 18.6581 3.84193 19.2318 4.54754 19.5913C4.87673 19.759 5.31134 19.8742 6.0678 19.936C6.83885 19.999 7.82924 20 9.25 20H13.25C14.6708 20 15.6611 19.999 16.4322 19.936C17.1886 19.8742 17.6232 19.759 17.9525 19.5913C18.6581 19.2318 19.2318 18.6581 19.5913 17.9525C19.759 17.6232 19.8742 17.1886 19.936 16.4322C19.999 15.6611 20 14.6708 20 13.25V9.25C20 7.82924 19.999 6.83885 19.936 6.0678C19.8742 5.31134 19.759 4.87673 19.5913 4.54754C19.2318 3.84193 18.6581 3.26825 17.9525 2.90873C17.6232 2.74099 17.1886 2.62578 16.4322 2.56398C15.6611 2.50098 14.6708 2.5 13.25 2.5H9.25C7.82924 2.5 6.83885 2.50098 6.0678 2.56398Z" fill="#B3B3B3"/>
</svg>
