<svg width="40" height="41" viewBox="0 0 40 41" fill="none" xmlns="http://www.w3.org/2000/svg">
<path d="M29.4442 6.35474H10.5553C8.10069 6.35474 6.11084 8.34458 6.11084 10.7992V29.6881C6.11084 32.1427 8.10069 34.1325 10.5553 34.1325H29.4442C31.8988 34.1325 33.8886 32.1427 33.8886 29.6881V10.7992C33.8886 8.34458 31.8988 6.35474 29.4442 6.35474Z" stroke="#DCB976" stroke-width="3.33333" stroke-linecap="round" stroke-linejoin="round"/>
<path d="M10.5552 34.1326V37.4659" stroke="#DCB976" stroke-width="3.33333" stroke-linecap="round" stroke-linejoin="round"/>
<path d="M29.4443 34.1326V37.4659" stroke="#DCB976" stroke-width="3.33333" stroke-linecap="round" stroke-linejoin="round"/>
<path d="M19.9996 24.688C22.4542 24.688 24.4441 22.6981 24.4441 20.2435C24.4441 17.7889 22.4542 15.7991 19.9996 15.7991C17.545 15.7991 15.5552 17.7889 15.5552 20.2435C15.5552 22.6981 17.545 24.688 19.9996 24.688Z" stroke="#DCB976" stroke-width="3.33333" stroke-linecap="round" stroke-linejoin="round"/>
<path d="M23.1421 17.1013L26.6665 13.5769" stroke="#DCB976" stroke-width="3.33333" stroke-linecap="round" stroke-linejoin="round"/>
<path d="M23.1421 23.386L26.6665 26.9104" stroke="#DCB976" stroke-width="3.33333" stroke-linecap="round" stroke-linejoin="round"/>
<path d="M16.8575 23.386L13.333 26.9104" stroke="#DCB976" stroke-width="3.33333" stroke-linecap="round" stroke-linejoin="round"/>
<path d="M16.8575 17.1013L13.333 13.5769" stroke="#DCB976" stroke-width="3.33333" stroke-linecap="round" stroke-linejoin="round"/>
</svg>
