<svg width="299" height="218" viewBox="0 0 299 218" fill="none" xmlns="http://www.w3.org/2000/svg">
<path d="M245.99 13.6323H81.9417C65.3731 13.6323 51.9417 27.0638 51.9417 43.6324V180.967C51.9417 197.536 65.3731 210.967 81.9417 210.967H245.99C262.559 210.967 275.99 197.536 275.99 180.967V43.6323C275.99 27.0638 262.559 13.6323 245.99 13.6323Z" fill="#DCB976" fill-opacity="0.05"/>
<path d="M185.084 98.0386H83.5276C75.2433 98.0386 68.5276 104.754 68.5276 113.039V180.088C68.5276 188.373 75.2433 195.088 83.5276 195.088H185.084C193.368 195.088 200.084 188.373 200.084 180.088V113.039C200.084 104.754 193.368 98.0386 185.084 98.0386Z" fill="#483E2C"/>
<g clip-path="url(#clip0_35_512)">
<path d="M133.528 149.538C138.59 149.538 142.694 145.434 142.694 140.372C142.694 135.309 138.59 131.205 133.528 131.205C128.465 131.205 124.361 135.309 124.361 140.372C124.361 145.434 128.465 149.538 133.528 149.538Z" fill="#DCB976"/>
<path d="M148.994 165.308C147.421 158.102 140.914 152.872 133.528 152.872C126.141 152.872 119.634 158.102 118.061 165.308C117.431 168.188 119.221 171.138 122.141 172.018C125.834 173.135 129.668 173.705 133.528 173.705C137.388 173.705 141.221 173.138 144.914 172.018C147.834 171.135 149.624 168.188 148.994 165.308Z" fill="#DCB976"/>
<path d="M117.694 135.372C121.836 135.372 125.194 132.014 125.194 127.872C125.194 123.73 121.836 120.372 117.694 120.372C113.552 120.372 110.194 123.73 110.194 127.872C110.194 132.014 113.552 135.372 117.694 135.372Z" fill="#DCB976"/>
<path d="M123.588 150.445C120.981 147.875 119.361 144.312 119.361 140.372C119.361 139.819 119.461 139.295 119.524 138.759C119.084 138.735 118.651 138.709 118.171 138.695L117.694 138.685C111.081 138.685 105.321 143.155 103.694 149.562C102.948 152.499 104.798 155.595 107.814 156.469C109.858 157.062 112.594 157.712 115.794 157.815C117.711 154.719 120.414 152.182 123.588 150.445Z" fill="#DCB976"/>
<path d="M149.361 135.372C153.503 135.372 156.861 132.014 156.861 127.872C156.861 123.73 153.503 120.372 149.361 120.372C145.219 120.372 141.861 123.73 141.861 127.872C141.861 132.014 145.219 135.372 149.361 135.372Z" fill="#DCB976"/>
<path d="M143.468 150.445C146.074 147.875 147.694 144.312 147.694 140.372C147.694 139.819 147.594 139.295 147.531 138.759C147.971 138.735 148.404 138.709 148.884 138.695L149.361 138.685C155.974 138.685 161.734 143.155 163.361 149.562C164.108 152.499 162.258 155.595 159.241 156.469C157.198 157.062 154.461 157.712 151.261 157.815C149.344 154.719 146.641 152.182 143.468 150.445Z" fill="#DCB976"/>
</g>
<path d="M91.0054 64.7616H77.4754C76.926 64.7616 76.4988 64.3343 76.4988 63.7849V38.1084C76.4988 37.5591 76.926 37.1318 77.4754 37.1318H89.4184C89.9678 37.1318 90.395 37.5591 90.395 38.1084C90.395 38.6578 89.9678 39.085 89.4184 39.085H78.452V62.8083H91.0054C91.5547 62.8083 91.982 63.2356 91.982 63.7849C91.982 64.3343 91.5547 64.7616 91.0054 64.7616Z" fill="#DCB976"/>
<path d="M218.655 190.621H206.712C206.163 190.621 205.736 190.194 205.736 189.645C205.736 189.095 206.163 188.668 206.712 188.668H217.679V164.945H205.125C204.576 164.945 204.149 164.518 204.149 163.968C204.149 163.419 204.576 162.992 205.125 162.992H218.655C219.205 162.992 219.632 163.419 219.632 163.968V189.645C219.632 190.194 219.205 190.621 218.655 190.621Z" fill="#DCB976"/>
<path d="M275.97 135.423V137.702C275.746 137.702 275.502 137.62 275.319 137.457L202.643 72.5743H143.111C142.786 72.5743 142.501 72.4116 142.318 72.1674C142.135 71.9029 142.094 71.5774 142.196 71.2722L157.618 28.7697L158.31 26.8775L163.111 13.6323H165.187L144.515 70.6212H203.03C203.274 70.6212 203.498 70.7025 203.681 70.8653L275.97 135.423Z" fill="white"/>
<path d="M120.324 53.0426H98.8182C98.2688 53.0426 97.8416 52.6153 97.8416 52.066C97.8416 51.5166 98.2688 51.0894 98.8182 51.0894H120.303C120.853 51.0894 121.28 51.5166 121.28 52.066C121.28 52.6153 120.853 53.0426 120.324 53.0426Z" fill="#DCB976"/>
<path d="M177.638 53.0426H160.059C159.51 53.0426 159.083 52.6153 159.083 52.066C159.083 51.5166 159.51 51.0894 160.059 51.0894H177.638C178.188 51.0894 178.615 51.5166 178.615 52.066C178.615 52.6153 178.167 53.0426 177.638 53.0426Z" fill="#DCB976"/>
<path d="M255.787 53.0426H227.14C226.591 53.0426 226.163 52.6153 226.163 52.066C226.163 51.5166 226.591 51.0894 227.14 51.0894H255.787C256.336 51.0894 256.764 51.5166 256.764 52.066C256.764 52.6153 256.336 53.0426 255.787 53.0426Z" fill="#DCB976"/>
<path d="M259.368 99.2681H248.95C248.401 99.2681 247.974 98.8409 247.974 98.2915C247.974 97.7422 248.401 97.3149 248.95 97.3149H259.368C259.917 97.3149 260.344 97.7422 260.344 98.2915C260.344 98.8409 259.917 99.2681 259.368 99.2681Z" fill="#DCB976"/>
<path d="M196.519 65.4126C196.397 65.4126 196.275 65.3923 196.153 65.3313C195.644 65.1278 195.42 64.5581 195.624 64.0495L206.692 37.3557C206.895 36.847 207.465 36.6232 207.974 36.8267C208.482 37.0301 208.706 37.5998 208.503 38.1085L197.435 64.8023C197.272 65.1888 196.906 65.4126 196.519 65.4126Z" fill="#DCB976"/>
<path d="M236.906 137.539H207.099C206.55 137.539 206.122 137.111 206.122 136.562C206.122 136.013 206.55 135.585 207.099 135.585H236.906C237.455 135.585 237.882 136.013 237.882 136.562C237.882 137.111 237.435 137.539 236.906 137.539Z" fill="#DCB976"/>
<path d="M244.23 146.654C244.108 146.654 243.966 146.633 243.844 146.572C243.356 146.369 243.111 145.799 243.315 145.29L251.779 125.107C251.982 124.619 252.552 124.375 253.061 124.578C253.549 124.782 253.793 125.351 253.59 125.86L245.126 146.043C244.963 146.43 244.617 146.654 244.23 146.654Z" fill="#DCB976"/>
<path d="M36.2954 189.156C36.1326 189.156 35.9699 189.115 35.8071 189.034L20.8325 180.57C20.5477 180.407 20.3646 180.102 20.3442 179.777C20.3239 179.451 20.4867 179.126 20.7512 178.922L37.0279 167.203C37.4755 166.898 38.0858 166.979 38.391 167.427C38.6962 167.874 38.6148 168.485 38.1672 168.79L23.1316 179.614L36.7837 187.325C37.2517 187.59 37.4144 188.18 37.1499 188.648C36.9668 188.973 36.6413 189.156 36.2954 189.156Z" fill="#DCB976"/>
<path d="M157.679 29.5835L146.387 13.6323H148.788L158.696 27.4879L158.961 27.8338C159.286 28.2814 157.842 29.8073 157.679 29.5835Z" fill="white"/>
<path d="M278.513 0H235.4C224.354 0 215.4 8.95431 215.4 20V24.9034C215.4 35.9491 224.354 44.9034 235.4 44.9034H278.513C289.559 44.9034 298.513 35.949 298.513 24.9034V20C298.513 8.9543 289.559 0 278.513 0Z" fill="#DCB976"/>
<path d="M229.846 29.1559H221.606C221.057 29.1559 220.63 28.7286 220.63 28.1793C220.63 27.6299 221.057 27.2027 221.606 27.2027H229.846C230.396 27.2027 230.823 27.6299 230.823 28.1793C230.823 28.7286 230.396 29.1559 229.846 29.1559Z" fill="white"/>
<path d="M238.452 36.7855H230.212C229.663 36.7855 229.236 36.3583 229.236 35.8089C229.236 35.2596 229.663 34.8323 230.212 34.8323H238.452C239.002 34.8323 239.429 35.2596 239.429 35.8089C239.429 36.3583 239.002 36.7855 238.452 36.7855Z" fill="white"/>
<path d="M288.605 30.9463H280.365C279.816 30.9463 279.388 30.519 279.388 29.9697C279.388 29.4203 279.816 28.993 280.365 28.993H288.605C289.154 28.993 289.582 29.4203 289.582 29.9697C289.582 30.4986 289.134 30.9463 288.605 30.9463Z" fill="white"/>
<path d="M262.684 36.1956H254.444C253.895 36.1956 253.468 35.7683 253.468 35.219C253.468 34.6696 253.895 34.2424 254.444 34.2424H262.684C263.234 34.2424 263.661 34.6696 263.661 35.219C263.661 35.7683 263.234 36.1956 262.684 36.1956Z" fill="white"/>
<path d="M284.576 14.6726C284.332 14.0215 283.742 13.7571 283.193 13.7774C281.464 9.72857 279.327 5.86284 277.191 1.95643C276.825 1.30537 276.479 0.654303 276.133 0.00323486H245.573C244.943 0.654303 244.312 1.32571 243.661 1.95643C240.711 4.90659 238.188 8.284 234.953 10.9697C234.79 11.0917 234.648 11.1935 234.485 11.2952C225.126 21.1833 222.623 24.5404 232.288 22.7092C236.662 19.8201 240.548 16.5444 245.248 14.164C247.018 13.2687 248.646 14.6116 248.91 16.0765C248.93 16.0968 248.951 16.1172 248.971 16.1579C250.965 19.2097 252.084 22.6889 253.407 26.046C253.468 26.2087 253.508 26.3715 253.508 26.5343C255.36 30.2169 256.764 33.6553 259.856 34.8354C261.484 32.3939 258.595 18.0093 258.412 17.7042C258.371 17.6228 258.33 17.5414 258.269 17.46C258.249 17.4397 257.557 15.7102 258.229 15.0388C258.859 14.4285 259.978 14.3674 260.589 15.0388C261.077 15.5678 266.204 26.0867 266.469 30.0134C266.896 29.9931 267.343 30.0948 267.791 30.3593C268.544 30.8069 269.317 31.0917 270.07 31.2342C270.436 30.4814 271.27 30.0134 272.125 29.9117C273.081 29.81 274.017 29.8506 274.973 29.81C277.15 28.3451 279.307 26.2087 281.321 23.2179C281.484 23.1975 281.647 23.1162 281.809 23.0144C284.475 21.2647 285.756 17.7652 284.576 14.6726Z" fill="#DCB976"/>
<path d="M259.388 36.1989C258.981 36.1989 258.493 36.0768 257.923 35.7716C255.584 34.4695 253.651 29.8103 251.616 24.8459C249.907 20.7157 247.567 15.0595 245.879 14.8764C244.231 14.7136 240.385 17.501 237.313 19.7391C232.572 23.2182 228.829 25.9445 226.733 24.1948C226.001 23.5844 225.614 22.8113 225.594 21.9364C225.512 18.7625 231.982 12.5163 244.292 1.04119C244.678 0.674968 245.309 0.695316 245.675 1.08189C246.041 1.46846 246.021 2.09918 245.634 2.46541C235.482 11.9262 227.486 19.4542 227.547 21.8754C227.547 22.0992 227.608 22.3637 227.995 22.6892C228.91 23.4624 233.468 20.1256 236.174 18.1521C240.039 15.324 243.702 12.6587 246.102 12.9232C248.951 13.2487 251.026 18.2742 253.427 24.0931C255.177 28.3047 257.15 33.086 258.88 34.0422C259.205 34.2253 259.368 34.2253 259.409 34.2253C259.429 34.205 261.728 32.6383 256.031 11.2752C255.889 10.7462 256.194 10.2172 256.723 10.0748C257.252 9.93235 257.781 10.2375 257.923 10.7665C263.905 33.208 261.525 35.0595 260.609 35.7716C260.304 35.9954 259.917 36.1989 259.388 36.1989Z" fill="#201000"/>
<path d="M269.297 33.0246C269.113 33.0246 268.93 33.0043 268.747 32.9636C266.224 32.3939 265.105 28.0602 264.597 24.5404C263.844 19.3115 257.394 14.2454 257.313 14.1843C256.886 13.8588 256.804 13.2484 257.15 12.8211C257.476 12.3939 258.086 12.3125 258.513 12.638C258.798 12.8618 265.675 18.2331 266.53 24.2555C267.262 29.3216 268.584 30.929 269.174 31.051C269.602 31.1528 270.273 30.6034 270.945 29.5658C273.386 25.9035 271.087 19.3725 264.291 10.6441C263.966 10.2169 264.027 9.60648 264.454 9.28095C264.882 8.95541 265.492 9.0368 265.817 9.44371C273.264 19.0266 275.543 26.168 272.552 30.6441C271.535 32.2514 270.436 33.0246 269.297 33.0246Z" fill="#201000"/>
<path d="M272.003 31.1324C271.779 31.1324 271.637 31.1121 271.576 31.0917C271.047 30.99 270.701 30.4814 270.803 29.932C270.904 29.403 271.433 29.0572 271.962 29.1589C271.983 29.1589 273.997 29.3013 277.252 25.639C280.487 22.0175 276.357 15.5678 271.454 8.71127C271.149 8.26366 271.25 7.65328 271.678 7.34809C272.125 7.04291 272.736 7.14464 273.041 7.57191C277.334 13.5943 283.234 21.8344 278.697 26.9412C275.401 30.6848 272.959 31.1324 272.003 31.1324Z" fill="#201000"/>
<path d="M279.633 25.9443C279.572 25.9443 279.49 25.9443 279.429 25.924C279.022 25.8629 278.697 25.6391 278.514 25.3136C278.27 24.8253 278.473 24.2352 278.941 24.0114C279.165 23.8894 279.429 23.8894 279.653 23.9504C279.979 23.7876 280.914 23.1773 282.929 20.8985C286.164 17.277 280.813 9.19964 275.909 2.34308C275.604 1.89547 275.706 1.28509 276.133 0.979901C276.581 0.674713 277.191 0.776444 277.496 1.20371C281.81 7.22609 288.91 17.0938 284.394 22.2007C281.606 25.3746 280.385 25.9443 279.633 25.9443ZM280.263 24.398C280.263 24.4184 280.284 24.4184 280.284 24.4387C280.263 24.4184 280.263 24.398 280.263 24.398Z" fill="#201000"/>
<path d="M270.314 157.558H250.396C239.35 157.558 230.396 166.512 230.396 177.558V197.476C230.396 208.522 239.35 217.476 250.396 217.476H270.314C281.36 217.476 290.314 208.522 290.314 197.476V177.558C290.314 166.512 281.36 157.558 270.314 157.558Z" fill="#DCB976"/>
<path d="M282.176 203.153H238.859C238.595 203.153 238.351 203.052 238.168 202.848C237.985 202.645 237.883 202.401 237.883 202.136C237.903 201.688 238.269 191.353 245.594 184.944C250.029 181.078 256.011 179.532 263.376 180.346C284.312 182.645 283.152 202.034 283.132 202.238C283.112 202.767 282.684 203.153 282.176 203.153ZM239.917 201.2H281.22C281.199 197.518 279.938 184.15 263.173 182.299C256.377 181.546 250.904 182.93 246.896 186.429C241.464 191.149 240.202 198.535 239.917 201.2Z" fill="#201000"/>
<path d="M284.027 168.539C268.027 170.038 245.818 174.363 241.464 183.926C239.266 188.789 238.941 192.39 239.185 192.492C240.955 193.163 242.298 192.247 243.295 190.783C243.437 190.579 246.164 185.94 248.402 184.19C249.663 183.214 251.087 184.475 249.806 185.452C246.611 187.954 245.533 191.82 245.553 195.706C245.574 195.727 245.594 195.747 245.635 195.767C245.472 196.764 245.655 197.761 246.53 198.555C247.283 199.226 248.32 199.368 249.236 198.962C249.887 198.677 250.335 198.209 250.701 197.639C251.047 197.904 251.25 198.351 251.128 198.88C250.925 199.755 253.895 201.993 255.218 201.464C255.665 199.918 258.086 200.589 257.639 202.135C257.13 203.906 258.27 204.964 259.795 205.493C260.447 205.411 261.098 205.187 261.728 204.801C261.606 204.496 265.492 197.761 265.777 197.252C267.364 194.608 269.928 192.817 273.041 192.715C273.671 192.695 283.527 192.539 288.527 190.783C288.543 190.783 289.342 190.257 288.527 190.783C288.873 190.681 288.025 185.401 288.027 185.452L284.027 168.539C284.353 168.478 283.722 168.681 284.027 168.539Z" fill="#DCB976"/>
<path d="M240.141 193.672C239.958 193.672 239.775 193.651 239.592 193.611C238.88 193.428 238.331 192.939 238.046 192.207C237.273 190.233 238.554 186.449 241.464 182.095C249.419 170.152 274.435 168.222 286.114 167.51C286.643 167.469 287.111 167.897 287.152 168.426C287.192 168.955 286.765 169.422 286.236 169.463C277.345 169.992 250.782 171.657 243.092 183.173C240.101 187.649 239.531 190.599 239.877 191.495C239.938 191.657 240.019 191.678 240.08 191.698C240.731 191.841 242.379 189.684 243.458 188.239C245.594 185.411 248.219 181.891 251.637 181.891C251.718 181.891 251.779 181.891 251.861 181.891C252.39 181.912 252.817 182.38 252.797 182.909C252.776 183.458 252.268 183.885 251.779 183.845C249.297 183.743 247.039 186.754 245.045 189.419C243.315 191.678 241.83 193.672 240.141 193.672Z" fill="#201000"/>
<path d="M248.117 200.183C247.771 200.183 247.425 200.101 247.1 199.939C245.35 199.105 244.536 196.399 245.228 193.652C246.387 188.972 249.195 182.258 259.978 177.843C260.487 177.64 261.057 177.884 261.26 178.372C261.464 178.881 261.22 179.45 260.731 179.654C250.782 183.723 248.219 189.867 247.14 194.12C246.611 196.236 247.283 197.863 247.954 198.169C248.198 198.291 248.503 198.128 248.829 197.68C250.233 195.808 252.145 192.228 252.166 192.187C252.43 191.719 253.02 191.536 253.488 191.78C253.956 192.024 254.139 192.635 253.895 193.102C253.814 193.265 251.881 196.846 250.396 198.84C249.744 199.715 248.931 200.183 248.117 200.183Z" fill="#201000"/>
<path d="M253.915 202.868C253.468 202.868 253.02 202.746 252.613 202.502C251.067 201.587 250.477 199.247 251.108 196.582C252.206 191.922 254.912 185.229 265.858 180.752C266.347 180.549 266.937 180.793 267.14 181.281C267.344 181.79 267.099 182.36 266.611 182.563C256.52 186.694 254.017 192.797 253.02 197.029C252.552 198.982 252.979 200.447 253.63 200.834C254.037 201.078 254.505 200.773 254.851 200.488C257.028 198.555 258.066 196.826 258.086 196.805C258.371 196.337 258.961 196.195 259.429 196.46C259.897 196.744 260.039 197.334 259.775 197.802C259.734 197.884 258.595 199.796 256.174 201.953C255.421 202.543 254.648 202.868 253.915 202.868Z" fill="#201000"/>
<path d="M259.917 205.941C259.592 205.941 259.246 205.88 258.941 205.737C257.496 205.127 256.235 202.97 257.456 198.962C257.598 198.494 257.72 198.026 257.842 197.518C258.798 193.794 260.1 188.708 269.989 184.659C270.497 184.455 271.067 184.7 271.27 185.188C271.474 185.697 271.23 186.266 270.741 186.47C261.769 190.132 260.65 194.506 259.755 198.006C259.612 198.535 259.49 199.043 259.348 199.532C258.513 202.278 259.144 203.703 259.734 203.947C260.141 204.11 260.629 203.804 260.996 203.174C262.216 200.976 264.17 197.538 264.17 197.538C264.19 197.497 264.21 197.457 264.251 197.416C267.954 192.655 271.474 191.902 277.028 192.146C282.155 192.39 288.809 190.03 288.87 190.01C289.378 189.827 289.928 190.091 290.111 190.6C290.294 191.109 290.029 191.658 289.521 191.841C289.236 191.943 282.44 194.364 276.947 194.099C271.86 193.855 269.053 194.466 265.838 198.555C265.574 199.023 263.824 202.075 262.705 204.11C262.013 205.29 260.975 205.941 259.917 205.941Z" fill="#201000"/>
<path d="M242.847 210.315H237.232C236.682 210.315 236.255 209.887 236.255 209.338C236.255 208.789 236.682 208.361 237.232 208.361H242.847C243.397 208.361 243.824 208.789 243.824 209.338C243.824 209.887 243.376 210.315 242.847 210.315Z" fill="white"/>
<path d="M281.931 210.884H276.295C275.746 210.884 275.319 210.457 275.319 209.907C275.319 209.358 275.746 208.931 276.295 208.931H281.911C282.46 208.931 282.887 209.358 282.887 209.907C282.887 210.457 282.46 210.884 281.931 210.884Z" fill="white"/>
<path d="M253.834 213.163H248.219C247.669 213.163 247.242 212.736 247.242 212.187C247.242 211.637 247.669 211.21 248.219 211.21H253.834C254.383 211.21 254.811 211.637 254.811 212.187C254.811 212.736 254.383 213.163 253.834 213.163Z" fill="white"/>
<path d="M243.417 202.502C243.397 202.502 243.356 202.502 243.336 202.502C242.807 202.462 242.4 201.994 242.44 201.444C242.461 201.281 242.807 197.253 245.37 193.347C245.675 192.899 246.265 192.777 246.713 193.062C247.161 193.347 247.303 193.957 246.998 194.405C244.719 197.884 244.394 201.566 244.394 201.607C244.353 202.116 243.926 202.502 243.417 202.502Z" fill="#201000"/>
<path d="M288.687 203.153H282.176C281.626 203.153 281.199 202.726 281.199 202.177C281.199 201.627 281.626 201.2 282.176 201.2H288.687C289.236 201.2 289.663 201.627 289.663 202.177C289.663 202.726 289.216 203.153 288.687 203.153Z" fill="#201000"/>
<path d="M79.1646 67.3647H20.4871C9.44137 67.3647 0.487061 76.3191 0.487061 87.3648V140.183C0.487061 151.228 9.44138 160.183 20.4871 160.183H79.1646C90.2103 160.183 99.1646 151.228 99.1646 140.183V87.3647C99.1646 76.3191 90.2103 67.3647 79.1646 67.3647Z" fill="#DCB976"/>
<path d="M53.9765 154.71C49.0528 154.71 43.8442 150.864 42.0538 145.737C42.0131 145.615 41.9928 145.473 42.0131 145.33L43.4373 129.196C40.6703 128.382 32.125 124.822 27.0385 111.068C24.4139 103.967 24.9022 96.0322 28.3407 89.847C31.8809 83.4991 40.7517 76.6832 48.9917 76.6832C49.0324 76.6832 49.0935 76.6832 49.1342 76.6832C53.9358 76.7239 57.7405 79.1247 60.1413 83.6212C60.1616 83.6619 60.182 83.7026 60.182 83.7229C62.42 89.6232 65.6143 95.5439 68.4221 100.752C73.6713 110.498 77.8219 118.189 75.1972 123.214C71.9012 129.481 65.2888 130.742 62.7863 130.986L62.6642 145.493C62.6642 145.534 62.6642 145.574 62.6642 145.615C61.9317 150.925 59.1036 154.221 54.8921 154.628C54.5869 154.71 54.2817 154.71 53.9765 154.71ZM43.9663 145.31C45.6347 149.766 50.5177 153.143 54.7089 152.736C57.9846 152.411 60.1209 149.827 60.7313 145.452L60.8534 130.112C60.8534 129.583 61.2807 129.155 61.8097 129.135C61.891 129.135 70.009 128.911 73.4678 122.339C75.6245 118.25 71.4943 110.579 66.6927 101.709C63.8646 96.4594 60.6499 90.5184 58.3712 84.5164C56.2959 80.671 53.183 78.6975 49.1138 78.6568C49.0731 78.6568 49.0324 78.6568 48.9917 78.6568C41.6876 78.6568 33.3254 84.9233 30.0497 90.8033C26.8758 96.5001 26.4485 103.825 28.8697 110.396C34.4648 125.574 44.536 127.467 44.6377 127.487C45.1464 127.568 45.4923 128.036 45.4516 128.545L43.9663 145.31Z" fill="#201000"/>
<path d="M27.954 110.742C25.4515 103.987 25.8788 96.2763 29.1951 90.3353C33.2236 83.1125 43.9052 75.9507 52.0436 78.0667C48.0354 80.3251 44.8208 83.6822 43.8035 88.5245C42.7048 93.7941 43.9662 99.4706 45.7974 104.842C45.716 106.002 45.6956 107.121 45.777 108.219C46.1026 113.55 49.5817 121.241 46.6112 126.327C45.8584 127.609 45.6346 128.728 44.4342 129.399C41.8299 128.606 32.837 123.987 27.954 110.742Z" fill="#201000"/>
<path d="M63.9458 92.6958C71.1686 99.6948 75.136 101.892 72.2876 107.528L63.9458 92.6958Z" fill="#DCB976"/>
<path d="M72.2671 108.504C72.1247 108.504 71.962 108.464 71.8195 108.403C71.3312 108.159 71.1481 107.569 71.3923 107.08C73.3862 103.133 71.8806 101.485 66.3465 96.3173C65.4106 95.4424 64.3729 94.4658 63.2539 93.3875C62.8673 93.0212 62.847 92.3905 63.2336 92.0039C63.6201 91.6174 64.2305 91.597 64.6171 91.9836C65.7158 93.0619 66.7534 94.0182 67.6893 94.8727C72.9792 99.8168 75.8887 102.523 73.142 107.955C72.9792 108.301 72.6334 108.504 72.2671 108.504Z" fill="#201000"/>
<path d="M46.2651 102.97C36.8246 100.407 32.0637 106.063 32.5113 110.6C33.2641 118.128 40.4259 120.773 50.4971 116.358" fill="#DCB976"/>
<path d="M41.6057 119.471C39.4287 119.471 37.4958 119.003 35.9089 118.067C33.386 116.582 31.86 114.038 31.5345 110.681C31.2904 108.138 32.389 105.554 34.5253 103.764C36.1937 102.34 39.9984 100.224 46.5294 102.014C47.0584 102.156 47.3636 102.685 47.2212 103.214C47.0788 103.743 46.5498 104.049 46.0208 103.906C41.8092 102.767 38.1876 103.235 35.8071 105.269C34.1998 106.633 33.3249 108.626 33.5081 110.498C33.7726 113.204 34.9526 115.239 36.9262 116.399C39.978 118.189 44.6779 117.863 50.1306 115.463C50.6189 115.239 51.209 115.463 51.4124 115.971C51.6362 116.46 51.4124 117.05 50.9038 117.253C47.506 118.718 44.3524 119.471 41.6057 119.471Z" fill="#201000"/>
<path d="M39.9171 109.257C42.1144 108.281 44.5559 108.728 46.265 110.397C47.1602 111.272 45.6953 112.553 44.8001 111.699C43.7421 110.661 42.1348 110.417 40.792 111.007C39.6526 111.536 38.7777 109.786 39.9171 109.257Z" fill="#201000"/>
<path d="M60.2024 94.6289C61.5859 94.3644 62.0132 96.5211 60.6296 96.7856C59.2461 97.0501 58.8189 94.8934 60.2024 94.6289Z" fill="#201000"/>
<path d="M56.8656 91.7188C57.4759 91.4339 58.0863 91.1491 58.6967 90.8642C59.8361 90.3353 60.7109 92.085 59.5716 92.614C58.9612 92.8988 58.3508 93.1837 57.7404 93.4685C56.6011 93.9975 55.7262 92.2478 56.8656 91.7188Z" fill="#201000"/>
<path d="M69.4392 113.856C68.2388 113.184 66.896 113.286 65.838 114.161C64.8817 114.975 63.6813 113.428 64.6376 112.615C66.1839 111.333 68.4219 111.068 70.192 112.045C71.2703 112.655 70.5379 114.466 69.4392 113.856Z" fill="#201000"/>
<path d="M43.1318 144.476C41.8907 144.252 40.6496 144.028 39.4288 143.825C27.8724 141.729 17.9029 137.939 11.3312 143.168C7.87235 145.914 8.06552 146.987 7.02788 153.539C6.92615 154.129 7.3941 154.658 7.98413 154.658C8.47243 154.658 8.87935 154.312 8.94039 153.823C9.66347 148.039 9.45933 147.135 12.5316 144.694C18.4115 140.014 27.9944 143.744 39.0626 145.737C40.2833 145.961 41.5245 146.185 42.7656 146.409C43.2945 146.49 43.8032 146.144 43.9049 145.615C44.0067 145.086 43.6608 144.557 43.1318 144.476Z" fill="#201000"/>
<path d="M89.9825 155.139C89.4942 155.139 89.067 154.773 89.0059 154.264C89.0059 154.183 89.9886 151.454 84.4952 146.551C80.0191 142.563 66.7129 145.127 61.952 146.429C61.423 146.571 60.894 146.266 60.7516 145.758C60.6092 145.229 60.9144 144.7 61.423 144.557C62.1555 144.354 79.5919 139.593 85.777 145.086C91.8604 150.478 90.8981 153.654 90.9388 154.04C90.9998 154.569 90.6133 155.058 90.0639 155.119C90.0639 155.139 90.0232 155.139 89.9825 155.139Z" fill="#201000"/>
<path d="M54.2206 81.0372C61.1993 72.1664 53.5085 64.2112 42.0945 76.6832C30.6804 89.1553 31.5757 94.0383 39.5512 91.7799C47.5268 89.5215 54.2206 81.0372 54.2206 81.0372Z" fill="#201000"/>
<defs>
<clipPath id="clip0_35_512">
<rect width="60" height="60" fill="white" transform="translate(103.528 117.039)"/>
</clipPath>
</defs>
</svg>
