<svg width="38" height="30" viewBox="0 0 38 30" fill="none" xmlns="http://www.w3.org/2000/svg">
<path fill-rule="evenodd" clip-rule="evenodd" d="M11.0576 5.51482e-07H26.6091C28.0849 -1.77818e-05 29.3028 -3.62452e-05 30.295 0.0810154C31.3255 0.16522 32.2728 0.345914 33.1627 0.799279C34.5424 1.50236 35.6642 2.62422 36.3673 4.00407C36.8207 4.89385 37.0015 5.84115 37.0856 6.87164C37.1667 7.86383 37.1667 9.08182 37.1667 10.5576V18.7757C37.1667 20.2515 37.1667 21.4694 37.0856 22.4616C37.0015 23.4921 36.8207 24.4394 36.3673 25.3293C35.6642 26.7091 34.5424 27.8309 33.1627 28.534C32.2728 28.9874 31.3255 29.1681 30.295 29.2523C29.3028 29.3333 28.0849 29.3333 26.6091 29.3333H11.0577C9.58186 29.3333 8.36386 29.3333 7.37164 29.2523C6.34115 29.1681 5.39385 28.9874 4.50407 28.534C3.12422 27.8309 2.00236 26.7091 1.29928 25.3293C0.845914 24.4394 0.66522 23.4921 0.581015 22.4616C0.499964 21.4694 0.499982 20.2515 0.500001 18.7757V10.5576C0.499982 9.08184 0.499964 7.86384 0.581015 6.87166C0.66522 5.84115 0.845914 4.89385 1.29928 4.00407C2.00236 2.62422 3.12422 1.50236 4.50407 0.799279C5.39385 0.345914 6.34115 0.16522 7.37164 0.0810154C8.36384 -3.62452e-05 9.58184 -1.77818e-05 11.0576 5.51482e-07ZM7.67024 3.73551C6.86647 3.80118 6.45544 3.92022 6.1687 4.06632C5.47878 4.41784 4.91784 4.97878 4.56632 5.6687C4.42022 5.95544 4.30118 6.36647 4.23551 7.17024C4.1681 7.9954 4.16667 9.06294 4.16667 10.6333V18.7C4.16667 20.2704 4.1681 21.338 4.23551 22.1632C4.30118 22.9669 4.42022 23.3779 4.56632 23.6647C4.91784 24.3546 5.47878 24.9155 6.1687 25.267C6.45544 25.4131 6.86647 25.5321 7.67024 25.5977C8.4954 25.6652 9.56294 25.6667 11.1333 25.6667H26.5333C28.1038 25.6667 29.1713 25.6652 29.9965 25.5977C30.8002 25.5321 31.2113 25.4131 31.498 25.267C32.1879 24.9155 32.7489 24.3546 33.1003 23.6647C33.2464 23.3779 33.3654 22.9669 33.4311 22.1632C33.4985 21.338 33.5 20.2704 33.5 18.7V10.6333C33.5 9.06294 33.4985 7.9954 33.4311 7.17024C33.3654 6.36647 33.2464 5.95544 33.1003 5.6687C32.7489 4.97878 32.1879 4.41784 31.498 4.06632C31.2113 3.92022 30.8002 3.80118 29.9965 3.73551C29.1713 3.6681 28.1038 3.66667 26.5333 3.66667H11.1333C9.56294 3.66667 8.4954 3.6681 7.67024 3.73551Z" fill="#DCB976"/>
<path fill-rule="evenodd" clip-rule="evenodd" d="M8.15472 8.12978C8.72749 7.29484 9.86867 7.08231 10.7036 7.65508L17.7961 12.5206C18.4211 12.9492 19.2453 12.9492 19.8703 12.5206L26.9627 7.65508C27.7976 7.08231 28.9389 7.29484 29.5116 8.12978C30.0844 8.96474 29.8719 10.1059 29.037 10.6787L21.9445 15.5441C20.0696 16.8302 17.5968 16.8302 15.7218 15.5441L8.62943 10.6787C7.79447 10.1059 7.58193 8.96474 8.15472 8.12978Z" fill="#DCB976"/>
</svg>
