<svg width="41" height="34" viewBox="0 0 41 34" fill="none" xmlns="http://www.w3.org/2000/svg">
<path d="M37.7678 0.136561L1.54154 14.155C1.51999 14.1633 1.49909 14.1732 1.47904 14.1847C1.18528 14.3511 -0.864791 15.6051 2.02593 16.7293L2.05562 16.7403L10.6817 19.5271C10.7475 19.5485 10.8172 19.5552 10.8859 19.5468C10.9546 19.5385 11.0206 19.5152 11.0794 19.4786L32.4746 6.12974C32.5271 6.097 32.5855 6.07496 32.6465 6.06489C32.9442 6.01567 33.8013 5.92348 33.259 6.61178C32.6457 7.39306 18.032 20.4888 16.41 21.9412C16.3165 22.0252 16.2586 22.1417 16.2483 22.267L15.5405 30.7048C15.5404 30.7907 15.5603 30.8755 15.5987 30.9524C15.6371 31.0293 15.6928 31.0962 15.7616 31.1478C15.8591 31.2092 15.9738 31.2377 16.0887 31.2289C16.2036 31.2202 16.3127 31.1748 16.3999 31.0993L21.525 26.5187C21.606 26.4464 21.7093 26.4039 21.8177 26.3984C21.9262 26.3928 22.0332 26.4246 22.1212 26.4883L31.0629 32.9807L31.0918 33.0002C31.3082 33.1338 33.6458 34.494 34.3208 31.4564L40.4929 2.10772C40.5015 2.01475 40.5851 0.992841 39.8546 0.388914C39.0874 -0.242358 38.0014 0.0764027 37.8381 0.110779C37.814 0.117484 37.7905 0.126106 37.7678 0.136561Z" fill="#DCB976"/>
</svg>
