<svg width="30" height="30" viewBox="0 0 30 30" fill="none" xmlns="http://www.w3.org/2000/svg">
<path d="M9.61814 16.4786C9.54481 16.3703 8.19314 14.2736 9.21814 12.187C9.32981 11.9586 10.0248 10.6053 11.4581 10.207C13.5798 9.61864 15.1298 11.7386 16.1331 11.0986C17.2548 10.3836 15.6831 7.50531 16.9781 5.88364C17.9648 4.64864 20.1381 4.74031 21.7831 4.99864" stroke="#DCB976" stroke-width="2.5" stroke-linecap="round" stroke-linejoin="round"/>
<path d="M9.61768 16.4789C12.266 15.7472 13.9693 16.1055 15.1043 16.7705C16.276 17.4572 16.6327 18.3472 17.3027 18.8555" stroke="#DCB976" stroke-width="2.5" stroke-linecap="round" stroke-linejoin="round"/>
<path d="M14.3341 27.0505C14.5807 26.0855 14.7241 24.8121 14.0624 23.8205C13.3574 22.7621 12.3607 22.9588 11.6924 21.8505C10.9957 20.6938 11.7157 19.8755 11.1974 18.4388C10.7107 17.0905 9.59572 16.4821 8.75905 15.8705C7.36572 14.8521 5.63572 13.0188 4.27905 9.4388" stroke="#DCB976" stroke-width="2.5" stroke-linecap="round" stroke-linejoin="round"/>
<path d="M14.3327 27.0653C7.96935 26.7203 2.91602 21.4503 2.91602 15.0003C2.91602 8.32699 8.32602 2.91699 14.9993 2.91699C21.556 2.91699 26.8927 8.13866 27.0777 14.6503" stroke="#DCB976" stroke-width="2.5" stroke-linecap="round" stroke-linejoin="round"/>
<path d="M27.0826 22.917H20.4159C19.4955 22.917 18.7493 23.6632 18.7493 24.5837V27.0837C18.7493 28.0041 19.4955 28.7503 20.4159 28.7503H27.0826C28.0031 28.7503 28.7493 28.0041 28.7493 27.0837V24.5837C28.7493 23.6632 28.0031 22.917 27.0826 22.917Z" stroke="#DCB976" stroke-width="2.5" stroke-linecap="round" stroke-linejoin="round"/>
<path d="M21.2493 22.917V20.417C21.2493 19.037 22.3693 17.917 23.7493 17.917C25.1293 17.917 26.2493 19.037 26.2493 20.417V22.917" stroke="#DCB976" stroke-width="2.5" stroke-linecap="round" stroke-linejoin="round"/>
</svg>
