<svg width="34" height="34" viewBox="0 0 34 34" fill="none" xmlns="http://www.w3.org/2000/svg">
<g clip-path="url(#clip0_35_1332)">
<path d="M16.9907 33.5326C12.7206 33.5326 8.45042 33.5326 4.18026 33.5326C3.31508 33.5414 2.46894 33.2785 1.76116 32.7809C1.05338 32.2832 0.519662 31.5759 0.235278 30.7588C0.0743586 30.2973 -0.00499119 29.8113 0.00078209 29.3227C0.00078209 27.3275 0.00078209 25.3321 0.00078209 23.3365C0.00078209 19.8817 0.00078209 16.4286 0.00078209 12.9772C0.00078209 11.1868 0.817632 9.88474 2.41311 9.07631C2.58801 8.98691 2.79465 8.95712 2.98834 8.90918C3.08162 8.88651 3.13409 8.93056 3.1328 9.03874C3.12956 9.31339 3.14057 9.58805 3.12567 9.86207C3.11774 9.89934 3.10212 9.93455 3.07981 9.96544C3.05751 9.99634 3.029 10.0222 2.99611 10.0415C2.54267 10.3006 2.11837 10.583 1.79578 11.0009C1.37231 11.5447 1.14721 12.2168 1.15772 12.906C1.15772 16.2079 1.15772 19.5094 1.15772 22.8105C1.15772 25.0026 1.14606 27.194 1.1629 29.3861C1.17262 30.5878 1.73877 31.4811 2.79789 32.0524C3.19265 32.2578 3.62973 32.3687 4.07467 32.3763C4.13102 32.3763 4.18673 32.3763 4.24309 32.3763C12.7506 32.3763 21.2581 32.3763 29.7656 32.3763C30.9018 32.3763 31.7906 31.9021 32.404 30.9408C32.7195 30.4459 32.8464 29.8946 32.8451 29.309C32.8421 27.2854 32.8421 25.2617 32.8451 23.2381V12.9163C32.8451 11.841 32.4072 10.9905 31.5314 10.3647C31.2787 10.1837 30.9749 10.0877 30.6641 10.0907H29.9567C29.7047 10.0907 29.5739 9.97089 29.5616 9.71761C29.5499 9.4883 29.5415 9.25834 29.5408 9.02837C29.5305 8.20246 29.5305 7.38172 29.5305 6.5545C29.5305 5.69166 29.5201 4.82817 29.5214 3.96339C29.5214 3.5948 29.3484 3.29423 29.1573 3.00467C28.5672 2.11074 27.7264 1.62685 26.6595 1.62555C20.2348 1.61475 13.8101 1.61475 7.38547 1.62555C6.60457 1.63042 5.85679 1.94164 5.30303 2.49225C4.74927 3.04286 4.43379 3.78885 4.42447 4.56971C4.41605 5.23627 4.41864 5.90349 4.42447 6.5707C4.42447 6.71969 4.37912 6.76503 4.23013 6.7605C3.96714 6.75531 3.70284 6.76503 3.43984 6.77799C3.31612 6.78382 3.25717 6.7605 3.25846 6.61669C3.26624 5.90413 3.25199 5.19158 3.26624 4.47902C3.3077 2.3109 5.13184 0.491288 7.30385 0.474445C9.57108 0.457603 11.8383 0.469263 14.1055 0.469263C18.2695 0.469263 22.433 0.469263 26.596 0.469263C28.3509 0.469263 29.8531 1.48109 30.4924 3.09147C30.6804 3.5433 30.7791 4.02724 30.7833 4.51659C30.7774 5.87692 30.7833 7.24115 30.7781 8.60278C30.7781 8.75242 30.8195 8.81396 30.9685 8.85412C31.8212 9.08979 32.5754 9.59352 33.1197 10.2909C33.664 10.9882 33.9695 11.8422 33.9911 12.7265C34.0053 13.522 33.9956 14.3181 33.9956 15.1143C33.9956 19.8508 34.0027 24.5874 33.9917 29.3239C33.9878 30.9991 33.226 32.2532 31.7588 33.0642C31.148 33.4011 30.4801 33.5339 29.7824 33.5339C25.5192 33.5321 21.2553 33.5317 16.9907 33.5326Z" fill="white"/>
<path d="M12.9139 18.6466V22.8986H16.7688V18.6343H16.9703C18.3896 18.6343 19.8095 18.6343 21.2288 18.6343C21.4811 18.6345 21.7329 18.6561 21.9815 18.6991C22.5593 18.8027 22.9344 19.1467 23.0465 19.7245C23.1839 20.4252 23.1817 21.1461 23.04 21.846C22.9007 22.5242 22.4479 22.8708 21.6699 22.8954C20.7954 22.9226 19.9209 22.9135 19.0445 22.9193C18.7821 22.9193 18.5198 22.9193 18.2412 22.9193V24.0983H11.4609V18.6466H12.9139ZM18.2471 21.6387C18.2683 21.6448 18.2899 21.6491 18.3119 21.6516C19.2479 21.6516 20.1839 21.6562 21.12 21.6516C21.4309 21.6516 21.6259 21.4424 21.6337 21.1256C21.6395 20.8853 21.6337 20.6443 21.6337 20.404C21.6337 20.027 21.4393 19.8391 21.061 19.8385C20.1757 19.8385 19.2904 19.8385 18.4051 19.8385C18.3566 19.8385 18.3073 19.843 18.2497 19.8456L18.2471 21.6387Z" fill="#DCB976"/>
<path d="M16.3068 10.0163H5.06329C4.75818 10.0163 4.73486 9.9936 4.73486 9.69238C4.73486 9.4404 4.7381 9.18776 4.73486 8.93578C4.73486 8.77772 4.80612 8.70905 4.95899 8.71359H27.5963C27.7453 8.71359 27.8263 8.78873 27.8269 8.94031C27.8269 9.24282 27.8269 9.54599 27.8269 9.8472C27.8269 9.95862 27.7796 10.015 27.6669 10.0137H16.3068V10.0163Z" fill="#DCB976"/>
</g>
<defs>
<clipPath id="clip0_35_1332">
<rect width="34" height="33.0678" fill="white" transform="translate(0 0.466064)"/>
</clipPath>
</defs>
</svg>
